<svg width="17" height="17" viewBox="0 0 17 17" fill="none" xmlns="http://www.w3.org/2000/svg">
<path d="M14.5702 2.4298H12.9329V1.3393C12.9329 1.03869 12.6898 0.79245 12.386 0.79245C12.0822 0.79245 11.8392 1.03549 11.8392 1.3393V2.4298H5.28977V1.3393C5.28977 1.03869 5.04672 0.79245 4.74292 0.79245C4.43911 0.79245 4.19607 1.03549 4.19607 1.3393V2.4298H2.56191C1.65689 2.4298 0.924561 3.16213 0.924561 4.06715V14.4381C0.924561 15.3431 1.65689 16.0755 2.56191 16.0755H14.5702C15.4752 16.0755 16.2076 15.3431 16.2076 14.4381V4.06715C16.2076 3.16213 15.4721 2.4298 14.5702 2.4298ZM15.1139 14.4381C15.1139 14.7387 14.8708 14.985 14.567 14.985H2.56191C2.26131 14.985 2.01506 14.7419 2.01506 14.4381V7.34186H15.1139V14.4381ZM15.1139 6.25136H2.01506V4.06715C2.01506 3.76655 2.25811 3.5203 2.56191 3.5203H4.19927V4.61081C4.19927 4.91141 4.44231 5.15766 4.74611 5.15766C5.04992 5.15766 5.29297 4.91461 5.29297 4.61081V3.5203H11.8424V4.61081C11.8424 4.91141 12.0854 5.15766 12.3892 5.15766C12.693 5.15766 12.9361 4.91461 12.9361 4.61081V3.5203H14.5734C14.874 3.5203 15.1203 3.76335 15.1203 4.06715L15.1139 6.25136Z" fill="white"/>
<path d="M12.213 8.59219C12.002 8.38752 11.6662 8.38752 11.4551 8.59219L7.47366 12.5736L5.67641 10.7764C5.45895 10.5685 5.11357 10.5717 4.9057 10.7892C4.70103 11.0003 4.70103 11.336 4.9057 11.5471L7.0899 13.7313C7.30417 13.9456 7.64954 13.9456 7.86061 13.7313L12.2258 9.3661C12.4337 9.14864 12.4305 8.80326 12.213 8.59219Z" fill="white"/>
</svg>
