<svg width="43" height="43" viewBox="0 0 43 43" fill="none" xmlns="http://www.w3.org/2000/svg">
<g clip-path="url(#clip0)">
<path fill-rule="evenodd" clip-rule="evenodd" d="M21.7637 31.8139C27.2874 31.8139 31.8784 27.82 32.8064 22.5624H43.2362V18.6376H32.8064C31.8784 13.38 27.2874 9.3861 21.7637 9.3861C16.2399 9.3861 11.649 13.38 10.7209 18.6376H-0.671875V22.5624H14.755C14.755 22.5624 14.4747 21.3741 14.4747 20.5999C14.4747 19.8258 14.755 18.6376 14.755 18.6376H14.7419C15.5987 15.5651 18.4179 13.3109 21.7637 13.3109C25.1094 13.3109 27.9286 15.5651 28.7855 18.6376H28.7724C28.7724 18.6376 29.0527 19.8258 29.0527 20.5999C29.0527 21.3741 28.7724 22.5624 28.7724 22.5624H28.7855C27.9286 25.6348 25.1094 27.889 21.7637 27.889C18.4179 27.889 15.5987 25.6348 14.7419 22.5624H10.7209C11.649 27.82 16.2399 31.8139 21.7637 31.8139ZM21.3818 23.9641C20.5642 23.9636 19.7718 23.6724 19.139 23.14C18.5062 22.6075 18.0718 21.8665 17.9094 21.0425C17.7471 20.2184 17.8667 19.362 18.2481 18.6183C18.6296 17.8746 19.2492 17.2892 20.0022 16.9615C20.4387 16.7716 20.9079 16.6742 21.3818 16.6751H24.9129C24.97 16.6751 25.0246 16.6984 25.0649 16.7398C25.1052 16.7813 25.1278 16.8374 25.1278 16.896V17.8929C25.1278 17.9515 25.1052 18.0077 25.0649 18.0491C25.0246 18.0905 24.97 18.1138 24.9129 18.1138H24.8474V18.1182H21.273C20.7061 18.1182 20.1625 18.3498 19.7616 18.7619C19.3608 19.1741 19.1357 19.7331 19.1357 20.3159C19.1357 20.8989 19.3608 21.4578 19.7616 21.87C20.1625 22.2822 20.7061 22.5137 21.273 22.5137H24.8474V22.5254H24.9129C24.9699 22.5254 25.0245 22.5486 25.0648 22.59C25.1051 22.6315 25.1277 22.6877 25.1277 22.7463V23.7432C25.1277 23.8019 25.1051 23.858 25.0648 23.8994C25.0245 23.9408 24.9699 23.9641 24.9129 23.9641H21.3818ZM21.7971 20.991C21.6642 20.991 21.5367 20.9367 21.4427 20.8401C21.3487 20.7434 21.2959 20.6123 21.2959 20.4757V20.1636C21.2959 20.0269 21.3487 19.8958 21.4427 19.7992C21.5367 19.7025 21.6642 19.6482 21.7971 19.6482H24.6266C24.7596 19.6482 24.8871 19.7025 24.9811 19.7992C25.075 19.8958 25.1279 20.0269 25.1279 20.1636V20.4756C25.1279 20.5433 25.1149 20.6103 25.0897 20.6728C25.0645 20.7353 25.0276 20.7921 24.9811 20.84C24.9345 20.8878 24.8793 20.9258 24.8185 20.9517C24.7577 20.9776 24.6924 20.9909 24.6266 20.9909L21.7971 20.991Z" fill="#B5BAC9"/>
<mask id="mask0" mask-type="alpha" maskUnits="userSpaceOnUse" x="4" y="3" width="35" height="35">
<path fill-rule="evenodd" clip-rule="evenodd" d="M21.5 37.8568C31.0085 37.8568 38.7168 30.1485 38.7168 20.64C38.7168 11.1315 31.0085 3.4232 21.5 3.4232C11.9915 3.4232 4.2832 11.1315 4.2832 20.64C4.2832 30.1485 11.9915 37.8568 21.5 37.8568ZM21.5457 34.112C29.0113 34.112 35.0634 28.0599 35.0634 20.5943C35.0634 13.1287 29.0113 7.07664 21.5457 7.07664C14.0801 7.07664 8.02797 13.1287 8.02797 20.5943C8.02797 28.0599 14.0801 34.112 21.5457 34.112Z" fill="white"/>
</mask>
<g mask="url(#mask0)">
<path fill-rule="evenodd" clip-rule="evenodd" d="M21.5 37.8568C31.0085 37.8568 38.7168 30.1485 38.7168 20.64C38.7168 11.1315 31.0085 3.4232 21.5 3.4232C11.9915 3.4232 4.2832 11.1315 4.2832 20.64C4.2832 30.1485 11.9915 37.8568 21.5 37.8568ZM21.5457 34.112C29.0113 34.112 35.0634 28.0599 35.0634 20.5943C35.0634 13.1287 29.0113 7.07664 21.5457 7.07664C14.0801 7.07664 8.02797 13.1287 8.02797 20.5943C8.02797 28.0599 14.0801 34.112 21.5457 34.112Z" fill="white" fill-opacity="0.1"/>
<path d="M38.5488 20.64C38.5488 30.0558 30.9158 37.6888 21.5 37.6888V38.0248C31.1013 38.0248 38.8848 30.2414 38.8848 20.64H38.5488ZM21.5 3.59118C30.9158 3.59118 38.5488 11.2242 38.5488 20.64H38.8848C38.8848 11.0387 31.1013 3.25524 21.5 3.25524V3.59118ZM4.45117 20.64C4.45117 11.2242 12.0842 3.59118 21.5 3.59118V3.25524C11.8987 3.25524 4.11523 11.0387 4.11523 20.64H4.45117ZM21.5 37.6888C12.0842 37.6888 4.45117 30.0558 4.45117 20.64H4.11523C4.11523 30.2414 11.8987 38.0248 21.5 38.0248V37.6888ZM34.8954 20.5943C34.8954 27.9672 28.9185 33.9441 21.5457 33.9441V34.28C29.104 34.28 35.2314 28.1527 35.2314 20.5943H34.8954ZM21.5457 7.24462C28.9185 7.24462 34.8954 13.2215 34.8954 20.5943H35.2314C35.2314 13.036 29.104 6.90868 21.5457 6.90868V7.24462ZM8.19593 20.5943C8.19593 13.2215 14.1728 7.24462 21.5457 7.24462V6.90868C13.9873 6.90868 7.86 13.036 7.86 20.5943H8.19593ZM21.5457 33.9441C14.1728 33.9441 8.19593 27.9672 8.19593 20.5943H7.86C7.86 28.1527 13.9873 34.28 21.5457 34.28V33.9441Z" fill="#B5BAC9"/>
<path d="M38.5488 20.64C38.5488 30.0558 30.9158 37.6888 21.5 37.6888V38.0248C31.1013 38.0248 38.8848 30.2414 38.8848 20.64H38.5488ZM21.5 3.59118C30.9158 3.59118 38.5488 11.2242 38.5488 20.64H38.8848C38.8848 11.0387 31.1013 3.25524 21.5 3.25524V3.59118ZM4.45117 20.64C4.45117 11.2242 12.0842 3.59118 21.5 3.59118V3.25524C11.8987 3.25524 4.11523 11.0387 4.11523 20.64H4.45117ZM21.5 37.6888C12.0842 37.6888 4.45117 30.0558 4.45117 20.64H4.11523C4.11523 30.2414 11.8987 38.0248 21.5 38.0248V37.6888ZM34.8954 20.5943C34.8954 27.9672 28.9185 33.9441 21.5457 33.9441V34.28C29.104 34.28 35.2314 28.1527 35.2314 20.5943H34.8954ZM21.5457 7.24462C28.9185 7.24462 34.8954 13.2215 34.8954 20.5943H35.2314C35.2314 13.036 29.104 6.90868 21.5457 6.90868V7.24462ZM8.19593 20.5943C8.19593 13.2215 14.1728 7.24462 21.5457 7.24462V6.90868C13.9873 6.90868 7.86 13.036 7.86 20.5943H8.19593ZM21.5457 33.9441C14.1728 33.9441 8.19593 27.9672 8.19593 20.5943H7.86C7.86 28.1527 13.9873 34.28 21.5457 34.28V33.9441Z" fill="#B5BAC9"/>
</g>
</g>
<defs>
<clipPath id="clip0">
<rect width="43" height="43" fill="white"/>
</clipPath>
</defs>
</svg>
