<svg width="121" height="40" viewBox="0 0 121 40" fill="none" xmlns="http://www.w3.org/2000/svg">
<path d="M48.032 25.038V21.564H54.116V19.638H48.032V16.362H54.89V14.4H45.692V27H55.142V25.038H48.032ZM56.697 22.932H61.647V21.06H56.697V22.932ZM64.3248 27H66.6648V14.4H64.3248V27ZM83.8609 27L83.8429 14.4H81.9169L77.0029 22.752L71.9989 14.4H70.0729V27H72.3049V18.756L76.4449 25.56H77.4889L81.6289 18.648L81.6469 27H83.8609ZM89.4063 25.02L96.8223 15.966V14.4H86.4363V16.38H93.7263L86.3103 25.434V27H97.0563V25.02H89.4063ZM104.945 27.18C108.851 27.18 111.731 24.444 111.731 20.7C111.731 16.956 108.851 14.22 104.945 14.22C101.039 14.22 98.1592 16.974 98.1592 20.7C98.1592 24.426 101.039 27.18 104.945 27.18ZM104.945 25.128C102.407 25.128 100.517 23.274 100.517 20.7C100.517 18.126 102.407 16.272 104.945 16.272C107.483 16.272 109.373 18.126 109.373 20.7C109.373 23.274 107.483 25.128 104.945 25.128Z" fill="#00966D"/>
<path fill-rule="evenodd" clip-rule="evenodd" d="M21.6778 28.0359C25.4032 28.0359 28.4994 25.3423 29.1252 21.7965H34.1593V19.1495H29.1252C28.4994 15.6037 25.4032 12.9102 21.6778 12.9102C17.9525 12.9102 14.8563 15.6037 14.2304 19.1495H8.54688V21.7965H16.9511C16.9511 21.7965 16.762 20.9951 16.762 20.473C16.762 19.9509 16.9511 19.1495 16.9511 19.1495H16.9422C17.5201 17.0774 19.4214 15.5571 21.6778 15.5571C23.9342 15.5571 25.8356 17.0774 26.4135 19.1495H26.4046C26.4046 19.1495 26.5937 19.9509 26.5937 20.473C26.5937 20.9951 26.4046 21.7965 26.4046 21.7965H26.4135C25.8356 23.8686 23.9342 25.3889 21.6778 25.3889C19.4214 25.3889 17.5201 23.8686 16.9422 21.7965H14.2304C14.8563 25.3423 17.9525 28.0359 21.6778 28.0359ZM21.4203 22.7418C20.8689 22.7415 20.3345 22.5451 19.9077 22.186C19.4809 21.8269 19.1879 21.3272 19.0784 20.7714C18.969 20.2157 19.0497 19.6381 19.3069 19.1365C19.5641 18.6349 19.982 18.2402 20.4899 18.0191C20.7842 17.8911 21.1007 17.8254 21.4203 17.826H23.8018C23.8402 17.826 23.877 17.8417 23.9042 17.8696C23.9314 17.8976 23.9466 17.9355 23.9466 17.975V18.6473C23.9466 18.6868 23.9314 18.7247 23.9042 18.7526C23.877 18.7806 23.8402 18.7963 23.8018 18.7963H23.7575V18.7993H21.3469C20.9646 18.7993 20.5979 18.9554 20.3276 19.2333C20.0573 19.5113 19.9055 19.8883 19.9055 20.2814C19.9055 20.6746 20.0573 21.0516 20.3276 21.3295C20.5979 21.6075 20.9646 21.7637 21.3469 21.7637H23.7575V21.7715H23.8017C23.8402 21.7715 23.877 21.7872 23.9042 21.8151C23.9314 21.8431 23.9466 21.881 23.9466 21.9205V22.5929C23.9466 22.6324 23.9314 22.6702 23.9042 22.6982C23.877 22.7261 23.8402 22.7418 23.8017 22.7418H21.4203ZM21.7004 20.7367C21.6107 20.7367 21.5247 20.7001 21.4614 20.6349C21.398 20.5697 21.3624 20.4813 21.3624 20.3892V20.1787C21.3624 20.0865 21.398 19.9981 21.4614 19.9329C21.5247 19.8677 21.6107 19.8311 21.7004 19.8311H23.6087C23.6983 19.8311 23.7843 19.8677 23.8477 19.9329C23.9111 19.9981 23.9467 20.0865 23.9467 20.1787V20.3891C23.9467 20.4348 23.938 20.48 23.921 20.5221C23.904 20.5643 23.8791 20.6026 23.8477 20.6349C23.8163 20.6671 23.779 20.6928 23.738 20.7102C23.697 20.7277 23.653 20.7366 23.6087 20.7366L21.7004 20.7367Z" fill="#00966D"/>
<mask id="mask0" mask-type="alpha" maskUnits="userSpaceOnUse" x="9" y="8" width="25" height="25">
<path fill-rule="evenodd" clip-rule="evenodd" d="M21.5 32.1113C27.9127 32.1113 33.1113 26.9127 33.1113 20.5C33.1113 14.0873 27.9127 8.88867 21.5 8.88867C15.0873 8.88867 9.88867 14.0873 9.88867 20.5C9.88867 26.9127 15.0873 32.1113 21.5 32.1113ZM21.5308 29.5858C26.5658 29.5858 30.6474 25.5041 30.6474 20.4692C30.6474 15.4342 26.5658 11.3526 21.5308 11.3526C16.4959 11.3526 12.4142 15.4342 12.4142 20.4692C12.4142 25.5041 16.4959 29.5858 21.5308 29.5858Z" fill="white"/>
</mask>
<g mask="url(#mask0)">
<path opacity="0.1" fill-rule="evenodd" clip-rule="evenodd" d="M21.5 32.1113C27.9127 32.1113 33.1113 26.9127 33.1113 20.5C33.1113 14.0873 27.9127 8.88867 21.5 8.88867C15.0873 8.88867 9.88867 14.0873 9.88867 20.5C9.88867 26.9127 15.0873 32.1113 21.5 32.1113ZM21.5308 29.5858C26.5658 29.5858 30.6474 25.5041 30.6474 20.4692C30.6474 15.4342 26.5658 11.3526 21.5308 11.3526C16.4959 11.3526 12.4142 15.4342 12.4142 20.4692C12.4142 25.5041 16.4959 29.5858 21.5308 29.5858Z" fill="#00966D"/>
<path d="M32.998 20.5C32.998 26.8502 27.8502 31.998 21.5 31.998V32.2246C27.9753 32.2246 33.2246 26.9753 33.2246 20.5H32.998ZM21.5 9.00195C27.8502 9.00195 32.998 14.1498 32.998 20.5H33.2246C33.2246 14.0247 27.9753 8.77539 21.5 8.77539V9.00195ZM10.002 20.5C10.002 14.1498 15.1498 9.00195 21.5 9.00195V8.77539C15.0247 8.77539 9.77539 14.0247 9.77539 20.5H10.002ZM21.5 31.998C15.1498 31.998 10.002 26.8502 10.002 20.5H9.77539C9.77539 26.9753 15.0247 32.2246 21.5 32.2246V31.998ZM30.5341 20.4692C30.5341 25.4416 26.5032 29.4725 21.5308 29.4725V29.6991C26.6283 29.6991 30.7607 25.5667 30.7607 20.4692H30.5341ZM21.5308 11.4659C26.5032 11.4659 30.5341 15.4968 30.5341 20.4692H30.7607C30.7607 15.3717 26.6283 11.2393 21.5308 11.2393V11.4659ZM12.5275 20.4692C12.5275 15.4968 16.5584 11.4659 21.5308 11.4659V11.2393C16.4333 11.2393 12.3009 15.3717 12.3009 20.4692H12.5275ZM21.5308 29.4725C16.5584 29.4725 12.5275 25.4416 12.5275 20.4692H12.3009C12.3009 25.5667 16.4333 29.6991 21.5308 29.6991V29.4725Z" fill="#00966D"/>
</g>
</svg>
