<svg width="121" height="40" viewBox="0 0 121 40" fill="none" xmlns="http://www.w3.org/2000/svg">
<path fill-rule="evenodd" clip-rule="evenodd" d="M9.64542 17.5001C9.73021 17.5002 9.81417 17.4844 9.89254 17.4538C9.97091 17.4231 10.0421 17.3781 10.1021 17.3214C10.1621 17.2647 10.2097 17.1973 10.2422 17.1232C10.2746 17.049 10.2914 16.9695 10.2914 16.8892V13.7667C10.2924 12.827 10.6871 11.9261 11.3889 11.2616C12.0907 10.5972 13.0422 10.2234 14.0347 10.2225H16.1592C16.3304 10.2225 16.4946 10.1581 16.6157 10.0434C16.7368 9.9288 16.8048 9.77334 16.8048 9.61123C16.8048 9.44912 16.7368 9.29366 16.6157 9.17904C16.4946 9.06441 16.3304 9 16.1592 9H14.0355C12.7007 9.00155 11.4212 9.50424 10.4774 10.3978C9.53358 11.2914 9.00265 12.5029 9.00101 13.7667V16.8892C9.00101 17.0511 9.06887 17.2064 9.1897 17.3209C9.31053 17.4354 9.47444 17.4999 9.64542 17.5001ZM51.707 14.8411V13.6891H43.067V26.2891H44.399V20.9431H50.915V19.7911H44.399V14.8411H51.707ZM62.914 26.2891H64.318L58.558 13.6891H57.244L51.484 26.2891H52.87L54.382 22.9231H61.402L62.914 26.2891ZM54.868 21.8431L57.892 15.0751L60.916 21.8431H54.868ZM71.3386 26.3971C73.1926 26.3971 74.8486 25.7671 75.9646 24.5431L75.1186 23.6971C74.0926 24.7591 72.8326 25.2091 71.3926 25.2091C68.3506 25.2091 66.0646 22.9771 66.0646 19.9891C66.0646 17.0011 68.3506 14.7691 71.3926 14.7691C72.8326 14.7691 74.0926 15.2191 75.1186 16.2631L75.9646 15.4171C74.8486 14.1931 73.1926 13.5811 71.3566 13.5811C67.5586 13.5811 64.7506 16.2991 64.7506 19.9891C64.7506 23.6791 67.5586 26.3971 71.3386 26.3971ZM79.7761 25.1371V20.4571H86.2921V19.3231H79.7761V14.8411H87.0841V13.6891H78.4441V26.2891H87.3541V25.1371H79.7761ZM94.476 26.2891H95.808V13.6891H94.476V26.2891ZM99.5477 26.2891H104.678C108.71 26.2891 111.428 23.6971 111.428 19.9891C111.428 16.2811 108.71 13.6891 104.678 13.6891H99.5477V26.2891ZM100.88 25.1371V14.8411H104.606C107.954 14.8411 110.114 16.9651 110.114 19.9891C110.114 23.0131 107.954 25.1371 104.606 25.1371H100.88ZM16.276 16.2776C16.1912 16.2776 16.1073 16.2934 16.0289 16.3242C15.9506 16.3549 15.8795 16.4 15.8195 16.4568C15.7596 16.5136 15.7121 16.581 15.6797 16.6552C15.6473 16.7294 15.6307 16.8089 15.6308 16.8892V18.6668C15.6308 18.8288 15.6988 18.9842 15.8198 19.0987C15.9408 19.2133 16.1049 19.2777 16.276 19.2777C16.4471 19.2777 16.6112 19.2133 16.7322 19.0987C16.8532 18.9842 16.9212 18.8288 16.9212 18.6668V16.8892C16.9212 16.7271 16.8533 16.5717 16.7323 16.457C16.6113 16.3423 16.4472 16.2778 16.276 16.2776ZM25.2071 19.2315C25.1287 19.2621 25.0447 19.2779 24.9599 19.2778C24.7888 19.2778 24.6247 19.2134 24.5037 19.0988C24.3827 18.9843 24.3148 18.8289 24.3148 18.6669V16.8893C24.3148 16.7272 24.3828 16.5717 24.5038 16.4571C24.6249 16.3425 24.7891 16.2781 24.9603 16.2781C25.1316 16.2781 25.2958 16.3425 25.4168 16.4571C25.5379 16.5717 25.6059 16.7272 25.6059 16.8893V18.6669C25.6059 18.7472 25.5892 18.8266 25.5567 18.9008C25.5243 18.975 25.4767 19.0424 25.4167 19.0991C25.3567 19.1558 25.2855 19.2008 25.2071 19.2315ZM24.9477 23.7906C24.8877 23.7338 24.8166 23.6887 24.7382 23.658C24.6599 23.6272 24.5759 23.6114 24.4911 23.6114C24.4063 23.6114 24.3223 23.6272 24.2439 23.658C24.1656 23.6887 24.0944 23.7338 24.0345 23.7906C23.1282 24.648 21.8995 25.1296 20.6184 25.1296C19.3373 25.1296 18.1086 24.648 17.2024 23.7906C17.1424 23.7339 17.0713 23.6888 16.993 23.6581C16.9147 23.6273 16.8308 23.6115 16.746 23.6115C16.6613 23.6114 16.5773 23.6272 16.499 23.6579C16.4207 23.6886 16.3495 23.7336 16.2896 23.7903C16.2296 23.847 16.182 23.9144 16.1496 23.9885C16.1171 24.0626 16.1004 24.1421 16.1003 24.2223C16.1003 24.3026 16.117 24.3821 16.1494 24.4562C16.1818 24.5304 16.2293 24.5977 16.2892 24.6545C17.4374 25.7416 18.9947 26.3523 20.6184 26.3523C22.2422 26.3523 23.7995 25.7416 24.9477 24.6545C25.0687 24.5399 25.1366 24.3846 25.1366 24.2226C25.1366 24.0606 25.0687 23.9052 24.9477 23.7906ZM20.6606 22.3698C20.4165 22.4578 20.1555 22.4959 19.8947 22.4816C19.7235 22.4816 19.5593 22.4173 19.4383 22.3026C19.3172 22.188 19.2492 22.0325 19.2492 21.8704C19.2492 21.7083 19.3172 21.5528 19.4383 21.4382C19.5593 21.3236 19.7235 21.2592 19.8947 21.2592C20.2046 21.2592 20.5593 21.1873 20.5593 20.63V16.89C20.5593 16.7278 20.6273 16.5724 20.7484 16.4578C20.8694 16.3431 21.0337 16.2787 21.2049 16.2787C21.3761 16.2787 21.5403 16.3431 21.6613 16.4578C21.7824 16.5724 21.8504 16.7278 21.8504 16.89V20.63C21.8655 20.8769 21.8253 21.124 21.7323 21.3551C21.6393 21.5862 21.4958 21.7961 21.3111 21.971C21.1264 22.1459 20.9047 22.2818 20.6606 22.3698ZM14.0345 29.7782H16.1582H16.159C16.3301 29.7782 16.4942 29.8426 16.6152 29.9572C16.7362 30.0717 16.8042 30.2271 16.8042 30.3891C16.8042 30.5511 16.7362 30.7065 16.6152 30.8211C16.4942 30.9356 16.3301 31 16.159 31H14.0345C12.6997 30.9986 11.42 30.496 10.4761 29.6024C9.53231 28.7087 9.00144 27.4971 9 26.2333V23.1115C9 22.9494 9.06803 22.7939 9.18909 22.6793C9.31016 22.5647 9.47435 22.5002 9.64557 22.5002C9.81679 22.5002 9.981 22.5647 10.1021 22.6793C10.2231 22.7939 10.2911 22.9494 10.2911 23.1115V26.2333C10.2922 27.173 10.6869 28.074 11.3886 28.7386C12.0904 29.4032 13.0419 29.777 14.0345 29.7782ZM27.2014 9H25.0776C24.9064 9 24.7422 9.06441 24.6212 9.17904C24.5001 9.29366 24.4321 9.44912 24.4321 9.61123C24.4321 9.77334 24.5001 9.9288 24.6212 10.0434C24.7422 10.1581 24.9064 10.2225 25.0776 10.2225H27.2014C28.194 10.2234 29.1456 10.5972 29.8475 11.2616C30.5494 11.926 30.9443 12.8269 30.9455 13.7667V16.8892C30.9455 17.0512 31.0135 17.2066 31.1345 17.3212C31.2555 17.4357 31.4196 17.5001 31.5907 17.5001C31.7618 17.5001 31.9259 17.4357 32.0469 17.3212C32.1679 17.2066 32.2359 17.0512 32.2359 16.8892V13.7667C32.2342 12.5029 31.7033 11.2914 30.7595 10.3978C29.8157 9.50424 28.5361 9.00155 27.2014 9ZM31.3438 22.5472C31.4221 22.5165 31.506 22.5007 31.5907 22.5007C31.7619 22.5007 31.926 22.5651 32.047 22.6796C32.1679 22.7942 32.2359 22.9496 32.2359 23.1116V26.2334C32.2345 27.4972 31.7036 28.7088 30.7598 29.6024C29.816 30.4961 28.5363 30.9987 27.2015 31H25.0777C24.9066 31 24.7425 30.9357 24.6215 30.8211C24.5005 30.7066 24.4325 30.5512 24.4325 30.3892C24.4325 30.2272 24.5005 30.0718 24.6215 29.9572C24.7425 29.8427 24.9066 29.7783 25.0777 29.7783H27.2015C28.1941 29.7771 29.1457 29.4033 29.8476 28.7387C30.5495 28.0742 30.9443 27.1732 30.9456 26.2334V23.1116C30.9456 23.0313 30.9622 22.9519 30.9947 22.8778C31.0271 22.8037 31.0746 22.7364 31.1345 22.6796C31.1944 22.6229 31.2656 22.5779 31.3438 22.5472Z" fill="#2962FF"/>
</svg>
