<svg width="121" height="40" viewBox="0 0 121 40" fill="none" xmlns="http://www.w3.org/2000/svg">
<path fill-rule="evenodd" clip-rule="evenodd" d="M107.677 20L107.677 21.4L107.676 21.9798L107.674 22.4247L107.671 22.7996L107.668 23.1298L107.664 23.4283L107.659 23.7025L107.653 23.9577L107.647 24.1972L107.639 24.4235L107.631 24.6386L107.623 24.8439L107.613 25.0407L107.603 25.2298L107.592 25.412L107.58 25.5881L107.568 25.7584L107.554 25.9237L107.54 26.0841L107.525 26.2401L107.51 26.392L107.493 26.5401L107.476 26.6846L107.458 26.8257L107.44 26.9636L107.42 27.0984L107.4 27.2304L107.379 27.3597L107.357 27.4864L107.334 27.6106L107.311 27.7325L107.287 27.8521L107.262 27.9695L107.236 28.0848L107.21 28.198L107.183 28.3094L107.155 28.4188L107.126 28.5265L107.096 28.6323L107.066 28.7365L107.035 28.839L107.003 28.9399L106.97 29.0392L106.936 29.137L106.902 29.2333L106.867 29.3281L106.831 29.4216L106.794 29.5136L106.756 29.6043L106.718 29.6937L106.678 29.7818L106.638 29.8686L106.597 29.9541L106.556 30.0385L106.513 30.1216L106.47 30.2036L106.426 30.2843L106.38 30.364L106.335 30.4425L106.288 30.52L106.24 30.5963L106.192 30.6716L106.142 30.7458L106.092 30.819L106.041 30.8911L105.989 30.9622L105.936 31.0324L105.883 31.1015L105.828 31.1697L105.773 31.2368L105.716 31.3031L105.659 31.3684L105.601 31.4327L105.542 31.4961L105.482 31.5586L105.421 31.6202L105.359 31.6809L105.296 31.7406L105.232 31.7995L105.167 31.8576L105.102 31.9147L105.035 31.971L104.967 32.0264L104.899 32.081L104.829 32.1347L104.758 32.1876L104.686 32.2396L104.614 32.2908L104.54 32.3412L104.465 32.3908L104.389 32.4396L104.312 32.4875L104.234 32.5347L104.154 32.581L104.074 32.6265L103.993 32.6713L103.91 32.7153L103.826 32.7584L103.741 32.8008L103.655 32.8424L103.567 32.8833L103.478 32.9234L103.388 32.9627L103.297 33.0012L103.204 33.039L103.11 33.076L103.015 33.1123L102.918 33.1478L102.82 33.1825L102.72 33.2165L102.619 33.2498L102.516 33.2823L102.412 33.3141L102.306 33.3451L102.198 33.3754L102.089 33.405L101.978 33.4338L101.865 33.4619L101.75 33.4893L101.634 33.5159L101.515 33.5418L101.395 33.567L101.272 33.5915L101.147 33.6152L101.02 33.6382L100.89 33.6605L100.758 33.6821L100.624 33.703L100.487 33.7231L100.347 33.7425L100.204 33.7613L100.058 33.7793L99.9086 33.7966L99.7558 33.8131L99.5994 33.829L99.4392 33.8442L99.2748 33.8586L99.1059 33.8724L98.9323 33.8854L98.7535 33.8978L98.5692 33.9094L98.3788 33.9203L98.1817 33.9306L97.9772 33.9401L97.7645 33.9489L97.5426 33.957L97.3103 33.9644L97.0658 33.9711L96.8073 33.9771L96.5321 33.9825L96.2364 33.9871L95.9151 33.991L95.5602 33.9942L95.1581 33.9967L94.6833 33.9985L94.0714 33.9996L85.4636 34L83.5785 33.9997L82.9311 33.9987L82.4406 33.997L82.0292 33.9946L81.6678 33.9915L81.3417 33.9877L81.0424 33.9832L80.7642 33.978L80.5032 33.9721L80.2567 33.9655L80.0225 33.9582L79.799 33.9502L79.585 33.9415L79.3792 33.9321L79.181 33.922L78.9896 33.9112L78.8043 33.8997L78.6247 33.8875L78.4503 33.8745L78.2807 33.8609L78.1156 33.8465L77.9547 33.8315L77.7977 33.8157L77.6444 33.7993L77.4946 33.7821L77.3481 33.7642L77.2046 33.7456L77.0642 33.7262L76.9266 33.7062L76.7916 33.6855L76.6593 33.664L76.5294 33.6418L76.4019 33.6189L76.2767 33.5953L76.1536 33.5709L76.0327 33.5459L75.9139 33.5201L75.797 33.4936L75.682 33.4663L75.5689 33.4383L75.4576 33.4096L75.3481 33.3802L75.2402 33.35L75.134 33.3191L75.0295 33.2874L74.9265 33.255L74.825 33.2219L74.7251 33.188L74.6266 33.1534L74.5295 33.118L74.4339 33.0818L74.3396 33.0449L74.2467 33.0073L74.1552 32.9689L74.0649 32.9297L73.9759 32.8897L73.8882 32.849L73.8017 32.8075L73.7164 32.7652L73.6323 32.7222L73.5495 32.6783L73.4677 32.6337L73.3871 32.5883L73.3077 32.5421L73.2294 32.4951L73.1521 32.4473L73.076 32.3986L73.0009 32.3492L72.9269 32.2989L72.854 32.2478L72.7821 32.1959L72.7112 32.1432L72.6413 32.0896L72.5725 32.0352L72.5046 31.9799L72.4378 31.9237L72.3719 31.8667L72.307 31.8088L72.243 31.7501L72.18 31.6904L72.118 31.6299L72.0568 31.5685L71.9967 31.5061L71.9374 31.4429L71.8791 31.3787L71.8216 31.3135L71.7651 31.2475L71.7095 31.1804L71.6548 31.1124L71.6009 31.0434L71.548 30.9735L71.4959 30.9025L71.4447 30.8305L71.3944 30.7575L71.3449 30.6835L71.2963 30.6084L71.2486 30.5322L71.2017 30.455L71.1556 30.3766L71.1104 30.2971L71.0661 30.2165L71.0225 30.1347L70.9799 30.0518L70.938 29.9676L70.897 29.8823L70.8567 29.7957L70.8174 29.7078L70.7788 29.6186L70.741 29.5281L70.7041 29.4363L70.6679 29.3431L70.6326 29.2485L70.5981 29.1524L70.5644 29.0548L70.5314 28.9558L70.4993 28.8551L70.468 28.7529L70.4374 28.649L70.4077 28.5434L70.3787 28.4361L70.3506 28.3269L70.3232 28.2159L70.2966 28.1029L70.2708 27.988L70.2458 27.8709L70.2215 27.7517L70.1981 27.6302L70.1754 27.5064L70.1535 27.3801L70.1323 27.2512L70.112 27.1196L70.0924 26.9852L70.0736 26.8478L70.0555 26.7073L70.0382 26.5633L70.0217 26.4159L70.006 26.2646L69.991 26.1092L69.9768 25.9495L69.9634 25.7851L69.9507 25.6156L69.9388 25.4404L69.9276 25.2592L69.9172 25.0713L69.9076 24.8758L69.8987 24.6719L69.8906 24.4585L69.8833 24.234L69.8767 23.9968L69.8709 23.7443L69.8659 23.4734L69.8616 23.1793L69.858 22.8548L69.8552 22.4882L69.8532 22.0571L69.852 21.5073L69.8515 20.5587L69.8517 18.7163L69.8527 18.1006L69.8545 17.6405L69.857 17.2566L69.8603 16.9204L69.8644 16.6175L69.8692 16.3397L69.8748 16.0818L69.8811 15.84L69.8882 15.6117L69.8961 15.395L69.9047 15.1882L69.9141 14.9901L69.9242 14.7999L69.9351 14.6166L69.9468 14.4396L69.9592 14.2683L69.9724 14.1023L69.9864 13.9411L70.0011 13.7844L70.0166 13.6319L70.0329 13.4832L70.0499 13.3382L70.0677 13.1966L70.0863 13.0582L70.1056 12.9228L70.1258 12.7904L70.1466 12.6607L70.1683 12.5336L70.1908 12.409L70.214 12.2867L70.238 12.1668L70.2627 12.0491L70.2883 11.9334L70.3147 11.8198L70.3418 11.7082L70.3697 11.5985L70.3984 11.4906L70.4279 11.3844L70.4582 11.28L70.4892 11.1772L70.5211 11.0761L70.5538 10.9765L70.5872 10.8785L70.6215 10.782L70.6566 10.6869L70.6925 10.5932L70.7292 10.5009L70.7667 10.41L70.805 10.3205L70.8441 10.2322L70.8841 10.1452L70.9248 10.0594L70.9664 9.97488L71.0089 9.89155L71.0521 9.8094L71.0962 9.72842L71.1412 9.64859L71.1869 9.56987L71.2336 9.49226L71.281 9.41575L71.3294 9.34031L71.3786 9.26593L71.4286 9.19259L71.4795 9.12028L71.5313 9.04899L71.584 8.97871L71.6375 8.90942L71.692 8.84111L71.7473 8.77377L71.8035 8.7074L71.8607 8.64197L71.9187 8.57747L71.9777 8.51391L72.0376 8.45128L72.0984 8.38955L72.1601 8.32873L72.2228 8.2688L72.2865 8.20976L72.3511 8.1516L72.4167 8.09432L72.4832 8.0379L72.5508 7.98234L72.6193 7.92764L72.6888 7.87378L72.7594 7.82077L72.831 7.76859L72.9036 7.71724L72.9772 7.66672L73.052 7.61702L73.1278 7.56813L73.2046 7.52005L73.2826 7.47278L73.3617 7.42632L73.4419 7.38064L73.5233 7.33577L73.6058 7.29168L73.6895 7.24838L73.7744 7.20586L73.8605 7.16412L73.9478 7.12315L74.0364 7.08295L74.1263 7.04353L74.2174 7.00487L74.3099 6.96697L74.4037 6.92983L74.4989 6.89345L74.5955 6.85782L74.6935 6.82294L74.793 6.78882L74.894 6.75544L74.9965 6.7228L75.1005 6.69091L75.2062 6.65976L75.3135 6.62934L75.4225 6.59966L75.5333 6.57072L75.6458 6.54251L75.7602 6.51502L75.8764 6.48827L75.9947 6.46224L76.1149 6.43694L76.2373 6.41237L76.3618 6.38851L76.4885 6.36538L76.6177 6.34297L76.7492 6.32127L76.8833 6.3003L77.0201 6.28003L77.1596 6.26049L77.302 6.24165L77.4476 6.22353L77.5963 6.20613L77.7485 6.18943L77.9043 6.17344L78.0639 6.15816L78.2276 6.14359L78.3958 6.12973L78.5686 6.11657L78.7465 6.10412L78.9299 6.09238L79.1193 6.08134L79.3153 6.071L79.5186 6.06137L79.7299 6.05244L79.9502 6.04421L80.1808 6.03669L80.4232 6.02987L80.6793 6.02374L80.9517 6.01832L81.2438 6.01361L81.5606 6.00959L81.9095 6.00627L82.3028 6.00365L82.7633 6.00173L83.3451 6.00052L84.293 6L93.8184 6.00018L94.5087 6.00107L95.0166 6.00265L95.4381 6.00493L95.8062 6.00791L96.1372 6.0116L96.4403 6.01598L96.7216 6.02107L96.9851 6.02685L97.2338 6.03334L97.4698 6.04053L97.6949 6.04842L97.9104 6.05701L98.1174 6.06631L98.3168 6.07631L98.5092 6.08702L98.6955 6.09842L98.8759 6.11054L99.0511 6.12336L99.2215 6.13688L99.3873 6.15111L99.5488 6.16605L99.7064 6.1817L99.8603 6.19806L100.011 6.21513L100.158 6.23291L100.302 6.2514L100.443 6.27061L100.581 6.29053L100.716 6.31116L100.849 6.33251L100.979 6.35458L101.107 6.37737L101.232 6.40088L101.356 6.42511L101.477 6.45007L101.596 6.47574L101.713 6.50215L101.829 6.52928L101.942 6.55715L102.054 6.58574L102.163 6.61507L102.272 6.64513L102.378 6.67593L102.483 6.70747L102.586 6.73975L102.688 6.77278L102.788 6.80655L102.887 6.84106L102.984 6.87633L103.08 6.91235L103.174 6.94913L103.267 6.98666L103.359 7.02496L103.45 7.06402L103.539 7.10385L103.627 7.14445L103.713 7.18582L103.799 7.22796L103.883 7.27089L103.966 7.3146L104.048 7.3591L104.129 7.40439L104.209 7.45048L104.287 7.49737L104.365 7.54506L104.441 7.59356L104.516 7.64287L104.59 7.693L104.663 7.74395L104.735 7.79573L104.806 7.84835L104.876 7.9018L104.945 7.9561L105.014 8.01125L105.081 8.06725L105.147 8.12412L105.212 8.18186L105.276 8.24048L105.339 8.29998L105.401 8.36037L105.462 8.42167L105.523 8.48387L105.582 8.54699L105.641 8.61104L105.698 8.67602L105.755 8.74194L105.811 8.80882L105.865 8.87666L105.919 8.94548L105.973 9.01529L106.025 9.08609L106.076 9.15791L106.127 9.23076L106.176 9.30464L106.225 9.37957L106.273 9.45557L106.32 9.53265L106.366 9.61084L106.411 9.69014L106.456 9.77057L106.499 9.85215L106.542 9.93491L106.584 10.0189L106.625 10.104L106.666 10.1904L106.705 10.2781L106.744 10.3671L106.782 10.4573L106.819 10.549L106.855 10.6419L106.891 10.7363L106.925 10.8322L106.959 10.9295L106.992 11.0283L107.025 11.1287L107.056 11.2307L107.087 11.3343L107.117 11.4396L107.146 11.5467L107.174 11.6555L107.201 11.7663L107.228 11.8789L107.254 11.9936L107.279 12.1103L107.304 12.2292L107.327 12.3503L107.35 12.4737L107.372 12.5996L107.393 12.7281L107.414 12.8592L107.433 12.9931L107.452 13.1301L107.471 13.2701L107.488 13.4135L107.505 13.5604L107.52 13.711L107.536 13.8657L107.55 14.0247L107.563 14.1884L107.576 14.3571L107.588 14.5313L107.6 14.7115L107.61 14.8983L107.62 15.0925L107.629 15.295L107.637 15.5068L107.644 15.7294L107.651 15.9645L107.657 16.2143L107.662 16.482L107.667 16.7721L107.67 17.0911L107.673 17.4499L107.675 17.8683L107.677 18.3924L107.677 19.2099L107.677 20ZM85.4268 27.7H91.3603C96.9815 27.7 100.261 24.4 100.261 19.956C100.261 15.468 97.0261 12.3 91.4495 12.3H85.4268V27.7ZM82.4601 27.7H78.01V12.3H82.4601V27.7ZM28.2834 20C28.2834 24.2474 25.0221 28.05 20.1186 28.05C15.215 28.05 12 24.2918 12 20C12 15.7526 15.2613 11.95 20.1648 11.95C25.0683 11.95 28.2834 15.7081 28.2834 20ZM13.249 20C13.249 23.8471 16.1634 27.0048 20.1648 27.0048C24.1663 27.0048 27.0344 23.8916 27.0344 20C27.0344 16.1529 24.12 12.9952 20.1186 12.9952C16.1171 12.9952 13.249 16.1084 13.249 20ZM33.9144 27.7H32.7672V12.3H33.8914L44.9733 25.698V12.3H46.1205V27.7H45.2257L33.9144 14.016V27.7ZM62.4346 27.7H50.8938V12.3H62.3199V13.356H52.0869V19.406H61.2874V20.462H52.0869V26.644H62.4346V27.7ZM95.4434 24.0682C95.3408 24.1378 95.2359 24.2025 95.1291 24.2628C94.6931 24.5149 94.2698 24.6655 93.8782 24.7679C93.816 24.7842 93.7553 24.7993 93.6961 24.8133C93.187 24.9351 92.6879 24.9892 92.2491 25.0012C91.609 25.0186 90.9606 25.0126 90.3345 25.0068H90.3343C90.0295 25.0039 89.7299 25.0012 89.4392 25.0012H88.3958C88.3775 24.431 88.477 23.648 88.6612 23.0241C88.812 22.5142 89.4828 22.1414 90.0938 21.8314L90.1377 21.8091C90.3285 21.712 90.6735 21.5364 90.9959 21.4175C91.0301 21.4049 91.0658 21.3925 91.1023 21.3797L91.1025 21.3797C91.3808 21.2829 91.7059 21.1697 91.7387 20.8577C91.764 20.617 91.6348 20.4666 91.4808 20.2874C91.4438 20.2444 91.4054 20.1997 91.3673 20.1516C90.9179 19.5851 90.495 18.8125 90.5714 17.7663C90.6465 16.7394 91.3426 15.942 92.5081 15.8189C92.643 15.8046 92.7745 15.7985 92.9021 15.8003C93.0297 15.7985 93.1612 15.8046 93.2961 15.8189C94.4615 15.942 95.1577 16.7394 95.2328 17.7663C95.3092 18.8125 94.8863 19.5851 94.4369 20.1516C94.3988 20.1997 94.3604 20.2444 94.3234 20.2874C94.1694 20.4666 94.0401 20.617 94.0655 20.8577C94.0983 21.1697 94.4234 21.2829 94.7017 21.3797C94.722 21.3868 94.742 21.3937 94.7616 21.4007C94.7774 21.4063 94.793 21.4119 94.8083 21.4175C95.1307 21.5364 95.4757 21.712 95.6665 21.8091L95.7104 21.8314C96.1221 22.0403 96.5611 22.2777 96.8497 22.5665C96.7247 22.7984 96.505 23.0974 96.3769 23.239C96.0647 23.5838 95.7501 23.8535 95.4396 24.0668L95.4434 24.0682Z" fill="#4825C2"/>
</svg>
