<svg width="51" height="45" viewBox="0 0 51 45" fill="none" xmlns="http://www.w3.org/2000/svg">
<path d="M33.2077 20.3909C33.2077 22.4705 32.3816 24.4649 30.9111 25.9354C29.4406 27.4059 27.4461 28.2321 25.3665 28.2321C23.2869 28.2321 21.2925 27.4059 19.822 25.9354C18.3515 24.4649 17.5254 22.4705 17.5254 20.3909C17.5254 18.3113 18.3515 16.3169 19.822 14.8464C21.2925 13.3759 23.2869 12.5497 25.3665 12.5497C27.4461 12.5497 29.4406 13.3759 30.9111 14.8464C32.3816 16.3169 33.2077 18.3113 33.2077 20.3909Z" fill="white"/>
<path d="M4.56319 0.652014C4.99028 1.8115 6.40311 4.57382 11.0305 9.25886C13.542 11.6335 16.3214 13.7077 19.3126 15.4395C20.0465 14.5378 20.9722 13.811 22.0225 13.3123C23.0727 12.8135 24.221 12.5552 25.3836 12.5563C26.547 12.5552 27.6959 12.8137 28.7466 13.3131C29.7973 13.8125 30.7233 14.5401 31.4571 15.4428C34.4507 13.7103 37.2323 11.635 39.7457 9.25886C46.1107 2.81104 46.3957 0.00242615 46.3957 0.00242615H4.37968L4.56075 0.652014" fill="#D8C1AA"/>
<path d="M20.4599 4.67691C20.5908 4.68698 20.7184 4.72273 20.8355 4.78213C20.9525 4.84152 21.0568 4.9234 21.1422 5.02308C21.2276 5.12276 21.2926 5.23829 21.3334 5.36308C21.3741 5.48786 21.3899 5.61946 21.3799 5.75035C21.3698 5.88124 21.334 6.00886 21.2746 6.12593C21.2152 6.243 21.1334 6.34724 21.0337 6.43267C20.934 6.5181 20.8185 6.58305 20.6937 6.62382C20.5689 6.66459 20.4373 6.6804 20.3064 6.6703C20.1755 6.66024 20.0479 6.62449 19.9308 6.56509C19.8138 6.5057 19.7095 6.42382 19.6241 6.32414C19.5387 6.22446 19.4737 6.10893 19.4329 5.98414C19.3922 5.85936 19.3764 5.72778 19.3865 5.59689C19.3965 5.466 19.4323 5.33836 19.4917 5.22129C19.5511 5.10421 19.6329 4.99998 19.7326 4.91455C19.8323 4.82912 19.9478 4.76417 20.0726 4.7234C20.1974 4.68263 20.329 4.66682 20.4599 4.67691Z" fill="white"/>
<path d="M30.3926 4.67691C30.5235 4.68698 30.6511 4.72273 30.7682 4.78213C30.8853 4.84152 30.9895 4.9234 31.0749 5.02308C31.1604 5.12276 31.2253 5.23829 31.2661 5.36308C31.3069 5.48786 31.3227 5.61946 31.3126 5.75035C31.3025 5.88124 31.2668 6.00886 31.2074 6.12593C31.148 6.243 31.0661 6.34724 30.9664 6.43267C30.8667 6.5181 30.7512 6.58305 30.6264 6.62382C30.5016 6.66459 30.37 6.6804 30.2391 6.6703C30.1083 6.66024 29.9806 6.62449 29.8635 6.56509C29.7465 6.5057 29.6422 6.42382 29.5568 6.32414C29.4714 6.22446 29.4064 6.10893 29.3657 5.98414C29.3249 5.85936 29.3091 5.72778 29.3192 5.59689C29.3292 5.466 29.365 5.33836 29.4244 5.22129C29.4838 5.10421 29.5657 4.99998 29.6653 4.91455C29.765 4.82912 29.8805 4.76417 30.0053 4.7234C30.1301 4.68263 30.2617 4.66682 30.3926 4.67691Z" fill="white"/>
<path d="M34.2479 4.92946C34.3456 4.93696 34.4409 4.96363 34.5283 5.00797C34.6157 5.0523 34.6936 5.11344 34.7574 5.18786C34.8211 5.26229 34.8696 5.34855 34.9001 5.44173C34.9305 5.5349 34.9423 5.63315 34.9348 5.73088C34.9194 5.92818 34.8264 6.11132 34.6762 6.24011C34.5259 6.3689 34.3307 6.43281 34.1334 6.41781C34.0356 6.41031 33.9403 6.38362 33.8529 6.33928C33.7655 6.29494 33.6877 6.23383 33.6239 6.15941C33.5601 6.08498 33.5116 5.99872 33.4811 5.90554C33.4507 5.81237 33.4389 5.71413 33.4465 5.6164C33.454 5.51866 33.4806 5.42336 33.525 5.33594C33.5693 5.24852 33.6304 5.1707 33.7048 5.10691C33.7793 5.04312 33.8655 4.9946 33.9587 4.96416C34.0519 4.93371 34.1501 4.92192 34.2479 4.92946Z" fill="white"/>
<path d="M16.6696 4.92946C16.7673 4.93696 16.8626 4.96363 16.95 5.00797C17.0374 5.0523 17.1153 5.11344 17.1791 5.18786C17.2429 5.26229 17.2914 5.34855 17.3218 5.44173C17.3522 5.5349 17.364 5.63315 17.3565 5.73088C17.349 5.82861 17.3223 5.92391 17.278 6.01133C17.2336 6.09875 17.1725 6.17657 17.0981 6.24036C17.0237 6.30415 16.9374 6.35267 16.8442 6.38311C16.7511 6.41356 16.6528 6.42535 16.5551 6.41781C16.4573 6.41031 16.362 6.38362 16.2746 6.33928C16.1872 6.29494 16.1094 6.23383 16.0456 6.15941C15.9818 6.08498 15.9333 5.99872 15.9029 5.90554C15.8724 5.81237 15.8606 5.71412 15.8682 5.6164C15.8757 5.51866 15.9023 5.42336 15.9467 5.33594C15.991 5.24852 16.0521 5.1707 16.1266 5.10691C16.201 5.04312 16.2872 4.9946 16.3804 4.96416C16.4736 4.93371 16.5718 4.92192 16.6696 4.92946Z" fill="white"/>
<path d="M24.8242 4.56L25.3382 3.82924L25.8124 4.586L26.6917 4.43254L26.492 5.30296L27.2228 5.81693L26.466 6.29113L26.6195 7.17047L25.749 6.97073L25.2351 7.70152L24.7609 6.94476L23.8815 7.09822L24.0813 6.2278L23.3505 5.71382L24.1072 5.23962L23.9538 4.36026L24.8242 4.56Z" fill="white"/>
<path d="M47.0574 18.1255C47.992 17.5523 48.7977 16.7917 49.4239 15.8918C50.0501 14.9919 50.4832 13.972 50.6958 12.8965C50.8564 11.4691 50.7829 10.0251 50.4782 8.62147C50.4782 8.62147 48.3907 12.2388 42.0419 15.4728C40.119 16.3994 38.1021 17.117 36.026 17.6132C35.957 17.4078 35.8864 17.2072 35.8133 17.0204C36.8128 16.6762 38.2338 16.1703 39.6068 15.6222C41.0026 15.0644 45.8362 12.3898 47.3814 9.56011C48.5041 7.59886 48.8484 5.28716 48.346 3.08385C48.0347 1.87817 47.3532 0.800455 46.3973 0.00242837C46.3973 0.00242837 46.1123 2.81023 39.7473 9.25886C37.2339 11.635 34.4523 13.7103 31.4587 15.4428C32.6 16.839 33.2224 18.5876 33.2199 20.3909C33.2197 21.9056 32.7804 23.3877 31.955 24.6578C31.1297 25.9279 29.9538 26.9314 28.5698 27.5468C28.383 27.4656 28.1873 27.3844 28.0014 27.2943C27.4351 27.018 26.9672 26.5746 26.6608 26.0241C26.3544 25.4735 26.2243 24.8421 26.2881 24.2153C26.6129 22.3883 27.6823 21.656 29.8226 22.0108C29.8226 22.0108 29.8226 20.5493 26.5415 18.4885C25.3617 17.7464 23.7264 16.6266 23.5258 15.934C23.1183 16.4154 22.8989 17.028 22.9079 17.6587C22.8942 17.9956 22.9642 18.3307 23.1117 18.6339C23.2592 18.9371 23.4796 19.1991 23.7532 19.3963C24.1773 19.5835 24.6183 19.7298 25.0702 19.8331C23.7328 20.4781 22.6524 21.5559 22.0039 22.8916C21.3555 24.2274 21.1771 25.7429 21.4975 27.1928C20.2973 26.5084 19.2996 25.5185 18.6058 24.3237C17.912 23.1289 17.5468 21.7717 17.5473 20.3901C17.5443 18.5848 18.1676 16.8343 19.3109 15.4371C16.3197 13.7052 13.5404 11.631 11.0289 9.25641C4.66385 2.80859 4.37885 0 4.37885 0C3.42288 0.797953 2.74131 1.8757 2.43013 3.08142C1.92531 5.28622 2.26881 7.60026 3.39231 9.56335C4.93505 12.3931 9.77031 15.0677 11.1661 15.6255C12.5391 16.1736 13.9601 16.681 14.9596 17.0237C14.8865 17.2129 14.8159 17.411 14.7468 17.6164C12.6708 17.1202 10.6539 16.4027 8.73099 15.4761C2.38791 12.2388 0.300342 8.62147 0.300342 8.62147C-0.00434201 10.0251 -0.0778442 11.4691 0.0827352 12.8965C0.295422 13.972 0.728493 14.9919 1.35468 15.8918C1.98087 16.7917 2.7866 17.5523 3.72116 18.1255C5.84607 19.6041 10.4069 21.0291 12.6089 21.3279C13.1773 21.4042 13.6401 21.4578 14.0226 21.496C14.0112 21.7055 14.0055 21.9206 14.0023 22.1391C12.3814 21.9908 10.7752 21.7114 9.19949 21.3036C2.60795 19.5635 0.086795 16.4074 0.086795 16.4074C0.0535908 17.7739 0.243654 19.1367 0.649488 20.4421C1.40949 22.5085 2.93355 23.6656 4.89039 24.536C7.14197 25.5372 11.7751 25.8904 13.8862 25.7743C14.0486 25.7653 14.2231 25.758 14.366 25.7515C14.4091 25.948 14.4286 26.1575 14.4797 26.3443C13.7489 26.3621 12.872 26.4506 12.125 26.4368C9.97063 26.3582 7.82431 26.13 5.70154 25.754C4.08875 25.3918 2.57631 24.6767 1.27308 23.6599C1.63259 24.9902 2.12495 26.2809 2.74274 27.5127C3.36187 28.5669 4.29062 29.4049 5.40274 29.9128C6.93783 30.4414 8.57733 30.594 10.1836 30.3578C11.5063 30.2539 14.66 29.7764 15.8584 29.5913C15.9794 29.7935 16.102 29.9892 16.223 30.1751C14.5131 30.6539 12.7714 31.0107 11.011 31.2428C9.13907 31.4946 7.24175 31.493 5.37026 31.238C5.99342 32.0504 6.67686 32.8147 7.41479 33.5245C8.4874 34.4615 9.33265 34.8025 11.4186 34.7238C13.8862 34.6312 16.875 33.0519 18.11 32.4722C18.2635 32.6191 18.4348 32.7807 18.6215 32.952C17.4508 33.6683 16.2331 34.3047 14.9766 34.8569C13.4071 35.4449 11.7747 35.849 10.1121 36.0611C10.6227 36.6659 11.2498 37.1616 11.9561 37.5187C12.6624 37.8759 13.4334 38.0871 14.2231 38.1397C15.9542 38.1664 17.641 37.5925 18.9967 36.5158C19.6249 36.0149 20.2094 35.4616 20.744 34.8618L21.2474 35.3067C20.5401 36.4104 19.6049 37.35 18.5046 38.0626C16.1394 39.4965 15.0505 39.4429 15.0505 39.4429C15.0505 39.4429 17.3922 41.2788 19.3377 40.8622C21.1646 40.47 22.6911 38.2542 23.3431 37.1653C23.5258 37.3277 23.698 37.4844 23.8587 37.6306C23.6947 38.0217 23.5049 38.4015 23.2904 38.7673C22.528 40.2035 21.434 41.4372 20.0993 42.366C20.0993 42.366 20.8252 43.2819 23.6119 44.4089C24.1816 44.6398 24.7662 44.8321 25.3617 44.9846V45L25.3901 44.9927L25.4185 45V44.9846C26.014 44.8321 26.5986 44.6398 27.1683 44.4089C29.955 43.2819 30.6809 42.366 30.6809 42.366C29.3462 41.4372 28.2522 40.2035 27.4898 38.7673C27.2753 38.4015 27.0854 38.0217 26.9215 37.6306C27.0839 37.4844 27.2544 37.3285 27.4371 37.1653C28.0866 38.2542 29.6164 40.4708 31.4425 40.8622C33.3912 41.2796 35.7297 39.4429 35.7297 39.4429C35.7297 39.4429 34.64 39.4965 32.2756 38.0626C31.1753 37.35 30.2401 36.4104 29.5328 35.3067L30.0362 34.8618C30.5709 35.4614 31.1554 36.0148 31.7835 36.5158C33.1392 37.5925 34.826 38.1663 36.5571 38.1397C37.3468 38.087 38.1178 37.8758 38.8241 37.5187C39.5304 37.1615 40.1575 36.6658 40.6681 36.0611C39.0055 35.849 37.3731 35.4449 35.8036 34.8569C34.5472 34.3046 33.3294 33.6682 32.1586 32.952C32.3446 32.7807 32.5167 32.6191 32.6702 32.4722C33.9052 33.0519 36.8924 34.6312 39.3616 34.7238C41.4484 34.8049 42.2928 34.4615 43.3654 33.5245C44.1034 32.8147 44.7868 32.0504 45.4099 31.238C43.5381 31.4925 41.6405 31.4936 39.7684 31.2412C38.008 31.0091 36.2663 30.6523 34.5564 30.1735C34.6798 29.9875 34.8 29.7919 34.921 29.5897C36.1202 29.7748 39.2731 30.2523 40.5958 30.3562C42.2021 30.5924 43.8416 30.4398 45.3767 29.9112C46.4888 29.4034 47.4176 28.5653 48.0367 27.5111C48.655 26.2791 49.1479 24.9881 49.5079 23.6575C48.2047 24.6742 46.6923 25.3894 45.0795 25.7515C42.9567 26.1276 40.8104 26.3557 38.656 26.4344C37.909 26.4474 37.0321 26.3597 36.3013 26.3418C36.3525 26.1534 36.3719 25.9456 36.415 25.7491C36.5579 25.7564 36.7349 25.7637 36.8948 25.7718C39.006 25.8879 43.639 25.5347 45.8906 24.5336C47.8475 23.6639 49.3715 22.5036 50.1315 20.4396C50.5374 19.1343 50.7275 17.7715 50.6942 16.405C50.6942 16.405 48.1771 19.5611 41.5831 21.3003C40.0074 21.7081 38.4012 21.9875 36.7804 22.1358C36.7804 21.9174 36.7714 21.7022 36.7601 21.4927C37.1417 21.4546 37.6078 21.4018 38.1737 21.3247C40.3757 21.0267 44.9358 19.6017 47.0607 18.1223" fill="#364BA8"/>
</svg>
