<svg width="16" height="16" viewBox="0 0 16 16" fill="none" xmlns="http://www.w3.org/2000/svg">
<path fill-rule="evenodd" clip-rule="evenodd" d="M5.3335 4.00004H4.00016V3.33337H2.66683V5.33337H13.3335V3.33337H12.0002V4.00004H10.6668V3.33337H5.3335V4.00004ZM13.3335 6.66671H2.66683V13.3334H13.3335V6.66671ZM10.6668 2.00004H5.3335V1.33337H4.00016V2.00004H2.66683C1.93045 2.00004 1.3335 2.59699 1.3335 3.33337V13.3334C1.3335 14.0698 1.93045 14.6667 2.66683 14.6667H13.3335C14.0699 14.6667 14.6668 14.0698 14.6668 13.3334V3.33337C14.6668 2.59699 14.0699 2.00004 13.3335 2.00004H12.0002V1.33337H10.6668V2.00004ZM4.66683 9.33337V8.00004H6.00016V9.33337H4.66683ZM7.3335 9.33337H8.66683V8.00004H7.3335V9.33337ZM10.0002 9.33337V8.00004H11.3335V9.33337H10.0002ZM4.66683 10.6667V12H6.00016V10.6667H4.66683ZM8.66683 12H7.3335V10.6667H8.66683V12Z" fill="#5B7ED7"/>
</svg>
