<svg width="16" height="16" viewBox="0 0 16 16" fill="none" xmlns="http://www.w3.org/2000/svg">
<path fill-rule="evenodd" clip-rule="evenodd" d="M7.73331 11.2666C7.66665 11.2666 7.59998 11.2 7.53331 11.1333L4.86665 8.46663C4.59998 8.19996 4.59998 7.79996 4.86665 7.53329C5.13331 7.26663 5.53331 7.26663 5.79998 7.53329L7.33331 9.06663V1.33329C7.33331 0.933293 7.59998 0.666626 7.99998 0.666626C8.39998 0.666626 8.66665 0.933293 8.66665 1.33329V9.06663L10.2 7.53329C10.4666 7.26663 10.8666 7.26663 11.1333 7.53329C11.4 7.79996 11.4 8.19996 11.1333 8.46663L8.46665 11.1333C8.43331 11.1666 8.39998 11.1833 8.36665 11.2C8.33331 11.2166 8.29998 11.2333 8.26665 11.2666C8.19998 11.3333 8.06665 11.3333 7.99998 11.3333C7.93331 11.3333 7.79998 11.3333 7.73331 11.2666ZM14.6666 13.3333V11.3333C14.6666 10.9333 14.4 10.6666 14 10.6666C13.6 10.6666 13.3333 10.9333 13.3333 11.3333V13.3333C13.3333 13.7333 13.0666 14 12.6666 14H3.33331C2.93331 14 2.66665 13.7333 2.66665 13.3333V11.3333C2.66665 10.9333 2.39998 10.6666 1.99998 10.6666C1.59998 10.6666 1.33331 10.9333 1.33331 11.3333V13.3333C1.33331 14.4666 2.19998 15.3333 3.33331 15.3333H12.6666C13.8 15.3333 14.6666 14.4666 14.6666 13.3333Z" fill="#2962FF"/>
<mask id="mask0" mask-type="alpha" maskUnits="userSpaceOnUse" x="1" y="0" width="14" height="16">
<path fill-rule="evenodd" clip-rule="evenodd" d="M7.73331 11.2666C7.66665 11.2666 7.59998 11.2 7.53331 11.1333L4.86665 8.46663C4.59998 8.19996 4.59998 7.79996 4.86665 7.53329C5.13331 7.26663 5.53331 7.26663 5.79998 7.53329L7.33331 9.06663V1.33329C7.33331 0.933293 7.59998 0.666626 7.99998 0.666626C8.39998 0.666626 8.66665 0.933293 8.66665 1.33329V9.06663L10.2 7.53329C10.4666 7.26663 10.8666 7.26663 11.1333 7.53329C11.4 7.79996 11.4 8.19996 11.1333 8.46663L8.46665 11.1333C8.43331 11.1666 8.39998 11.1833 8.36665 11.2C8.33331 11.2166 8.29998 11.2333 8.26665 11.2666C8.19998 11.3333 8.06665 11.3333 7.99998 11.3333C7.93331 11.3333 7.79998 11.3333 7.73331 11.2666ZM14.6666 13.3333V11.3333C14.6666 10.9333 14.4 10.6666 14 10.6666C13.6 10.6666 13.3333 10.9333 13.3333 11.3333V13.3333C13.3333 13.7333 13.0666 14 12.6666 14H3.33331C2.93331 14 2.66665 13.7333 2.66665 13.3333V11.3333C2.66665 10.9333 2.39998 10.6666 1.99998 10.6666C1.59998 10.6666 1.33331 10.9333 1.33331 11.3333V13.3333C1.33331 14.4666 2.19998 15.3333 3.33331 15.3333H12.6666C13.8 15.3333 14.6666 14.4666 14.6666 13.3333Z" fill="white"/>
</mask>
<g mask="url(#mask0)">
<rect width="16" height="16" fill="#2962FF"/>
</g>
</svg>
