<svg width="18" height="30" viewBox="0 0 18 30" fill="none" xmlns="http://www.w3.org/2000/svg">
<path opacity="0.84" d="M5.89325 2.25001C6.70676 1.35938 7.99562 1.15313 8.74528 0.18985C9.46656 1.15313 10.7601 1.31719 11.5358 2.21251C11.4436 2.27344 11.2568 2.39532 11.1622 2.45626C10.403 1.84922 9.49258 1.47657 8.74291 0.860162C7.99798 1.56329 6.87703 1.76016 6.30474 2.66251C6.2669 2.63907 6.19122 2.59454 6.15338 2.5711C6.08717 2.49141 5.95947 2.32969 5.89325 2.25001Z" fill="#CBAB97"/>
<path opacity="0.84" d="M8.72163 1.52579C9.26555 2.19376 10.1926 2.35313 10.7199 3.04219C11.6919 2.40704 12.9713 2.13985 14.0402 2.71172C15.348 3.30235 15.9297 4.81407 15.7027 6.16876C15.5845 6.15001 15.348 6.11016 15.2297 6.08907C15.3906 4.88438 14.8797 3.55547 13.6949 3.06094C12.6189 2.50782 11.3537 2.94376 10.5331 3.73594C10.2801 2.87344 9.42636 2.56172 8.724 2.14688C8.02636 2.56407 7.18211 2.87579 6.93143 3.73126C6.10846 2.96251 4.87163 2.51016 3.79798 3.04688C2.58954 3.52266 2.07873 4.88204 2.21116 6.09141L1.73819 6.14063C1.55373 4.83516 2.07636 3.39844 3.30136 2.77266C4.1669 2.22891 5.20271 2.44922 6.15339 2.5711C6.3142 2.76094 6.48684 2.94141 6.65947 3.12188C7.1892 2.3836 8.17062 2.2336 8.72163 1.52579Z" fill="#CBAB97"/>
<path opacity="0.84" d="M5.85539 3.14532C5.89796 3.47111 5.93106 3.80158 5.95708 4.1297C5.32093 4.01017 4.576 3.75236 3.99424 4.17657C3.55674 4.42736 3.39356 4.92189 3.27769 5.37658C3.15235 5.18439 3.02701 4.98986 2.90167 4.79767C3.21147 4.25626 3.61823 3.68673 4.27329 3.55079C4.81958 3.47345 5.41552 3.55782 5.85539 3.14532Z" fill="#CBAB97"/>
<path opacity="0.84" d="M11.5689 3.27892C12.4558 3.53907 13.5885 3.37032 14.2081 4.18829C14.7095 4.74142 14.6456 5.51251 14.5581 6.19454C16.0338 6.33517 17.3037 7.45313 17.5 8.9297V9.60235C17.3203 11.0906 16.0385 12.2016 14.5676 12.3703C14.6385 13.0289 14.7048 13.7602 14.2531 14.3109C13.6571 15.1781 12.4818 14.9953 11.5879 15.2695C11.5808 14.993 11.5737 14.7164 11.5642 14.4422C12.3044 14.5922 13.2362 14.8055 13.7872 14.1281C14.421 13.5375 14.1868 12.6164 13.8392 11.9414C14.6385 11.9391 15.4993 11.8289 16.1166 11.2711C17.2423 10.357 17.3463 8.51251 16.3271 7.48126C15.7098 6.77579 14.7379 6.59532 13.8392 6.62579C14.1939 5.94142 14.4233 4.99688 13.7706 4.40392C13.2291 3.74767 12.3115 3.97501 11.5879 4.0922C11.5831 3.88829 11.5737 3.48048 11.5689 3.27892Z" fill="#CBAB97"/>
<path opacity="0.84" d="M3.45981 8.14454C3.94933 5.75626 6.26927 3.87423 8.74055 3.9586C10.8311 3.88829 12.8531 5.21485 13.6878 7.10157C14.2483 8.25704 14.2649 9.57188 14.0118 10.8094C15.2345 11.2359 16.4145 9.78985 15.8635 8.67657C15.5868 7.91016 14.7331 7.67813 14 7.59844C14.3949 7.34298 14.7733 7.04063 15.2321 6.90469C15.1848 7.02188 15.0855 7.25391 15.0382 7.3711C15.7784 7.77423 16.4878 8.4586 16.3909 9.37032C16.4429 10.418 15.3503 10.8586 14.8774 11.6461C14.5794 11.4188 14.3524 11.0531 13.9574 10.9828C13.3639 12.3094 12.4108 13.6102 10.9943 14.1984C8.49933 15.382 5.18616 14.3016 3.98481 11.8102C3.27062 12.3656 2.99866 13.4602 3.71521 14.1305C4.24258 14.7914 5.14596 14.6484 5.84832 14.4164C5.89798 14.8102 5.91454 15.2156 6.04933 15.5953C6.33312 15.3281 6.61927 15.0656 6.90542 14.8008C7.15373 15.6867 8.02636 15.9914 8.72163 16.4531C9.41217 16.0078 10.2943 15.7125 10.526 14.8313C11.0368 15.2531 11.5973 15.7008 12.2926 15.7336C13.6216 15.9164 15.0406 14.932 15.1801 13.5844C15.2889 13.1203 15.0524 12.4617 15.6483 12.2625C15.9392 13.5211 15.5253 14.9531 14.3949 15.668C13.6264 16.1906 12.5906 16.3453 11.7156 16.0149C11.3679 15.8836 11.0439 15.7031 10.7223 15.525C10.2068 16.2164 9.31048 16.3992 8.724 17.0039C8.15643 16.3758 7.2365 16.2234 6.73987 15.5133C5.56927 16.418 3.78379 16.425 2.70069 15.3797C1.83042 14.6344 1.60575 13.432 1.7642 12.3469L2.24427 12.4242C2.10238 13.4672 2.38379 14.6414 3.30846 15.2578C3.9446 15.7688 4.79359 15.7289 5.56217 15.7805C5.64021 15.6586 5.79393 15.4149 5.8696 15.293C5.17433 14.9016 4.27332 15.2133 3.63244 14.7C2.8946 14.1703 2.71015 13.1813 2.97738 12.3539C1.76183 12.2344 0.569943 11.4867 0.17974 10.3031C0.0165643 10.0641 0.0875103 9.4922 0.394943 9.42188C0.603051 9.81798 0.6267 10.2914 0.867916 10.6758C1.47332 11.6789 2.79765 12.1758 3.90677 11.7422C3.39596 10.6242 3.124 9.35157 3.45981 8.14454ZM6.47028 4.85391C6.50575 5.05079 6.5767 5.44454 6.61217 5.64141C7.02839 5.74688 7.44224 5.86407 7.85136 5.99298C8.14224 5.68126 8.44494 5.3836 8.75474 5.09298C8.66724 4.83751 8.59866 4.57735 8.549 4.31251C7.83954 4.42501 7.13954 4.59376 6.47028 4.85391ZM9.17096 4.33595C9.10001 4.60548 9.0267 4.87501 8.94629 5.14454C9.20879 5.40235 9.46656 5.66251 9.7196 5.92735C10.1074 5.82188 10.4976 5.72345 10.8902 5.63204C10.8878 5.45626 10.8855 5.1047 10.8831 4.92891C11.5003 5.07657 11.4034 5.47501 10.9966 5.7961C11.0912 6.14532 11.1835 6.49688 11.271 6.84844C11.6446 6.93751 12.0183 7.03126 12.3919 7.12735C12.5291 6.99376 12.8058 6.72423 12.9453 6.59063C12.0774 5.34845 10.6703 4.54923 9.17096 4.33595ZM4.51217 6.58126C4.70609 6.76876 4.89765 6.95626 5.0892 7.1461C5.44866 7.04298 5.81048 6.94219 6.17231 6.84844C6.26454 6.48048 6.3615 6.11485 6.46082 5.74923C6.32366 5.60626 6.04933 5.31798 5.91217 5.17266C5.40373 5.59923 4.93548 6.07032 4.51217 6.58126ZM8.20609 6.88594C8.44731 6.76173 8.68852 6.63751 8.92974 6.51095L9.14494 7.00548C9.25609 6.72188 9.36251 6.43829 9.46893 6.1547C9.24427 5.88516 9.01724 5.62266 8.78548 5.36016C8.38582 5.78673 8.08075 6.27891 8.20609 6.88594ZM6.60508 5.93438C6.48683 6.5297 6.59562 7.0922 7.04494 7.5211C7.09697 6.98204 7.43278 6.84845 7.89629 6.97735C7.83481 6.27891 7.21285 6.03985 6.60508 5.93438ZM9.58008 7.09454C9.73143 7.0336 10.0341 6.91173 10.1855 6.85079C10.2162 7.01251 10.2801 7.33595 10.3108 7.49766C10.4622 7.36641 10.7649 7.10157 10.9139 6.96798C10.8666 6.60704 10.8122 6.24376 10.7483 5.88516C10.1098 6.03282 9.62028 6.40548 9.58008 7.09454ZM8.13751 7.0922C7.79224 7.32423 7.43515 7.53751 7.07332 7.74141C6.88413 8.08595 6.68785 8.42579 6.47738 8.7586C6.47738 9.15938 6.46082 9.56016 6.43008 9.96095C6.66183 10.3008 6.87704 10.6524 7.07805 11.0086C7.42805 11.1984 7.77332 11.3953 8.11386 11.6016C8.51589 11.6039 8.92028 11.6227 9.32467 11.6578C9.65812 11.4258 10.001 11.2078 10.3534 11.0039C10.597 10.5891 10.8595 10.1859 11.1291 9.78985C11.4176 9.90001 11.7037 10.0055 11.9922 10.1109C12.2547 9.8836 12.5125 9.65391 12.7703 9.42188C12.3541 9.01407 11.848 8.75157 11.2473 8.84532C11.375 9.08438 11.5027 9.32344 11.6304 9.56251C11.4436 9.63048 11.0699 9.76876 10.8831 9.83907C10.9375 9.4922 10.9966 9.14766 11.0605 8.80079C10.798 8.45391 10.5591 8.09063 10.3368 7.71563C10.0034 7.53516 9.67231 7.34298 9.35069 7.13907C8.94629 7.14376 8.5419 7.12501 8.13751 7.0922ZM3.73413 8.8711C3.96352 8.98594 4.19292 9.09845 4.42231 9.21329C4.69427 8.93204 4.97096 8.65313 5.25474 8.3836C5.14832 8.01329 5.049 7.64298 4.9544 7.27266C4.76758 7.23985 4.39156 7.17657 4.20237 7.1461C4.00373 7.7086 3.83346 8.28282 3.73413 8.8711ZM5.20035 7.37813C5.36589 8.01798 5.75609 8.4961 6.45846 8.53126C6.36623 8.3297 6.27636 8.13048 6.18413 7.92891C6.35677 7.88673 6.70677 7.80235 6.8794 7.75782C6.43954 7.22344 5.8294 7.14141 5.20035 7.37813ZM10.5449 7.76251C10.7247 7.8047 11.0841 7.88438 11.2639 7.92423C11.1953 8.07423 11.0558 8.37188 10.9872 8.52188C11.7723 8.58751 12.101 7.95001 12.2003 7.28907C11.5808 7.1672 10.9588 7.23985 10.5449 7.76251ZM12.4912 7.2961C12.3848 7.70391 12.2642 8.10938 12.1341 8.51016C12.4534 8.79376 12.7585 9.09376 13.0541 9.40079C13.2858 9.30704 13.5176 9.21329 13.7517 9.12423C13.6831 8.42813 13.5034 7.75313 13.2409 7.10626C13.0541 7.15548 12.6781 7.24923 12.4912 7.2961ZM5.50305 8.63673C5.22873 8.85235 4.95913 9.07032 4.68954 9.29063C5.10102 9.70782 5.59765 10.0289 6.21724 9.89063C6.09427 9.65626 5.97129 9.42188 5.84832 9.18751L6.31656 8.96016C6.04697 8.85001 5.77501 8.74219 5.50305 8.63673ZM3.7294 9.62579C3.8169 10.2961 4.00609 10.9477 4.25913 11.5734C4.43177 11.5524 4.77704 11.5102 4.94967 11.4891C5.06082 11.0672 5.18379 10.65 5.31859 10.2375C4.99933 9.94923 4.6919 9.64923 4.39393 9.3422C4.174 9.43595 3.9517 9.53204 3.7294 9.62579ZM12.2027 10.3688C12.3068 10.7367 12.4037 11.1047 12.496 11.475C12.6781 11.5008 13.0399 11.55 13.222 11.5758C13.4253 11.0063 13.6051 10.4274 13.7399 9.83907C13.5034 9.74298 13.2669 9.64454 13.0304 9.5461C12.7585 9.82266 12.4818 10.0992 12.2027 10.3688ZM5.26893 11.4774C5.87906 11.5875 6.48683 11.4938 6.8865 10.9852C6.70913 10.9406 6.3544 10.8492 6.17467 10.8047C6.24562 10.6594 6.38278 10.3734 6.45136 10.2281C5.68042 10.1766 5.33515 10.8094 5.26893 11.4774ZM11.0156 10.2094C11.0818 10.3594 11.2142 10.6594 11.2828 10.8094C11.096 10.8492 10.7247 10.9289 10.5378 10.9688C10.9541 11.4914 11.576 11.5711 12.2003 11.4609C12.1318 10.7836 11.7558 10.2328 11.0156 10.2094ZM6.62636 12.8109C7.32636 12.7477 7.85136 12.3563 7.90102 11.625C7.68819 11.7094 7.47535 11.7961 7.26487 11.8828C7.22467 11.7094 7.14427 11.3649 7.10643 11.1914C6.61217 11.6109 6.47501 12.1945 6.62636 12.8109ZM10.3699 11.1844C10.325 11.3602 10.2351 11.7141 10.1902 11.8899C10.0412 11.8219 9.74325 11.6883 9.59427 11.6203C9.52569 12.368 10.1429 12.668 10.7554 12.8625C10.9753 12.2461 10.9091 11.6156 10.3699 11.1844ZM4.58785 12.1313C5.01352 12.5906 5.46048 13.0313 5.93346 13.4438C6.11792 13.2938 6.30238 13.1461 6.4892 12.9984C6.37805 12.6375 6.274 12.2766 6.17231 11.9109C5.80812 11.8125 5.44629 11.7094 5.08447 11.6016C4.91893 11.7797 4.75339 11.9555 4.58785 12.1313ZM11.2875 11.9039C11.1858 12.2742 11.0794 12.6422 10.9659 13.0078C11.1622 13.1508 11.3561 13.2961 11.55 13.4414C12.0112 13.0313 12.451 12.5977 12.872 12.1477C12.7088 11.9625 12.548 11.7774 12.3872 11.5922C12.023 11.7 11.6564 11.8055 11.2875 11.9039ZM7.98852 12.6047C8.20609 12.8625 8.42839 13.118 8.65069 13.3711C9.06927 12.968 9.37433 12.4852 9.26318 11.8828C9.0267 11.9977 8.79021 12.1149 8.55373 12.232L8.31724 11.7399C8.20136 12.0281 8.09494 12.3164 7.98852 12.6047ZM6.59089 13.1016C6.57906 13.2774 6.55542 13.6289 6.54596 13.8047C7.1017 13.9781 7.66454 14.1305 8.2321 14.2688C8.34798 14.0649 8.46623 13.8609 8.58447 13.657C8.29359 13.3852 8.00744 13.1063 7.72839 12.8203C7.35001 12.9211 6.97163 13.0149 6.59089 13.1016ZM8.70271 13.6617C8.79494 13.875 8.88481 14.0883 8.97704 14.3016C9.6392 14.175 10.2943 14.0063 10.9351 13.8C10.9186 13.6289 10.8878 13.2891 10.8713 13.1203C10.4456 13.0055 10.0223 12.8836 9.60373 12.7453C9.31285 13.0617 9.01487 13.3664 8.70271 13.6617Z" fill="#CBAB97"/>
<path opacity="0.84" d="M2.80711 5.42813C3.00103 5.49376 3.39123 5.62266 3.58752 5.68829L3.22806 5.64844C3.35103 5.89923 3.59934 6.40313 3.72231 6.65391C2.09529 6.33751 0.35711 7.64766 0.465894 9.34219C0.312178 9.17344 0.158461 9.00704 0.00238037 8.84063C0.245961 7.38048 1.53954 6.26251 3.02704 6.20626C2.97265 6.01172 2.8615 5.62266 2.80711 5.42813Z" fill="#CBAB97"/>
<path opacity="0.84" d="M2.28448 6.90001C2.71015 7.08048 3.08617 7.35001 3.46691 7.60548C2.62975 7.6547 1.67907 8.02267 1.50644 8.93907C1.20373 10.0734 2.30813 10.9969 3.3936 10.95C3.1311 11.1727 2.87569 11.4 2.61792 11.6297C2.10238 10.868 1.01691 10.4274 1.06657 9.37267C0.974342 8.4586 1.67907 7.78126 2.41218 7.36876C2.37907 7.25157 2.31522 7.0172 2.28448 6.90001Z" fill="#CBAB97"/>
<path opacity="0.84" d="M5.86963 16.2281C5.99497 16.2094 6.24564 16.1719 6.37098 16.1508C7.14193 16.7039 8.03348 17.0813 8.74294 17.7188C9.65578 17.0414 10.6183 16.343 11.7156 16.0148C11.051 17.1984 9.54936 17.318 8.74767 18.3609C7.99091 17.3695 6.63112 17.2148 5.86963 16.2281Z" fill="#CBAB97"/>
<path opacity="0.84" d="M6.11553 17.2688C6.76114 17.693 7.41148 18.1125 8.05709 18.5344C8.05709 21.3773 8.06182 24.218 8.05236 27.0609C8.51824 27.1969 8.99831 27.1852 9.45709 27.0352C9.46182 24.218 9.45709 21.4031 9.45945 18.5883C10.1878 18.0891 10.9068 17.5734 11.6706 17.1281C12.4108 17.5266 13.1061 18.1453 13.2693 19.0031C12.9689 19.7648 12.1578 20.175 11.8125 20.8922C12.2287 21.4969 13.3307 21.8039 13.2243 22.6383C12.8459 23.1328 12.3304 23.4961 11.8622 23.9016C12.3659 24.4125 12.879 24.9164 13.3236 25.4789C12.4936 26.8547 11.5027 28.132 10.3983 29.3039C9.99628 29.7047 9.37195 30.225 8.7902 29.8523C7.81351 29.2969 7.02837 28.4742 6.13682 27.7992C6.12263 24.2883 6.10371 20.7797 6.11553 17.2688ZM9.93479 18.8742C9.93479 21.6703 9.92297 24.4688 9.94189 27.2648C9.23006 27.7992 8.28175 27.7734 7.5581 27.2766C7.57702 24.4477 7.56283 21.6211 7.56756 18.7945C7.25303 18.6023 6.93851 18.4125 6.62162 18.225C6.62398 21.3281 6.61925 24.4313 6.62398 27.532C7.45878 28.2398 8.25574 29.0109 9.22533 29.5383C10.8311 28.6453 11.7415 26.9531 12.7797 25.5117C12.25 24.9938 11.7132 24.4805 11.252 23.8992C11.7179 23.3484 12.2642 22.8773 12.8152 22.4133C12.3162 21.8531 11.2449 21.5156 11.3253 20.6438C11.7084 19.9875 12.3257 19.5117 12.827 18.9469C12.548 18.4898 12.2382 18.0281 11.7676 17.7469C11.0652 17.9484 10.5307 18.4805 9.93479 18.8742Z" fill="#CBAB97"/>
</svg>
