<svg width="14" height="15" viewBox="0 0 14 15" fill="none" xmlns="http://www.w3.org/2000/svg">
<path d="M13.0745 7.08708C11.7639 4.64639 9.46561 3.16943 6.92228 3.16943C4.37895 3.16943 2.07672 4.64639 0.777834 7.08708L0.668945 7.27121L0.770056 7.45925C2.08061 9.89995 4.37895 11.3769 6.92228 11.3769C9.46561 11.3769 11.7678 9.91953 13.0745 7.45925L13.1756 7.27121L13.0745 7.08708ZM6.92228 10.5738C4.73283 10.5738 2.72228 9.34364 1.55561 7.27121C2.72228 5.19877 4.73283 3.96863 6.92228 3.96863C9.11172 3.96863 11.0989 5.20269 12.2851 7.27121C11.0989 9.34364 9.10783 10.5738 6.92228 10.5738V10.5738Z" fill="#2962FF"/>
<path d="M7.03503 4.59529C6.50774 4.59916 5.99342 4.76037 5.55703 5.05854C5.12063 5.35671 4.78174 5.77848 4.58315 6.27057C4.38456 6.76265 4.33518 7.30299 4.44125 7.82333C4.54732 8.34367 4.80409 8.82068 5.17911 9.1941C5.55413 9.56752 6.03059 9.82061 6.54832 9.9214C7.06604 10.0222 7.6018 9.96616 8.08793 9.76039C8.57406 9.55461 8.98876 9.20832 9.27964 8.76526C9.57052 8.3222 9.72454 7.80223 9.72225 7.27104C9.72072 6.91744 9.64995 6.56763 9.51398 6.24164C9.37801 5.91566 9.17952 5.6199 8.92989 5.37133C8.68025 5.12276 8.38438 4.92626 8.05922 4.7931C7.73406 4.65993 7.38602 4.59271 7.03503 4.59529V4.59529ZM7.03503 9.18676C6.66257 9.1829 6.29955 9.06825 5.99157 8.85722C5.68358 8.64619 5.44436 8.34818 5.30394 8.00064C5.16353 7.65309 5.12819 7.27149 5.20236 6.90378C5.27652 6.53606 5.45689 6.19862 5.72081 5.93383C5.98472 5.66905 6.32042 5.48872 6.68574 5.41551C7.05106 5.3423 7.4297 5.37946 7.77413 5.52233C8.11855 5.6652 8.41338 5.9074 8.62161 6.21852C8.82983 6.52965 8.94215 6.89581 8.94447 7.27104C8.94551 7.52357 8.89677 7.77379 8.80108 8.0072C8.7054 8.24062 8.56466 8.45257 8.38705 8.63077C8.20943 8.80897 7.99846 8.94988 7.76637 9.04532C7.53429 9.14076 7.2857 9.18884 7.03503 9.18676V9.18676Z" fill="#2962FF"/>
</svg>
