<svg width="26" height="18" viewBox="0 0 26 18" fill="none" xmlns="http://www.w3.org/2000/svg">
<g clip-path="url(#clip0)">
<path d="M25.0344 2.8075C24.8875 2.26486 24.6011 1.77014 24.2036 1.37263C23.8061 0.975112 23.3114 0.688661 22.7688 0.5418C20.7822 0 12.7868 0 12.7868 0C12.7868 0 4.79098 0.0164 2.80438 0.5582C2.26173 0.70507 1.76702 0.991536 1.36952 1.38907C0.972019 1.78661 0.685597 2.28134 0.538775 2.824C-0.0621249 6.3538 -0.295225 11.7324 0.555275 15.121C0.702112 15.6636 0.988541 16.1584 1.38604 16.5559C1.78354 16.9534 2.27824 17.2398 2.82088 17.3867C4.80748 17.9285 12.8031 17.9285 12.8031 17.9285C12.8031 17.9285 20.7986 17.9285 22.7851 17.3867C23.3277 17.2399 23.8225 16.9534 24.22 16.5559C24.6175 16.1584 24.9039 15.6637 25.0508 15.121C25.6846 11.5862 25.8799 6.211 25.0344 2.8076V2.8075Z" fill="#325ECD"/>
<path d="M10.2419 12.806L16.8748 8.96418L10.242 5.12238L10.2419 12.806Z" fill="white"/>
</g>
<defs>
<clipPath id="clip0">
<rect width="25.6" height="18" fill="white"/>
</clipPath>
</defs>
</svg>
