<svg width="63" height="57" viewBox="0 0 63 57" fill="none" xmlns="http://www.w3.org/2000/svg">
    <path
        d="M25.1979 6.75999C25.3591 6.77238 25.5163 6.81642 25.6605 6.88957C25.8046 6.96271 25.933 7.06356 26.0382 7.18632C26.1434 7.30908 26.2234 7.45137 26.2736 7.60505C26.3239 7.75873 26.3433 7.92081 26.3309 8.08201C26.3185 8.24321 26.2745 8.40038 26.2013 8.54456C26.1282 8.68875 26.0273 8.81713 25.9046 8.92234C25.7818 9.02755 25.6395 9.10754 25.4859 9.15775C25.3322 9.20797 25.1701 9.22743 25.0089 9.21501C24.8477 9.20261 24.6905 9.15858 24.5463 9.08543C24.4021 9.01228 24.2738 8.91144 24.1686 8.78867C24.0633 8.66591 23.9833 8.52363 23.9331 8.36994C23.8829 8.21626 23.8635 8.05422 23.8759 7.89301C23.8883 7.73181 23.9323 7.57462 24.0055 7.43043C24.0786 7.28624 24.1794 7.15786 24.3022 7.05265C24.425 6.94744 24.5672 6.86745 24.7209 6.81724C24.8746 6.76702 25.0367 6.74756 25.1979 6.75999Z"
        fill="white" />
    <path
        d="M37.4309 6.75999C37.5921 6.77238 37.7493 6.81642 37.8934 6.88957C38.0376 6.96271 38.166 7.06356 38.2712 7.18632C38.3764 7.30908 38.4564 7.45137 38.5066 7.60505C38.5568 7.75873 38.5763 7.92081 38.5639 8.08201C38.5515 8.24321 38.5075 8.40038 38.4343 8.54456C38.3612 8.68875 38.2603 8.81713 38.1376 8.92234C38.0148 9.02755 37.8725 9.10754 37.7188 9.15775C37.5651 9.20797 37.4031 9.22743 37.2419 9.21501C37.0807 9.20261 36.9235 9.15858 36.7793 9.08543C36.6351 9.01228 36.5067 8.91144 36.4015 8.78867C36.2963 8.66591 36.2163 8.52363 36.1661 8.36994C36.1159 8.21626 36.0964 8.05422 36.1089 7.89301C36.1213 7.73181 36.1653 7.57462 36.2384 7.43043C36.3116 7.28624 36.4124 7.15786 36.5352 7.05265C36.6579 6.94744 36.8002 6.86745 36.9539 6.81724C37.1076 6.76702 37.2697 6.74756 37.4309 6.75999Z"
        fill="white" />
    <path
        d="M42.1789 7.07096C42.2993 7.08019 42.4167 7.11304 42.5243 7.16764C42.632 7.22224 42.7278 7.29754 42.8064 7.3892C42.885 7.48086 42.9447 7.5871 42.9822 7.70185C43.0197 7.8166 43.0342 7.9376 43.0249 8.05796C43.006 8.30095 42.8915 8.52651 42.7064 8.68513C42.5214 8.84374 42.2809 8.92245 42.0379 8.90397C41.9176 8.89474 41.8002 8.86186 41.6925 8.80726C41.5849 8.75265 41.489 8.67739 41.4105 8.58573C41.3319 8.49407 41.2722 8.38783 41.2347 8.27308C41.1972 8.15833 41.1826 8.03733 41.1919 7.91697C41.2012 7.7966 41.234 7.67924 41.2886 7.57157C41.3432 7.46391 41.4185 7.36806 41.5102 7.2895C41.6018 7.21093 41.7081 7.15118 41.8228 7.11369C41.9376 7.07619 42.0586 7.06167 42.1789 7.07096Z"
        fill="white" />
    <path
        d="M20.5299 7.07096C20.6503 7.08019 20.7676 7.11304 20.8753 7.16764C20.9829 7.22224 21.0788 7.29754 21.1574 7.3892C21.2359 7.48086 21.2957 7.5871 21.3332 7.70185C21.3706 7.8166 21.3852 7.9376 21.3759 8.05796C21.3667 8.17833 21.3338 8.29569 21.2792 8.40336C21.2246 8.51102 21.1493 8.60687 21.0576 8.68543C20.966 8.764 20.8598 8.82375 20.745 8.86124C20.6303 8.89874 20.5092 8.91325 20.3889 8.90397C20.2685 8.89474 20.1511 8.86186 20.0435 8.80726C19.9358 8.75265 19.84 8.67739 19.7614 8.58573C19.6828 8.49407 19.6231 8.38783 19.5856 8.27308C19.5481 8.15833 19.5336 8.03733 19.5429 7.91697C19.5521 7.7966 19.585 7.67924 19.6396 7.57157C19.6942 7.46391 19.7695 7.36806 19.8611 7.2895C19.9528 7.21093 20.059 7.15118 20.1738 7.11369C20.2885 7.07619 20.4095 7.06167 20.5299 7.07096Z"
        fill="white" />
    <path
        d="M30.5729 6.61606L31.2059 5.71606L31.7899 6.64807L32.8729 6.45908L32.6269 7.53107L33.5269 8.16406L32.5949 8.74808L32.7839 9.83105L31.7119 9.58505L31.0789 10.4851L30.4949 9.55307L29.4119 9.74207L29.6579 8.67007L28.7579 8.03708L29.6899 7.45306L29.5009 6.37006L30.5729 6.61606Z"
        fill="white" />
    <path
        d="M57.9549 23.323C59.1059 22.617 60.0982 21.6803 60.8694 20.572C61.6406 19.4636 62.174 18.2076 62.4359 16.883C62.6336 15.1251 62.5431 13.3467 62.1679 11.618C62.1679 11.618 59.5969 16.073 51.7779 20.056C49.4096 21.1972 46.9258 22.0809 44.3689 22.692C44.2839 22.439 44.1969 22.192 44.1069 21.962C45.3379 21.538 47.0879 20.915 48.7789 20.24C50.4979 19.553 56.4509 16.259 58.3539 12.774C59.7366 10.3586 60.1607 7.51156 59.5419 4.798C59.1585 3.31311 58.3191 1.98582 57.1419 1.00299C57.1419 1.00299 56.7909 4.46102 48.9519 12.403C45.8565 15.3294 42.4307 17.8853 38.7439 20.019C40.1495 21.7386 40.916 23.892 40.9129 26.113C40.9127 27.9785 40.3716 29.8038 39.3551 31.368C38.3387 32.9322 36.8904 34.1681 35.1859 34.926C34.9559 34.826 34.7149 34.726 34.4859 34.615C33.7884 34.2748 33.2122 33.7288 32.8348 33.0507C32.4575 32.3726 32.2973 31.595 32.3759 30.823C32.7759 28.573 34.0929 27.671 36.7289 28.108C36.7289 28.108 36.7289 26.308 32.6879 23.77C31.2349 22.856 29.2209 21.477 28.9739 20.624C28.4721 21.2169 28.2017 21.9713 28.2129 22.748C28.196 23.163 28.2822 23.5756 28.4639 23.9491C28.6456 24.3226 28.917 24.6451 29.2539 24.888C29.7762 25.1186 30.3193 25.2988 30.8759 25.426C29.2288 26.2204 27.8982 27.5477 27.0996 29.1928C26.301 30.8379 26.0812 32.7044 26.4759 34.49C24.9977 33.6472 23.769 32.428 22.9145 30.9565C22.06 29.485 21.6102 27.8136 21.6109 26.112C21.6072 23.8886 22.3748 21.7327 23.7829 20.012C20.099 17.879 16.676 15.3245 13.5829 12.4C5.74389 4.45899 5.39289 1 5.39289 1C4.21554 1.98274 3.37614 3.31007 2.99289 4.79501C2.37118 7.5104 2.79422 10.3603 4.17789 12.778C6.07789 16.263 12.0329 19.557 13.7519 20.244C15.4429 20.919 17.1929 21.544 18.4239 21.966C18.3339 22.199 18.2469 22.443 18.1619 22.696C15.605 22.0849 13.1212 21.2012 10.7529 20.06C2.94089 16.073 0.369895 11.618 0.369895 11.618C-0.00534752 13.3467 -0.0958713 15.1251 0.101895 16.883C0.363835 18.2076 0.897197 19.4636 1.66839 20.572C2.43959 21.6803 3.43192 22.617 4.58289 23.323C7.19989 25.144 12.8169 26.899 15.5289 27.267C16.2289 27.361 16.7989 27.427 17.2699 27.474C17.2559 27.732 17.2489 27.997 17.2449 28.266C15.2487 28.0834 13.2705 27.7392 11.3299 27.237C3.21189 25.094 0.106895 21.207 0.106895 21.207C0.0660012 22.89 0.300078 24.5684 0.799895 26.176C1.73589 28.721 3.61289 30.146 6.02289 31.218C8.79589 32.451 14.5019 32.886 17.1019 32.743C17.3019 32.732 17.5169 32.723 17.6929 32.715C17.7459 32.957 17.7699 33.215 17.8329 33.445C16.9329 33.467 15.8529 33.576 14.9329 33.559C12.2796 33.4621 9.63625 33.1811 7.02189 32.718C5.03562 32.272 3.17292 31.3912 1.56789 30.139C2.01066 31.7773 2.61704 33.367 3.37789 34.884C4.14041 36.1824 5.28424 37.2145 6.65389 37.84C8.54448 38.491 10.5636 38.6789 12.5419 38.388C14.1709 38.26 18.0549 37.672 19.5309 37.444C19.6799 37.693 19.8309 37.934 19.9799 38.163C17.874 38.7527 15.729 39.1921 13.5609 39.478C11.2555 39.7881 8.91878 39.7861 6.61389 39.472C7.38136 40.4725 8.22307 41.4139 9.1319 42.288C10.4529 43.442 11.4939 43.862 14.0629 43.765C17.1019 43.651 20.7829 41.706 22.3039 40.992C22.4929 41.173 22.7039 41.372 22.9339 41.583C21.492 42.4651 19.9923 43.2489 18.4449 43.929C16.5119 44.6532 14.5015 45.1509 12.4539 45.412C13.0826 46.1569 13.855 46.7674 14.7249 47.2073C15.5947 47.6471 16.5443 47.9072 17.5169 47.972C19.6488 48.0049 21.7263 47.2981 23.3959 45.972C24.1696 45.3552 24.8895 44.6737 25.5479 43.935L26.1679 44.483C25.2968 45.8423 24.145 46.9995 22.7899 47.877C19.8769 49.643 18.5359 49.577 18.5359 49.577C18.5359 49.577 21.4199 51.838 23.8159 51.325C26.0659 50.842 27.9459 48.113 28.7489 46.772C28.9739 46.972 29.1859 47.165 29.3839 47.345C29.1819 47.8267 28.9481 48.2944 28.6839 48.745C27.745 50.5138 26.3977 52.0332 24.7539 53.177C24.7539 53.177 25.6479 54.305 29.0799 55.693C29.7815 55.9774 30.5015 56.2143 31.2349 56.402V56.421L31.2699 56.412L31.3049 56.421V56.402C32.0383 56.2143 32.7583 55.9774 33.4599 55.693C36.8919 54.305 37.7859 53.177 37.7859 53.177C36.1421 52.0332 34.7948 50.5138 33.8559 48.745C33.5916 48.2944 33.3578 47.8267 33.1559 47.345C33.3559 47.165 33.5659 46.973 33.7909 46.772C34.5909 48.113 36.4749 50.843 38.7239 51.325C41.1239 51.839 44.0039 49.577 44.0039 49.577C44.0039 49.577 42.6619 49.643 39.7499 47.877C38.3948 46.9995 37.243 45.8422 36.3719 44.483L36.9919 43.935C37.6504 44.6735 38.3703 45.355 39.1439 45.972C40.8135 47.298 42.891 48.0048 45.0229 47.972C45.9955 47.9071 46.945 47.647 47.8149 47.2072C48.6848 46.7674 49.4571 46.1568 50.0859 45.412C48.0383 45.1509 46.0279 44.6532 44.0949 43.929C42.5475 43.2488 41.0478 42.465 39.6059 41.583C39.8349 41.372 40.0469 41.173 40.2359 40.992C41.7569 41.706 45.4359 43.651 48.4769 43.765C51.0469 43.865 52.0869 43.442 53.4079 42.288C54.3167 41.4139 55.1585 40.4726 55.9259 39.472C53.6206 39.7855 51.2836 39.7869 48.9779 39.476C46.8098 39.1901 44.6647 38.7507 42.5589 38.161C42.7109 37.932 42.8589 37.691 43.0079 37.442C44.4849 37.67 48.3679 38.258 49.9969 38.386C51.9751 38.6769 53.9943 38.489 55.8849 37.838C57.2546 37.2125 58.3984 36.1804 59.1609 34.882C59.9225 33.3648 60.5295 31.7748 60.9729 30.136C59.3679 31.3882 57.5052 32.269 55.5189 32.715C52.9045 33.1781 50.2612 33.4591 47.6079 33.556C46.6879 33.572 45.6079 33.464 44.7079 33.442C44.7709 33.21 44.7949 32.954 44.8479 32.712C45.0239 32.721 45.2419 32.73 45.4389 32.74C48.0389 32.883 53.7449 32.448 56.5179 31.215C58.9279 30.144 60.8049 28.715 61.7409 26.173C62.2407 24.5654 62.4748 22.887 62.4339 21.204C62.4339 21.204 59.3339 25.091 51.2129 27.233C49.2723 27.7352 47.2941 28.0794 45.2979 28.262C45.2979 27.993 45.2869 27.728 45.2729 27.47C45.7429 27.423 46.3169 27.358 47.0139 27.263C49.7259 26.896 55.3419 25.141 57.9589 23.319"
        fill="white" />
    <line x1="9.5" y1="0.5" x2="52.5" y2="0.5" stroke="white" stroke-linecap="round"
        stroke-linejoin="round" />
</svg>
