<svg width="18" height="18" viewBox="0 0 18 18" fill="none" xmlns="http://www.w3.org/2000/svg">
<g clip-path="url(#clip0)">
<path d="M17.0066 18.0001C17.5551 18.0001 18 17.5553 18 17.0066V0.993445C18 0.444727 17.5551 0 17.0066 0H0.993445C0.444656 0 0 0.444727 0 0.993445V17.0066C0 17.5553 0.444656 18.0001 0.993445 18.0001H17.0066Z" fill="#325ECD"/>
<path d="M12.4197 18.0001V11.0295H14.7595L15.1098 8.31297H12.4197V6.5785C12.4197 5.79199 12.6382 5.256 13.766 5.256L15.2046 5.25536V2.82571C14.9557 2.7926 14.1018 2.71863 13.1084 2.71863C11.0343 2.71863 9.61444 3.9846 9.61444 6.30956V8.31297H7.26868V11.0295H9.61444V18.0001H12.4197Z" fill="white"/>
</g>
<defs>
<clipPath id="clip0">
<rect width="18" height="18" fill="white"/>
</clipPath>
</defs>
</svg>
