<svg width="88" height="60" viewBox="0 0 88 60" fill="none" xmlns="http://www.w3.org/2000/svg">
<path d="M70.7364 34.0484L46.8573 56.2596L34.5638 44.6163C32.2623 46.8696 28.7079 50.3475 25.1322 53.8375C22.6886 56.2227 20.7103 58.1498 19.1067 59.7095L7.93958 59.6965C11.0367 56.7648 23.5068 44.5814 31.9078 36.3475L34.4766 33.8301L46.904 45.6001L65.1484 28.6299L70.7364 34.0484Z" fill="#D5E5FB"/>
<path d="M62.1905 25.9573L73.4443 37.7993L75.695 24.2838L62.1905 25.9573Z" fill="#D5E5FB"/>
<path d="M35.6501 45.0828L41.2395 43.7878C41.9669 43.6192 42.4242 42.8861 42.2557 42.1587L41.6944 39.7364C41.5259 39.009 40.7928 38.5517 40.0654 38.7203L34.4759 40.0153C33.7485 40.1838 33.2912 40.917 33.4598 41.6444L34.0209 44.0666C34.1895 44.794 34.9226 45.2513 35.6501 45.0828Z" fill="#F99746"/>
<path d="M41.5249 42.3558L40.9573 39.9056C40.9018 39.6666 40.7859 39.4572 40.6294 39.2889L40.6293 39.2886C40.3363 38.9737 39.9011 38.8038 39.455 38.8617L39.4547 38.8618C39.4544 38.8619 39.4541 38.8621 39.4536 38.8619C39.41 38.8676 39.3662 38.8752 39.3222 38.8854L38.2093 39.1436L38.0881 38.6209C38.0612 38.5043 37.9901 38.4048 37.888 38.341C37.7859 38.2776 37.6651 38.2573 37.5486 38.2844L37.2582 38.3516L36.0896 38.6223L35.879 38.6712C35.6377 38.7272 35.4863 38.9691 35.5425 39.2107L35.6637 39.7334L33.7425 40.1783C33.0124 40.3475 32.5535 41.0833 32.7224 41.8135L33.2904 44.2639C33.4596 44.994 34.1952 45.4529 34.9254 45.2837L40.5048 43.9912C40.6033 43.9686 40.6966 43.9353 40.784 43.8932L40.7844 43.8931C40.7847 43.893 40.7847 43.893 40.785 43.8929C40.9255 43.8259 41.0506 43.7359 41.1574 43.6289C41.4797 43.3069 41.6346 42.8302 41.5249 42.3558ZM35.9381 39.6695L35.817 39.147C35.8002 39.0739 35.8342 39.0005 35.896 38.9644C35.9103 38.9561 35.9257 38.9497 35.9428 38.9456L36.1909 38.888L37.1108 38.6751L37.6122 38.5589C37.7023 38.538 37.7927 38.5945 37.8135 38.6844L37.9347 39.2071L35.9381 39.6695Z" fill="#ED7D2B"/>
<path d="M36.9639 36.1363C36.9639 36.1363 36.7951 36.735 36.853 36.9257C37.2456 38.2183 37.9247 39.0643 36.0995 38.8459C36.0995 38.8459 36.175 38.7712 35.8257 38.1135C35.4227 37.3548 35.4294 37.3437 35.7907 36.7261L35.9153 36.0209L36.9639 36.1363Z" fill="#FFB27D"/>
<path d="M31.5812 20.5195L31.5796 20.819C31.5796 20.819 31.6612 21.7557 30.5077 21.8925C29.3542 22.0297 28.4082 22.0116 28.4395 21.2888C28.5434 20.7291 28.7295 19.8603 28.7372 19.3972C28.74 19.2251 28.7283 19.0424 28.6962 18.8363L30.9314 18.7916L31.5897 18.8992L31.5812 20.5195Z" fill="#FFB27D"/>
<path d="M31.5898 18.8992L31.5812 20.5195C31.3438 20.6298 31.0759 20.6972 30.7755 20.6972C29.7483 20.6972 29.0843 19.9439 28.7373 19.3972C28.7401 19.2251 28.7283 19.0424 28.6962 18.8363L30.9314 18.7916L31.5898 18.8992Z" fill="#E2915A"/>
<path d="M27.0514 59.7993H29.6033C29.5843 59.6655 29.5192 59.2583 29.3998 58.8833C29.3584 58.7527 29.3101 58.6258 29.2552 58.5157C29.0071 58.0202 27.4306 58.3353 27.4306 58.3353C27.4306 58.3353 27.2842 58.4608 27.1699 58.94C27.1192 59.151 27.0746 59.4312 27.0514 59.7993Z" fill="#233862"/>
<path d="M34.7631 58.9939C34.77 59.3411 34.8137 59.6697 34.9397 59.7993H39.9874C39.9232 59.6167 39.7415 59.342 39.2233 59.2579C38.6344 59.1626 37.7166 58.8791 37.1807 58.3126C36.9897 58.1113 36.8475 57.8739 36.7852 57.5964C36.5477 56.5391 34.8216 57.9203 34.8216 57.9203C34.8216 57.9203 34.7519 58.4771 34.7631 58.9939Z" fill="#233862"/>
<path d="M31.4057 47.5646C31.476 47.9517 31.5205 48.2693 31.5324 48.497C31.6929 51.627 34.1671 58.7837 34.6097 58.9506C35.2945 59.209 36.3728 58.6597 36.937 58.48C37.1708 58.4053 37.3286 58.1695 37.2765 57.9303C36.0512 52.2973 35.6009 44.1859 35.437 39.3836C35.3543 36.9647 34.9391 35.2938 34.9391 35.2938C34.9391 35.2938 28.9043 33.6836 28.8685 35.7205C28.8368 37.5228 30.8675 44.5913 31.4057 47.5646Z" fill="#2B478B"/>
<path d="M31.4057 47.5646L35.437 39.3836C35.3543 36.9647 34.9391 35.2938 34.9391 35.2938C34.9391 35.2938 28.9043 33.6836 28.8685 35.7205C28.8368 37.5228 30.8675 44.5912 31.4057 47.5646Z" fill="#233862"/>
<path d="M32.7484 35.7276L29.5581 58.8492C29.5581 58.8492 28.1572 59.1871 27.0675 58.9168C27.0675 58.9168 26.1336 46.6197 26.2114 43.6467C26.2892 40.6738 25.5411 35.6916 26.3821 35.1422C27.2232 34.5927 32.7484 35.7276 32.7484 35.7276Z" fill="#2B478B"/>
<path d="M28.1675 21.6904L28.902 37.4501C28.902 37.4501 35.0323 37.5503 34.8572 36.163C34.6822 34.7758 32.6476 22.1731 32.6476 22.1731" fill="#E9F3FE"/>
<path d="M30.1883 31.6043C30.1883 31.6043 29.8771 35.8135 29.2793 38.4562C29.2793 38.4562 25.702 38.646 24.853 37.2647C24.853 37.2647 25.5251 31.5785 25.5251 30.4252C25.5251 30.0198 25.4938 29.4686 25.4443 28.8526C25.3699 27.9193 25.1818 26.8441 25.1449 25.8968C25.0524 23.5198 25.6904 22.8731 25.6904 22.8731L27.8024 21.1462L30.1883 31.6043Z" fill="#22407A"/>
<path d="M37.2866 36.5427C37.2866 36.5427 36.6191 36.9606 35.5681 36.8203C35.1856 37.7585 34.2832 38.0772 34.2832 37.9924C34.2832 37.9821 34.0807 36.2205 33.8413 34.1445C33.8178 33.9371 33.7938 33.7267 33.7693 33.5148C33.7673 33.4966 33.7648 33.4786 33.7629 33.4604C33.7227 33.1127 33.6825 32.761 33.6418 32.4109C33.3539 29.9107 33.0773 27.514 33.0773 27.514C32.45 23.674 31.9189 21.136 31.9189 21.136C33.2573 21.2753 34.1602 21.752 34.5206 22.3763C35.5887 24.2277 36.3622 28.8583 36.8153 32.3246C36.8163 32.3334 36.8172 32.3422 36.8187 32.351C36.8967 32.9494 36.9654 33.5128 37.0237 34.0205C37.0277 34.0523 37.0311 34.0837 37.0345 34.1146C37.2013 35.5672 37.2866 36.5427 37.2866 36.5427Z" fill="#22407A"/>
<path d="M27.9937 21.0856C27.9863 20.9352 28.6986 20.7274 28.6986 20.7274C28.6986 20.7274 29.514 21.8579 30.8574 21.8774C30.8574 21.8774 30.4746 22.6225 30.0234 22.8154C30.0234 22.8154 28.0381 21.9788 27.9937 21.0856Z" fill="#D9E9F9"/>
<path d="M30.8574 21.851C30.8574 21.851 31.569 21.4291 31.5715 20.9717C31.5715 20.9717 32.0311 20.9142 32.2319 21.1371C32.2319 21.1371 32.4006 21.9209 32.1768 22.3762C32.1768 22.3762 31.152 22.2201 30.8574 21.851Z" fill="#D9E9F9"/>
<path d="M30.3743 21.7831L31.3393 21.5518C31.3393 21.5518 31.4654 21.5628 31.4619 21.72C31.4584 21.8772 31.1901 22.3365 31.0712 22.3732C30.9524 22.4099 30.146 22.1011 30.3743 21.7831Z" fill="#BA4C43"/>
<path d="M28.1068 21.0079C28.0993 20.8575 28.5814 20.5477 28.5814 20.5477C28.5814 20.5477 29.5147 21.6384 30.858 21.6579C30.858 21.6579 30.4752 22.403 30.024 22.5959C30.024 22.5959 28.1512 21.9011 28.1068 21.0079Z" fill="#E9F3FE"/>
<path d="M30.8574 21.6579C30.8574 21.6579 31.5771 21.2764 31.5796 20.819C31.5796 20.819 32.014 21.0102 32.2148 21.233C32.2148 21.233 32.4006 21.7278 32.1768 22.1831C32.1768 22.1831 31.152 22.027 30.8574 21.6579Z" fill="#E9F3FE"/>
<path d="M32.6216 34.8727C32.5843 35.3245 32.4112 35.7471 32.1361 36.0576L31.7038 36.5458C31.5953 36.6684 31.4265 36.6536 31.3376 36.5141L30.8157 35.6955C30.6757 35.4759 30.6117 35.1969 30.6361 34.9164C30.6917 34.2917 30.7957 33.088 30.8808 31.9265C30.95 30.9854 31.007 30.0713 31.016 29.5154C31.0448 27.7407 30.8123 22.0852 30.8123 22.0852L31.1591 22.1034C31.1591 22.1034 31.9998 24.2898 32.4223 27.2731C32.5265 28.0076 32.6048 28.7897 32.6397 29.6002C32.6397 29.6002 32.7894 32.8301 32.6216 34.8727Z" fill="#C65447"/>
<path d="M32.6216 34.8727C32.5843 35.3245 32.4112 35.7471 32.1361 36.0576L31.7038 36.5457C31.5953 36.6684 31.4265 36.6536 31.3376 36.514L30.8157 35.6955C30.6757 35.4759 30.6117 35.1968 30.6361 34.9164C30.6917 34.2917 30.7957 33.088 30.8808 31.9265C31.8525 30.5944 32.2589 28.7644 32.4223 27.2731C32.5265 28.0075 32.6048 28.7897 32.6397 29.6002C32.6397 29.6002 32.7894 32.8301 32.6216 34.8727Z" fill="#BA4C43"/>
<path d="M28.5808 20.5477C28.5808 20.5477 30.4914 28.55 30.1874 31.5644C30.1874 31.5644 29.4848 28.3431 27.7944 25.7045C27.7944 25.7045 28.4113 25.162 28.3778 24.9619C28.3778 24.9619 27.9199 24.8261 27.4756 24.9176C27.4756 24.9176 27.5247 21.4682 27.8017 21.1038C28.0788 20.7394 28.5808 20.5477 28.5808 20.5477Z" fill="#233862"/>
<path d="M31.5796 20.819C31.2931 20.8422 33.473 28.6386 33.6345 31.1377C33.6345 31.1377 33.443 26.6781 33.4619 25.3929C33.4619 25.3929 32.6684 24.9728 32.6684 24.8254C32.6684 24.678 33.5149 24.2795 33.5149 24.2795C33.5149 24.2795 32.9788 21.5331 32.6863 21.2305C32.3938 20.9279 31.5796 20.819 31.5796 20.819Z" fill="#233862"/>
<path d="M35.5696 37.1375C35.5696 37.1375 35.4373 37.3166 35.5214 37.7664C35.6056 38.2163 35.5591 38.4645 35.6754 38.3869C35.7917 38.3094 36.0322 37.7693 36.0322 37.7693L35.5696 37.1375Z" fill="#FFB27D"/>
<path d="M29.9549 32.7955C27.7305 32.4634 26.2432 30.3848 25.4442 28.8108C25.3699 27.8775 25.2544 26.7966 25.1449 25.8549L25.6653 24.3701L29.9549 32.7955Z" fill="#233862"/>
<path d="M37.0346 34.1146C36.5917 34.2171 35.248 34.4682 33.8414 34.1446C33.8179 33.9371 33.7938 33.7267 33.7693 33.5148C33.7674 33.4967 33.7649 33.4786 33.7629 33.4604C33.809 33.2799 33.8556 33.0995 33.9017 32.919C34.6977 33.204 36.4765 33.8282 37.0238 34.0205C37.0277 34.0523 37.0312 34.0837 37.0346 34.1146Z" fill="#233862"/>
<path d="M10.9833 35.1891C10.9833 33.8662 12.0557 32.7937 13.3787 32.7937C14.7016 32.7937 15.7741 33.8662 15.7741 35.1891C15.7741 36.5121 14.7016 37.5845 13.3787 37.5845C12.0557 37.5845 10.9833 36.5121 10.9833 35.1891Z" fill="white"/>
<path d="M59.0034 20.0665C59.0034 18.4902 60.2813 17.2124 61.8576 17.2124C63.4339 17.2124 64.7117 18.4902 64.7117 20.0665C64.7117 21.6428 63.4339 22.9207 61.8576 22.9207C60.2813 22.9207 59.0034 21.6428 59.0034 20.0665Z" fill="#D5E5FB"/>
<path d="M60.9415 18.9214C60.9415 18.4155 61.3516 18.0054 61.8576 18.0054C62.3635 18.0054 62.7736 18.4155 62.7736 18.9214C62.7736 19.4274 62.3635 19.8375 61.8576 19.8375C61.3516 19.8375 60.9415 19.4274 60.9415 18.9214Z" fill="white"/>
<path d="M61.8576 19.8374C60.9722 19.8374 60.2545 20.5552 60.2545 21.4406H63.4607C63.4607 20.5552 62.7429 19.8374 61.8576 19.8374Z" fill="white"/>
<path d="M34.9945 11.3525C34.9945 10.2892 35.8565 9.42712 36.9199 9.42712C37.9833 9.42712 38.8453 10.2892 38.8453 11.3525C38.8453 12.4159 37.9833 13.2779 36.9199 13.2779C35.8565 13.2779 34.9945 12.4159 34.9945 11.3525Z" fill="#C6DCF7"/>
<path d="M36.3019 10.58C36.3019 10.2387 36.5786 9.96204 36.9199 9.96204C37.2611 9.96204 37.5378 10.2387 37.5378 10.58C37.5378 10.9213 37.2611 11.198 36.9199 11.198C36.5786 11.198 36.3019 10.9213 36.3019 10.58Z" fill="white"/>
<path d="M36.9199 11.198C36.3226 11.198 35.8384 11.6822 35.8384 12.2795H38.0013C38.0013 11.6822 37.5172 11.198 36.9199 11.198Z" fill="white"/>
<path d="M58.8573 3.03683C58.8573 1.72675 59.9193 0.664734 61.2294 0.664734C62.5395 0.664734 63.6015 1.72675 63.6015 3.03683C63.6015 4.3469 62.5395 5.40892 61.2294 5.40892C59.9193 5.40892 58.8573 4.3469 58.8573 3.03683Z" fill="#D5E5FB"/>
<path d="M60.468 2.08509C60.468 1.66461 60.8089 1.32376 61.2293 1.32376C61.6498 1.32376 61.9907 1.66461 61.9907 2.08509C61.9907 2.50558 61.6498 2.84642 61.2293 2.84642C60.8089 2.84642 60.468 2.50558 60.468 2.08509Z" fill="white"/>
<path d="M61.2294 2.84644C60.4936 2.84644 59.897 3.443 59.897 4.17883H62.5617C62.5617 3.443 61.9652 2.84644 61.2294 2.84644Z" fill="white"/>
<path d="M71.127 7.29934C71.127 5.28061 72.7635 3.64413 74.7822 3.64413C76.8009 3.64413 78.4374 5.28061 78.4374 7.29934C78.4374 9.31802 76.8009 10.9545 74.7822 10.9545C72.7635 10.9545 71.127 9.31802 71.127 7.29934Z" fill="#C6DCF7"/>
<path d="M73.6091 5.83286C73.6091 5.18492 74.1343 4.65967 74.7823 4.65967C75.4302 4.65967 75.9555 5.18492 75.9555 5.83286C75.9555 6.4808 75.4302 7.00605 74.7823 7.00605C74.1343 7.00605 73.6091 6.4808 73.6091 5.83286Z" fill="white"/>
<path d="M74.7823 7.00604C73.6484 7.00604 72.7292 7.92519 72.7292 9.05907H76.8353C76.8353 7.92519 75.9161 7.00604 74.7823 7.00604Z" fill="white"/>
<path d="M82.3689 15.5501C82.3689 14.1873 83.4738 13.0825 84.8366 13.0825C86.1995 13.0825 87.3043 14.1873 87.3043 15.5501C87.3043 16.913 86.1995 18.0178 84.8366 18.0178C83.4738 18.0178 82.3689 16.913 82.3689 15.5501Z" fill="#D5E5FB"/>
<path d="M85.129 16.1371C85.1297 16.0866 85.1233 16.0421 85.1096 16.0034C85.0959 15.9647 85.0731 15.9295 85.0412 15.8978C85.0093 15.8661 84.968 15.8366 84.9173 15.8094C84.8665 15.7823 84.8045 15.7555 84.7311 15.7292C84.6049 15.6828 84.4904 15.6346 84.3876 15.5844C84.2848 15.5342 84.197 15.4767 84.1242 15.4119C84.0514 15.3472 83.9951 15.2718 83.9556 15.1859C83.9161 15.0999 83.8972 14.9981 83.8989 14.8802C83.9004 14.7781 83.9198 14.6852 83.9573 14.6016C83.9948 14.518 84.0476 14.4454 84.1158 14.3839C84.184 14.3224 84.2653 14.2727 84.3597 14.235C84.4541 14.1973 84.5596 14.1739 84.6762 14.1648L84.6818 13.7789L84.9924 13.7835L84.9867 14.1747C85.0977 14.1907 85.1983 14.2217 85.2882 14.2675C85.3781 14.3133 85.4543 14.3721 85.5167 14.4439C85.579 14.5158 85.6267 14.6003 85.6596 14.6976C85.6924 14.7948 85.708 14.9036 85.7063 15.0238L85.1453 15.0156C85.1474 14.8714 85.117 14.763 85.054 14.6905C84.9909 14.6181 84.9057 14.5811 84.7983 14.5795C84.7401 14.5787 84.6898 14.5861 84.6475 14.6017C84.6052 14.6173 84.5703 14.6391 84.5427 14.6669C84.5151 14.6948 84.4945 14.7278 84.4811 14.7661C84.4676 14.8044 84.4605 14.8457 84.4598 14.8902C84.4592 14.9347 84.4651 14.9751 84.4775 15.0113C84.4899 15.0476 84.5118 15.0812 84.543 15.1124C84.5743 15.1435 84.6159 15.1729 84.6679 15.2007C84.7199 15.2286 84.7845 15.2575 84.8618 15.2874C84.9866 15.3361 85.1001 15.3859 85.2023 15.4366C85.3044 15.4874 85.3919 15.5455 85.4647 15.6109C85.5375 15.6763 85.5938 15.7519 85.6333 15.8379C85.6728 15.9238 85.6917 16.0251 85.69 16.1417C85.6885 16.2475 85.6687 16.3422 85.6305 16.4258C85.5924 16.5094 85.5393 16.5814 85.4711 16.6416C85.4029 16.702 85.321 16.7501 85.2254 16.786C85.1297 16.8219 85.0236 16.8443 84.9069 16.8534L84.9017 17.2122L84.5931 17.2078L84.5983 16.8508C84.4911 16.8384 84.3876 16.8134 84.2878 16.7759C84.188 16.7384 84.0998 16.6852 84.0232 16.6161C83.9465 16.5471 83.8856 16.4605 83.8406 16.3564C83.7955 16.2524 83.7739 16.1282 83.7761 15.984L84.3371 15.9922C84.3358 16.0775 84.3467 16.1489 84.3698 16.2063C84.393 16.2637 84.4243 16.3099 84.4639 16.3448C84.5035 16.3796 84.5488 16.4044 84.5997 16.4189C84.6506 16.4335 84.7026 16.4411 84.7557 16.4419C84.8165 16.4428 84.87 16.4357 84.9162 16.4208C84.9623 16.4058 85.0011 16.3848 85.0326 16.3575C85.064 16.3304 85.0878 16.2979 85.1039 16.2603C85.12 16.2227 85.1283 16.1816 85.129 16.1371Z" fill="white"/>
<path d="M28.3967 18.5429C28.659 19.9381 30.4598 19.8885 31.2379 19.7991C31.4569 19.7743 31.5946 19.746 31.5946 19.746C31.8414 19.6795 31.9784 19.2902 32.0413 18.7806C32.1663 17.772 32.0026 16.2921 31.8316 15.9139C31.574 15.3448 31.0898 14.7297 29.2771 15.1781C27.4641 15.6267 28.0602 16.7554 28.3967 18.5429Z" fill="#FFB27D"/>
<path d="M31.9019 16.1321C31.4039 16.2902 30.3498 16.1321 29.91 16.4894C29.4701 16.8472 29.8911 17.4336 29.3881 17.6443L29.3861 17.6451C29.2844 17.6876 29.1658 17.6592 29.0967 17.5732C28.9569 17.3994 28.7636 17.2264 28.5874 17.2986C28.4429 17.3581 28.4359 17.545 28.5001 17.7266C28.5541 17.8793 28.5394 18.0507 28.447 18.1837C28.407 18.2413 28.3809 18.3042 28.3925 18.3679C28.4348 18.5982 28.5499 18.8974 28.5921 19.0506L28.6041 19.2113C28.6041 19.2113 27.7587 18.3001 27.4019 17.5327C27.157 17.0059 27.1577 15.0356 28.349 14.4572C28.344 14.4532 28.3401 14.4493 28.3376 14.4443C28.3117 14.3983 28.2398 14.4088 28.2398 14.4088C28.3423 14.3625 28.5015 14.3914 28.5015 14.3914C28.498 14.389 28.5045 14.3815 28.5188 14.3706C28.5393 14.2313 28.6793 14.1314 28.6793 14.1314C28.6319 14.2003 28.6118 14.2693 28.6035 14.3199C28.9163 14.1541 29.8795 13.7863 30.6445 14.1173C31.1618 14.3409 31.6357 14.4596 31.958 14.5212C32.2232 14.5719 32.4119 14.8081 32.4025 15.0779C32.3893 15.4566 32.2586 16.0013 31.9019 16.1321Z" fill="#233862"/>
<path d="M30.9527 18.7671C30.9527 18.7671 31.0114 18.9471 31.4656 18.8804C31.4656 18.8804 31.847 18.8244 31.8183 18.6237C31.8183 18.6237 31.4345 18.5114 30.9527 18.7671Z" fill="white"/>
<path d="M38.792 34.0113C39.3317 34.0103 40.0905 34.0899 40.3462 33.8196C40.636 33.5132 40.9709 33.5645 40.9709 33.5645L40.909 33.2076L40.8348 32.7812C40.8348 32.7812 40.8048 32.742 40.6941 32.7415C40.6941 32.7415 40.3029 32.7517 40.1173 32.6818C39.6657 32.5116 37.8391 33.5643 37.8949 33.8659C37.9159 33.9787 38.5621 34.0117 38.792 34.0113Z" fill="#E2915A"/>
<path d="M48.8245 23.7546C48.8245 23.7546 45.6627 30.0117 44.7058 30.6728C43.7489 31.334 40.3546 32.741 40.3546 32.741C40.3546 32.741 40.2628 32.9492 40.3393 33.258C40.419 33.5792 40.5856 33.6725 40.5856 33.6725C40.5856 33.6725 45.304 33.332 46.4109 32.669C47.5178 32.006 49.9792 29.3294 49.9792 29.3294L48.8245 23.7546Z" fill="#233862"/>
<path d="M51.663 20.8114L49.8226 24.3037L48.8785 23.9604L49.185 24.8922L47.3396 30.4513C47.3396 30.4513 46.3188 23.3881 51.663 20.8114Z" fill="#233862"/>
<path d="M48.5926 23.899C48.5926 23.899 46.5573 31.4025 46.3611 38.5627C46.3611 38.5627 48.0493 39.1513 50.7014 38.6853C53.367 38.217 48.5926 23.899 48.5926 23.899Z" fill="#233862"/>
<path d="M57.8718 59.5582H59.7017C59.9321 59.4331 60.1373 59.1467 60.2022 58.7197C60.2916 58.1302 60.9523 57.8087 61.0953 57.3264C61.238 56.8444 60.5057 56.1659 60.5057 56.1659L60.3833 56.008L60.2559 55.8441L59.0413 56.1301C59.0413 56.1301 59.0112 56.4194 58.993 56.7879C58.9797 57.0537 58.9728 57.3609 58.9877 57.6303C59.0234 58.2731 58.808 58.9657 58.2366 59.0908C57.8142 59.1832 57.833 59.4337 57.8718 59.5582Z" fill="#233862"/>
<path d="M47.252 59.5582H51.4368C51.6381 59.3126 51.5639 58.4062 51.5334 58.1103C51.5272 58.0507 51.5228 58.016 51.5228 58.016C51.5228 58.016 50.0939 56.8729 49.8975 57.7481C49.8915 57.7756 49.8842 57.8024 49.8763 57.8289C49.6291 58.6476 48.5198 59.0196 47.8793 59.1232C47.4629 59.1907 47.3089 59.4072 47.252 59.5582Z" fill="#233862"/>
<path d="M48.0493 36.1992C48.0493 36.1992 48.2663 38.9064 48.5213 42.1607C48.868 46.5814 49.2848 52.0115 49.3261 53.0402C49.3973 54.8264 49.6834 57.6837 49.6834 57.6837C49.6834 57.6837 50.3617 58.3626 51.7193 58.0765C51.7193 58.0765 52.9292 53.9976 53.2747 49.6819C53.2801 49.6112 53.2855 49.5399 53.2908 49.4687C53.6123 45.0753 54.1122 35.8241 54.1122 35.8241L48.0493 36.1992Z" fill="#F99746"/>
<path d="M48.0493 36.1991C48.0493 36.1991 48.2663 38.9064 48.5213 42.1607L53.2747 49.6819C53.2801 49.6112 53.2855 49.5399 53.2908 49.4687C53.6123 45.0753 54.1122 35.824 54.1122 35.824L48.0493 36.1991Z" fill="#ED7D2B"/>
<path d="M49.0402 36.5206C49.0402 36.5206 52.9514 46.3253 55.5231 50.933C58.0948 55.5406 58.8985 56.8265 58.8985 56.8265C58.8985 56.8265 60.3719 56.2372 60.5058 55.8353C60.5058 55.8353 59.5224 46.94 57.8002 44.7716C56.827 43.5463 55.6838 39.8692 55.6302 38.5833C55.5767 37.2975 55.282 34.7526 55.282 34.7526L49.0402 36.5206Z" fill="#F99746"/>
<path d="M50.0139 22.2274C51.5422 22.7097 54.1867 21.4082 54.1867 21.4082C54.1867 21.4082 52.7776 20.3505 52.8514 18.1516L51.6697 19.1039L50.8669 19.7508C50.8669 19.7508 50.8702 20.1321 50.958 20.8004C50.974 20.9223 50.9928 21.0538 51.0149 21.1944C51.0326 21.3065 50.9831 21.4198 50.8866 21.4796C50.3295 21.8241 50.0139 22.2274 50.0139 22.2274Z" fill="#FFB27D"/>
<path d="M47.8807 36.4246C47.9267 36.4628 47.9801 36.4859 48.0413 36.4859C48.6152 36.4781 50.2889 36.7968 51.705 36.6514C52.8989 36.5368 53.9556 36.1831 55.0904 35.6744C55.2411 35.6069 55.5879 35.4219 55.5801 35.2534C55.575 35.069 55.5567 34.8015 55.5337 34.4646C55.4534 33.2933 55.3134 31.2787 55.4498 28.9545C55.4744 28.5217 55.4873 28.0924 55.4889 27.6697C55.5006 24.5197 54.8759 21.7491 53.6208 20.8114C53.6208 20.8114 52.7456 21.3024 52.14 21.496C51.5465 21.6857 51.2407 21.6476 50.933 21.4434C50.933 21.4434 50.3335 21.7412 50.0774 22.0205C49.4843 22.667 49.0212 23.5253 48.7152 24.7573C48.4547 25.8058 48.2109 27.3345 48.1266 29.2938C48.0884 30.1816 47.8424 36.3939 47.8807 36.4246Z" fill="white"/>
<path d="M55.3032 26.0161L53.6208 20.8114C53.6208 20.8114 49.5816 22.3347 49.3947 28.0381C49.3211 29.3377 49.0094 34.6639 49.5734 39.0777C49.5734 39.0777 52.7203 40.3038 56.5783 37.8844L55.3032 26.0161Z" fill="#2B478B"/>
<path d="M50.8669 19.7507C50.8669 19.7507 50.8703 20.132 50.958 20.8004C51.8474 20.6478 52.8564 19.2101 52.8564 19.2101C52.4035 19.0794 52.007 19.0559 51.6697 19.1039L50.8669 19.7507Z" fill="#ED975D"/>
<path d="M53.6209 20.8114L51.7804 24.3037L50.8363 23.9604L51.1428 24.8922L49.2975 30.4513C49.2975 30.4513 48.2767 23.3881 53.6209 20.8114Z" fill="#233862"/>
<path d="M50.2045 19.6951C50.2045 19.6951 52.953 20.1781 53.2275 18.4619C53.5019 16.7457 54.0416 15.6522 52.2984 15.2712C50.5551 14.8902 50.1086 15.4904 49.8777 16.041C49.6467 16.5915 49.4967 19.5252 50.2045 19.6951Z" fill="#FFB27D"/>
<path d="M53.2313 18.2965C53.2313 18.2965 52.9492 18.2466 52.9984 17.858C53.0476 17.4693 53.0518 16.9607 52.7345 17.0525C52.4173 17.1444 52.3992 17.3976 52.2706 17.2484C52.142 17.0993 52.1454 16.4761 51.2046 16.4239C50.2637 16.3718 49.8781 16.6958 49.4422 16.4993C49.0063 16.3027 48.9894 15.6399 48.9894 15.6399C48.9894 15.6399 49.1117 15.8777 49.299 15.9547C49.299 15.9547 48.5781 14.949 49.43 14.272C50.2818 13.5951 51.1397 14.0515 51.6288 14.0857C52.7062 14.1611 53.402 14.2323 53.7475 14.9439C54.0931 15.6556 53.9293 17.6211 53.2313 18.2965Z" fill="#2B478B"/>
<path d="M50.0226 18.7179C50.0226 18.7179 50.1271 19.0022 50.395 19.0124C50.663 19.0226 50.8722 18.7642 50.8722 18.7642C50.8722 18.7642 50.2916 18.6239 50.0226 18.7179Z" fill="white"/>
<path d="M62.2844 41.9441L56.6638 42.745C55.9323 42.8492 55.2484 42.336 55.1442 41.6045L54.7971 39.1687C54.6929 38.4372 55.2061 37.7534 55.9377 37.6492L61.5583 36.8483C62.2898 36.7441 62.9736 37.2573 63.0778 37.9888L63.4249 40.4245C63.5291 41.156 63.0159 41.8398 62.2844 41.9441Z" fill="#233862"/>
<path d="M64.1695 40.3456L63.8187 37.8814C63.7137 37.1473 63.0275 36.6322 62.2933 36.7368L60.3615 37.0123L60.2867 36.4865C60.2522 36.2436 60.0261 36.0744 59.7835 36.1088L59.5716 36.139L58.3965 36.3065L58.1046 36.3482C57.9874 36.3647 57.8831 36.4266 57.8116 36.5216C57.7401 36.617 57.71 36.7342 57.7269 36.8513L57.8017 37.377L56.6825 37.5362C56.6381 37.5425 56.5951 37.5511 56.5527 37.5614C56.5524 37.5617 56.5521 37.5617 56.5517 37.5617H56.5514C56.1191 37.6676 55.7781 37.9799 55.6202 38.375V38.3753C55.5358 38.5865 55.5037 38.8213 55.5378 39.0616L55.8891 41.5254C55.9572 42.0024 56.2704 42.387 56.6828 42.5691C56.8196 42.6297 56.9672 42.6681 57.1208 42.6797C57.1211 42.6797 57.1211 42.6797 57.1214 42.6797H57.1218C57.2174 42.6873 57.3154 42.6846 57.4144 42.6704L63.0249 41.8706C63.7591 41.766 64.2741 41.0798 64.1695 40.3456ZM58.0778 37.3376L58.0029 36.8119C57.99 36.7216 58.0533 36.6372 58.144 36.6243L58.6481 36.5524L59.573 36.4203L59.8226 36.3849C59.8398 36.3826 59.8563 36.3829 59.8725 36.3856C59.9424 36.3969 60 36.4525 60.0106 36.5259L60.0854 37.0513L58.0778 37.3376Z" fill="#2B478B"/>
<path d="M58.0103 34.6914C58.0103 34.6914 58.3055 35.0846 58.3171 35.2416C58.3965 36.3065 57.9099 36.4538 59.1696 37.0453C59.1696 37.0453 59.7074 37.2503 59.7166 36.8329C59.7257 36.4155 59.3434 36.4086 59.4133 35.8241C59.494 35.1498 59.4858 35.1436 59.0433 34.7915L58.7503 34.3072L58.0103 34.6914Z" fill="#FFB27D"/>
<path d="M58.7609 34.9928C58.2863 35.0853 57.7719 35.0478 57.7719 35.0478C57.7719 35.0478 56.363 30.6955 56.1817 30.298C56.0003 29.9004 51.9968 25.1947 51.9968 25.1947L53.6208 20.8114C53.6208 20.8114 54.5733 21.3689 55.5802 23.1062C56.824 25.2523 58.1915 28.7087 58.4345 29.2703C59.1611 30.9499 59.4133 34.7153 59.4133 34.7153C59.4133 34.7153 59.1336 34.9201 58.7609 34.9928Z" fill="#2B478B"/>
<path d="M58.4759 35.1596C58.4759 35.1596 58.1917 35.4559 58.1737 35.5792C58.1162 35.9749 57.984 36.1458 58.0503 36.1889C58.1879 36.2784 58.3701 35.9853 58.4571 35.7225C58.5441 35.4596 58.4759 35.1596 58.4759 35.1596Z" fill="#FFB27D"/>
<path d="M39.3171 34.3215C38.771 34.2954 38.1041 34.1611 37.858 33.8757C37.579 33.5521 37.3035 33.4678 37.3035 33.4678L37.3827 33.1095L37.4776 32.6815C37.4776 32.6815 37.5098 32.6432 37.6219 32.6478C37.6219 32.6478 38.051 32.7391 38.2083 32.6143C38.3654 32.4895 38.6571 32.5605 38.8375 32.677C39.0669 32.8253 39.3738 32.7969 39.3671 32.871C39.3671 32.871 38.9189 33.0985 38.9615 33.1353C39.3793 33.4968 40.4691 33.6286 40.4021 33.916C40.3756 34.0292 39.5498 34.3326 39.3171 34.3215Z" fill="#FFB27D"/>
<path d="M27.7985 21.104C27.7992 21.1046 25.866 21.3733 24.9983 22.6179C24.1306 23.8624 26.1139 30.5547 30.079 32.6552C31.9864 33.6656 37.4548 33.8286 37.4548 33.8286C37.4548 33.8286 37.7556 33.8549 37.867 33.2485C37.9059 33.0371 37.8597 32.6779 37.8597 32.6779C37.8597 32.6779 31.6085 30.4249 31.0559 29.9828C30.5032 29.5407 27.7985 21.104 27.7985 21.104Z" fill="#22407A"/>
</svg>
