<svg width="16" height="16" viewBox="0 0 16 16" fill="none" xmlns="http://www.w3.org/2000/svg">
<path d="M1.90841 5.31031C1.85031 5.25216 1.76969 5.21875 1.6875 5.21875C1.60531 5.21875 1.52472 5.25219 1.46656 5.31031C1.40841 5.36844 1.375 5.44906 1.375 5.53125C1.375 5.61344 1.40841 5.69406 1.46656 5.75216C1.52469 5.81031 1.60531 5.84375 1.6875 5.84375C1.76969 5.84375 1.85031 5.81031 1.90841 5.75216C1.96656 5.69406 2 5.61344 2 5.53125C2 5.44906 1.96656 5.36844 1.90841 5.31031Z" fill="white"/>
<path d="M13.6875 0H7.36459C7.19203 0 7.05209 0.139938 7.05209 0.3125C7.05209 0.485062 7.19203 0.625 7.36459 0.625H13.6875C13.8598 0.625 14 0.765188 14 0.9375V15.0625C14 15.2348 13.8598 15.375 13.6875 15.375H2.3125C2.14019 15.375 2 15.2348 2 15.0625V6.69791C2 6.52534 1.86006 6.38541 1.6875 6.38541C1.51494 6.38541 1.375 6.52534 1.375 6.69791V15.0625C1.375 15.5794 1.79556 16 2.3125 16H13.6875C14.2044 16 14.625 15.5794 14.625 15.0625V0.9375C14.625 0.420563 14.2044 0 13.6875 0Z" fill="white"/>
<path d="M8.00023 1.25C7.7876 1.25 7.57391 1.26625 7.3651 1.29825C7.19451 1.32444 7.07742 1.48391 7.10357 1.6545C7.12973 1.82509 7.28929 1.94203 7.45982 1.91603C7.63741 1.88878 7.81923 1.875 8.00023 1.875C9.94738 1.875 11.5315 3.45913 11.5315 5.40628C11.5315 6.27097 11.2189 7.06387 10.7011 7.67847C10.4719 7.28441 10.1589 6.9445 9.77901 6.68084C9.55729 6.52697 9.31907 6.40416 9.06969 6.31325C9.35432 6.03503 9.53148 5.64731 9.53148 5.21881V4.91412C9.53148 4.06975 8.84457 3.38284 8.00023 3.38284C7.15588 3.38284 6.46898 4.06975 6.46898 4.91412V5.21881C6.46898 5.64731 6.6461 6.03503 6.93076 6.31325C6.68141 6.40416 6.4432 6.52697 6.22145 6.68084C5.83973 6.94578 5.52548 7.28759 5.29604 7.68403C4.90145 7.21512 4.62563 6.63837 4.51773 5.99497C4.4892 5.82481 4.32792 5.71 4.15785 5.73847C3.98763 5.767 3.87279 5.92812 3.90132 6.09834C4.06201 7.05647 4.55942 7.93347 5.30195 8.56775C6.05292 9.20928 7.0112 9.56259 8.0002 9.56259C10.292 9.56259 12.1565 7.69809 12.1565 5.40631C12.1565 3.11453 10.292 1.25 8.00023 1.25ZM7.09398 4.91409C7.09398 4.41437 7.50054 4.00781 8.00023 4.00781C8.49991 4.00781 8.90648 4.41437 8.90648 4.91409V5.21878C8.90648 5.71847 8.49991 6.12503 8.00023 6.12503C7.50054 6.12503 7.09398 5.71847 7.09398 5.21878V4.91409ZM8.00023 8.93756C7.15416 8.93756 6.37198 8.64212 5.75979 8.14125C6.17941 7.28962 7.03726 6.75003 8.00023 6.75003C8.9612 6.75003 9.81741 7.28741 10.238 8.13594C9.62838 8.63659 8.84879 8.93756 8.00023 8.93756Z" fill="white"/>
<path d="M10.8862 12.4375H6.44873C6.27617 12.4375 6.13623 12.5774 6.13623 12.75C6.13623 12.9226 6.27617 13.0625 6.44873 13.0625H10.8862C11.0588 13.0625 11.1987 12.9226 11.1987 12.75C11.1987 12.5774 11.0588 12.4375 10.8862 12.4375Z" fill="white"/>
<path d="M5.33471 10.7791C5.27658 10.7209 5.19596 10.6875 5.11377 10.6875C5.03158 10.6875 4.95096 10.7209 4.89283 10.7791C4.83471 10.8372 4.80127 10.9178 4.80127 11C4.80127 11.0825 4.83474 11.1628 4.89283 11.2209C4.95096 11.2791 5.03158 11.3125 5.11377 11.3125C5.19596 11.3125 5.27658 11.2791 5.33471 11.2209C5.39314 11.1628 5.42627 11.0822 5.42627 11C5.42627 10.9178 5.39314 10.8372 5.33471 10.7791Z" fill="white"/>
<path d="M5.33471 12.5291C5.27658 12.4709 5.19627 12.4375 5.11377 12.4375C5.03158 12.4375 4.95096 12.4709 4.89283 12.5291C4.83471 12.5872 4.80127 12.6678 4.80127 12.75C4.80127 12.8325 4.83474 12.9128 4.89283 12.9709C4.95096 13.0291 5.03158 13.0625 5.11377 13.0625C5.19596 13.0625 5.27658 13.0291 5.33471 12.9709C5.39314 12.9128 5.42627 12.8325 5.42627 12.75C5.42627 12.6678 5.39314 12.5872 5.33471 12.5291Z" fill="white"/>
<path d="M10.8862 10.6875H6.44873C6.27617 10.6875 6.13623 10.8274 6.13623 11C6.13623 11.1726 6.27617 11.3125 6.44873 11.3125H10.8862C11.0588 11.3125 11.1987 11.1726 11.1987 11C11.1987 10.8274 11.0588 10.6875 10.8862 10.6875Z" fill="white"/>
<path d="M5.05089 1.80085C4.9288 1.67885 4.73099 1.67885 4.60892 1.80085L3.59123 2.81854L3.24345 2.47076C3.12136 2.34876 2.92355 2.34876 2.80148 2.47076C2.67945 2.59282 2.67945 2.79069 2.80148 2.91273L3.37023 3.48148C3.43127 3.54248 3.5112 3.57301 3.5912 3.57301C3.6712 3.57301 3.75114 3.54248 3.8122 3.48151L5.05089 2.24282C5.17292 2.12076 5.17292 1.92288 5.05089 1.80085Z" fill="white"/>
<path d="M3.9375 0C2.52453 0 1.375 1.14953 1.375 2.5625C1.375 3.97547 2.52453 5.125 3.9375 5.125C5.35047 5.125 6.5 3.97547 6.5 2.5625C6.5 1.14953 5.35047 0 3.9375 0ZM3.9375 4.5C2.86916 4.5 2 3.63084 2 2.5625C2 1.49416 2.86916 0.625 3.9375 0.625C5.00584 0.625 5.875 1.49416 5.875 2.5625C5.875 3.63084 5.00584 4.5 3.9375 4.5Z" fill="white"/>
</svg>
