<svg width="15" height="14" viewBox="0 0 15 14" fill="none" xmlns="http://www.w3.org/2000/svg">
<g clip-path="url(#clip0)">
<path d="M13.7215 4.40582C13.2389 3.92604 12.4536 3.92607 11.9708 4.40593C11.8223 4.55366 10.8743 5.49683 10.7295 5.64093V2.39055C10.7295 2.06188 10.6007 1.7529 10.3669 1.5205L9.19996 0.360391C8.96619 0.127969 8.65534 0 8.32471 0H1.23975C0.557227 0 0.00195312 0.551988 0.00195312 1.23047V12.7695C0.00195312 13.448 0.557227 14 1.23975 14H9.4917C10.1742 14 10.7295 13.448 10.7295 12.7695V9.12272L13.7214 6.14597C14.2052 5.66511 14.2053 4.88674 13.7215 4.40582ZM8.25393 0.820312C8.33189 0.820312 8.4821 0.806887 8.61647 0.940434L9.78346 2.10055C9.91439 2.23073 9.90432 2.37338 9.90432 2.46094H8.25393V0.820312ZM9.90429 12.7695C9.90429 12.9957 9.71923 13.1797 9.4917 13.1797H1.23975C1.01224 13.1797 0.827148 12.9957 0.827148 12.7695V1.23047C0.827148 1.00431 1.01224 0.820312 1.23975 0.820312H7.42871V2.87109C7.42871 3.09761 7.61344 3.28125 7.84131 3.28125H9.90429V6.46196C9.90429 6.46196 8.68702 7.67307 8.68697 7.67309L8.10375 8.25289C8.05847 8.2979 8.02431 8.35281 8.00406 8.41321L7.42054 10.1534C7.37111 10.3007 7.4097 10.4633 7.52022 10.5731C7.63088 10.6831 7.79441 10.7213 7.94245 10.6722L9.69296 10.0921C9.75372 10.072 9.80896 10.0381 9.85423 9.99305L9.90429 9.94328V12.7695ZM8.97898 8.54293L9.56247 9.12297L9.33959 9.34454L8.46436 9.63454L8.75609 8.76446L8.97898 8.54293ZM10.1459 8.54279L9.56236 7.96275C9.87308 7.65363 11.253 6.28064 11.5457 5.98946L12.1292 6.5695L10.1459 8.54279ZM13.1378 5.56604L12.7125 5.98921L12.129 5.40917L12.5545 4.98586C12.7154 4.82593 12.9771 4.82595 13.138 4.98586C13.2988 5.14582 13.2997 5.40512 13.1378 5.56604Z" fill="#F6F6FA"/>
<path d="M7.83984 4.10156H2.06348C1.83561 4.10156 1.65088 4.2852 1.65088 4.51172C1.65088 4.73823 1.83561 4.92188 2.06348 4.92188H7.83984C8.06771 4.92188 8.25244 4.73823 8.25244 4.51172C8.25244 4.2852 8.06771 4.10156 7.83984 4.10156Z" fill="#F6F6FA"/>
<path d="M6.18945 5.74219H2.06348C1.83561 5.74219 1.65088 5.92583 1.65088 6.15234C1.65088 6.37886 1.83561 6.5625 2.06348 6.5625H6.18945C6.41732 6.5625 6.60205 6.37886 6.60205 6.15234C6.60205 5.92583 6.41732 5.74219 6.18945 5.74219Z" fill="#F6F6FA"/>
<path d="M6.18945 7.38281H2.06348C1.83561 7.38281 1.65088 7.56645 1.65088 7.79297C1.65088 8.01948 1.83561 8.20312 2.06348 8.20312H6.18945C6.41732 8.20312 6.60205 8.01948 6.60205 7.79297C6.60205 7.56645 6.41732 7.38281 6.18945 7.38281Z" fill="#F6F6FA"/>
<path d="M6.18945 9.02344H2.06348C1.83561 9.02344 1.65088 9.20708 1.65088 9.43359C1.65088 9.66011 1.83561 9.84375 2.06348 9.84375H6.18945C6.41732 9.84375 6.60205 9.66011 6.60205 9.43359C6.60205 9.20708 6.41732 9.02344 6.18945 9.02344Z" fill="#F6F6FA"/>
<path d="M7.83984 11.5391H5.36426C5.13639 11.5391 4.95166 11.7227 4.95166 11.9492C4.95166 12.1757 5.13639 12.3594 5.36426 12.3594H7.83984C8.06771 12.3594 8.25244 12.1757 8.25244 11.9492C8.25244 11.7227 8.06771 11.5391 7.83984 11.5391Z" fill="#F6F6FA"/>
</g>
<defs>
<clipPath id="clip0">
<rect width="14.0833" height="14" fill="white"/>
</clipPath>
</defs>
</svg>
