<svg width="16" height="16" viewBox="0 0 16 16" fill="none" xmlns="http://www.w3.org/2000/svg">
<path d="M9.84375 2.84375H6.09375C5.83487 2.84375 5.625 3.05362 5.625 3.3125C5.625 3.57138 5.83487 3.78125 6.09375 3.78125H9.84375C10.1026 3.78125 10.3125 3.57138 10.3125 3.3125C10.3125 3.05362 10.1026 2.84375 9.84375 2.84375Z" fill="white"/>
<path d="M9.84375 4.71875H6.09375C5.83487 4.71875 5.625 4.92862 5.625 5.1875C5.625 5.44638 5.83487 5.65625 6.09375 5.65625H9.84375C10.1026 5.65625 10.3125 5.44638 10.3125 5.1875C10.3125 4.92862 10.1026 4.71875 9.84375 4.71875Z" fill="white"/>
<path d="M9.84375 6.59375H2.34375C2.08487 6.59375 1.875 6.80362 1.875 7.0625C1.875 7.32138 2.08487 7.53125 2.34375 7.53125H9.84375C10.1026 7.53125 10.3125 7.32138 10.3125 7.0625C10.3125 6.80362 10.1026 6.59375 9.84375 6.59375Z" fill="white"/>
<path d="M8.14444 8.46875H2.34375C2.08487 8.46875 1.875 8.67862 1.875 8.9375C1.875 9.19638 2.08487 9.40625 2.34375 9.40625H8.14444C8.40331 9.40625 8.61319 9.19638 8.61319 8.9375C8.61319 8.67862 8.40331 8.46875 8.14444 8.46875Z" fill="white"/>
<path d="M12.2188 8.46875V1.40625C12.2188 0.629 11.5595 0 10.7812 0H4.21869C4.09984 0 3.97759 0.047 3.88594 0.138688L0.135937 3.91994C0.0497812 4.00678 0 4.12756 0 4.25V14.5938C0 15.3692 0.630844 16 1.40625 16C2.39519 16 2.72356 16 2.72216 16C4.15975 16 6.98856 16 12.2188 16C14.2885 16 16 14.2958 16 12.2188C16 10.151 14.3038 8.46875 12.2188 8.46875ZM3.75 1.60709V3.78125H1.59381L3.75 1.60709ZM1.40625 15.0625C1.14778 15.0625 0.9375 14.8522 0.9375 14.5938V4.71875H4.21875C4.47762 4.71875 4.6875 4.50887 4.6875 4.25V0.9375H10.7812C11.0476 0.9375 11.2812 1.15653 11.2812 1.40625V8.58547C10.2863 8.83809 9.44822 9.48312 8.94509 10.3438H2.34375C2.08488 10.3438 1.875 10.5536 1.875 10.8125C1.875 11.0714 2.08488 11.2812 2.34375 11.2812H8.55713C8.47906 11.581 8.4375 11.8952 8.4375 12.2188H2.34375C2.08488 12.2188 1.875 12.4286 1.875 12.6875C1.875 12.9464 2.08488 13.1562 2.34375 13.1562H8.55641C8.74587 13.8893 9.15553 14.55 9.74022 15.0625H1.40625ZM12.2188 15.0625C10.6773 15.0625 9.375 13.7602 9.375 12.2188C9.375 10.6679 10.6507 9.40625 12.2188 9.40625C13.7868 9.40625 15.0625 10.6679 15.0625 12.2188C15.0625 13.7602 13.7602 15.0625 12.2188 15.0625Z" fill="white"/>
<path d="M13.9904 11.4213C13.8089 11.2367 13.5121 11.2343 13.3275 11.4158L11.7473 12.9701L11.1072 12.3506C10.9212 12.1706 10.6244 12.1755 10.4444 12.3615C10.2644 12.5476 10.2692 12.8443 10.4553 13.0243L11.424 13.9618C11.6067 14.1387 11.8973 14.1376 12.0787 13.9592L13.985 12.0842C14.1695 11.9026 14.172 11.6059 13.9904 11.4213Z" fill="white"/>
</svg>
