<svg width="300" height="266" viewBox="0 0 300 266" fill="none" xmlns="http://www.w3.org/2000/svg">
<path d="M195.951 120.322C195.951 132.593 191.076 144.362 182.399 153.039C173.722 161.716 161.953 166.591 149.682 166.591C137.411 166.591 125.642 161.716 116.965 153.039C108.288 144.362 103.413 132.593 103.413 120.322C103.413 108.051 108.288 96.282 116.965 87.6049C125.642 78.9278 137.411 74.0531 149.682 74.0531C161.953 74.0531 173.722 78.9278 182.399 87.6049C191.076 96.282 195.951 108.051 195.951 120.322Z" fill="white"/>
<path d="M26.9264 3.84738C29.4466 10.6892 37.7833 26.989 65.0885 54.6343C79.9083 68.6464 96.3088 80.8857 113.959 91.1051C118.289 85.784 123.752 81.4956 129.949 78.5524C136.147 75.6092 142.922 74.0853 149.783 74.0915C156.648 74.0852 163.427 75.6109 169.627 78.5576C175.827 81.5042 181.291 85.7975 185.621 91.1243C203.286 80.9014 219.699 68.6556 234.53 54.6343C272.088 16.5873 273.77 0.0143127 273.77 0.0143127H25.8436L26.912 3.84738" fill="#D8C1AA"/>
<path d="M120.729 27.5974C121.501 27.6568 122.255 27.8678 122.945 28.2182C123.636 28.5687 124.251 29.0519 124.755 29.64C125.26 30.2282 125.643 30.9099 125.883 31.6463C126.124 32.3826 126.217 33.1591 126.158 33.9315C126.098 34.7039 125.887 35.4569 125.537 36.1477C125.186 36.8385 124.703 37.4536 124.115 37.9577C123.527 38.4618 122.845 38.845 122.109 39.0856C121.372 39.3262 120.596 39.4195 119.824 39.3599C119.051 39.3006 118.298 39.0896 117.607 38.7391C116.917 38.3886 116.301 37.9055 115.797 37.3173C115.293 36.7291 114.91 36.0474 114.669 35.311C114.429 34.5747 114.336 33.7983 114.395 33.026C114.455 32.2536 114.665 31.5005 115.016 30.8096C115.366 30.1188 115.849 29.5037 116.438 28.9996C117.026 28.4955 117.708 28.1123 118.444 27.8717C119.18 27.6311 119.957 27.5379 120.729 27.5974Z" fill="white"/>
<path d="M179.34 27.5974C180.112 27.6568 180.865 27.8678 181.556 28.2182C182.247 28.5687 182.862 29.0519 183.366 29.64C183.87 30.2282 184.253 30.9099 184.494 31.6463C184.734 32.3826 184.828 33.1591 184.768 33.9315C184.709 34.7039 184.498 35.4569 184.147 36.1477C183.797 36.8385 183.314 37.4536 182.725 37.9577C182.137 38.4618 181.456 38.845 180.719 39.0856C179.983 39.3262 179.206 39.4195 178.434 39.3599C177.662 39.3006 176.909 39.0896 176.218 38.7391C175.527 38.3886 174.912 37.9055 174.408 37.3173C173.904 36.7291 173.52 36.0474 173.28 35.311C173.039 34.5747 172.946 33.7983 173.006 33.026C173.065 32.2536 173.276 31.5005 173.626 30.8096C173.977 30.1188 174.46 29.5037 175.048 28.9996C175.636 28.4955 176.318 28.1123 177.054 27.8717C177.791 27.6311 178.567 27.5379 179.34 27.5974Z" fill="white"/>
<path d="M202.089 29.0876C202.665 29.1318 203.228 29.2892 203.744 29.5508C204.259 29.8124 204.719 30.1732 205.095 30.6123C205.472 31.0515 205.758 31.5605 205.937 32.1103C206.117 32.6601 206.187 33.2398 206.142 33.8165C206.052 34.9807 205.503 36.0614 204.616 36.8214C203.729 37.5814 202.578 37.9585 201.413 37.8699C200.836 37.8257 200.274 37.6682 199.758 37.4066C199.242 37.1449 198.783 36.7843 198.407 36.3452C198.03 35.906 197.744 35.397 197.565 34.8472C197.385 34.2974 197.315 33.7177 197.36 33.141C197.404 32.5643 197.561 32.002 197.823 31.4861C198.085 30.9703 198.445 30.511 198.884 30.1346C199.324 29.7582 199.833 29.4719 200.382 29.2923C200.932 29.1126 201.512 29.0431 202.089 29.0876Z" fill="white"/>
<path d="M98.3633 29.0876C98.94 29.1318 99.5023 29.2892 100.018 29.5508C100.534 29.8124 100.993 30.1732 101.37 30.6123C101.746 31.0515 102.032 31.5605 102.212 32.1103C102.392 32.6601 102.461 33.2398 102.417 33.8165C102.372 34.3932 102.215 34.9555 101.953 35.4714C101.692 35.9872 101.331 36.4464 100.892 36.8229C100.453 37.1993 99.9438 37.4856 99.394 37.6652C98.8442 37.8449 98.2644 37.9144 97.6877 37.8699C97.111 37.8257 96.5487 37.6682 96.0328 37.4066C95.517 37.1449 95.0577 36.7843 94.6813 36.3452C94.3049 35.906 94.0187 35.397 93.8391 34.8472C93.6594 34.2974 93.5899 33.7177 93.6344 33.141C93.6786 32.5643 93.836 32.002 94.0976 31.4861C94.3592 30.9703 94.7199 30.511 95.1591 30.1346C95.5982 29.7582 96.1072 29.4719 96.657 29.2923C97.2068 29.1126 97.7866 29.0431 98.3633 29.0876Z" fill="white"/>
<path d="M146.482 26.9075L149.514 22.5954L152.313 27.0609L157.501 26.1554L156.323 31.2915L160.635 34.3243L156.17 37.1225L157.075 42.3113L151.939 41.1326L148.906 45.4448L146.108 40.9794L140.919 41.8849L142.098 36.7487L137.786 33.7159L142.251 30.9178L141.346 25.7288L146.482 26.9075Z" fill="white"/>
<path d="M277.675 106.954C283.189 103.572 287.944 99.0841 291.639 93.7737C295.334 88.4634 297.889 82.4454 299.144 76.0989C300.091 67.6765 299.658 59.156 297.86 50.8732C297.86 50.8732 285.542 72.2181 248.079 91.3015C236.733 96.7692 224.832 101.003 212.581 103.931C212.174 102.719 211.757 101.536 211.326 100.434C217.224 98.4021 225.609 95.4173 233.71 92.1832C241.947 88.8916 270.469 73.1093 279.586 56.4119C286.211 44.8391 288.243 31.1983 285.278 18.1971C283.442 11.0826 279.42 4.72329 273.779 0.0143292C273.779 0.0143292 272.098 16.5825 234.539 54.6344C219.709 68.6556 203.295 80.9014 185.631 91.1243C192.365 99.3632 196.037 109.681 196.023 120.322C196.022 129.26 193.429 138.005 188.559 145.5C183.689 152.994 176.75 158.916 168.583 162.547C167.481 162.068 166.327 161.589 165.23 161.057C161.888 159.427 159.127 156.811 157.319 153.562C155.511 150.313 154.744 146.588 155.12 142.889C157.037 132.108 163.347 127.787 175.976 129.88C175.976 129.88 175.976 121.256 156.615 109.096C149.653 104.717 140.004 98.1098 138.82 94.0229C136.416 96.8634 135.121 100.478 135.174 104.2C135.093 106.188 135.506 108.165 136.377 109.954C137.247 111.744 138.548 113.289 140.162 114.453C142.664 115.558 145.267 116.421 147.933 117.03C140.042 120.837 133.666 127.196 129.84 135.078C126.014 142.96 124.961 151.903 126.852 160.458C119.77 156.42 113.882 150.579 109.788 143.528C105.694 136.478 103.539 128.47 103.543 120.317C103.525 109.664 107.203 99.3351 113.949 91.0907C96.299 80.8713 79.8984 68.632 65.0787 54.6199C27.5203 16.5728 25.8386 0 25.8386 0C20.1976 4.70853 16.1758 11.068 14.3396 18.1827C11.3608 31.1928 13.3877 44.8473 20.0172 56.4311C29.1205 73.1285 57.6523 88.9108 65.8884 92.2023C73.9903 95.4364 82.375 98.4309 88.273 100.453C87.8417 101.569 87.4249 102.738 87.0177 103.95C74.7672 101.022 62.8664 96.7883 51.5195 91.3207C14.0905 72.2181 1.77225 50.8732 1.77225 50.8732C-0.0256212 59.1559 -0.45934 67.6765 0.488201 76.0989C1.74321 82.4454 4.29867 88.4634 7.99365 93.7737C11.6886 99.0841 16.4431 103.572 21.9577 106.954C34.4963 115.679 61.4086 124.088 74.4024 125.851C77.7562 126.301 80.4872 126.618 82.7439 126.843C82.6768 128.079 82.6433 129.349 82.6241 130.637C73.0597 129.762 63.582 128.114 54.284 125.707C15.3889 115.44 0.512157 96.8162 0.512157 96.8162C0.316227 104.88 1.43774 112.921 3.83247 120.624C8.31706 132.817 17.3102 139.645 28.857 144.781C42.1431 150.689 69.4818 152.773 81.939 152.088C82.8972 152.035 83.9273 151.992 84.7706 151.954C85.0245 153.113 85.1395 154.349 85.4413 155.451C81.1292 155.557 75.9547 156.079 71.5468 155.997C58.8343 155.533 46.1694 154.187 33.6435 151.968C24.1268 149.831 15.2022 145.611 7.51213 139.611C9.6335 147.461 12.5388 155.077 16.1842 162.346C19.8376 168.567 25.3179 173.512 31.8803 176.509C40.9385 179.627 50.6128 180.528 60.091 179.134C67.8959 178.521 86.505 175.704 93.5768 174.611C94.2907 175.804 95.0142 176.959 95.7281 178.056C85.6385 180.882 75.3611 182.987 64.9732 184.357C53.9275 185.842 42.7318 185.833 31.6886 184.328C35.3657 189.122 39.3986 193.632 43.7529 197.82C50.0821 203.349 55.0698 205.361 67.3784 204.897C81.939 204.35 99.5754 195.031 106.863 191.611C107.768 192.478 108.779 193.431 109.881 194.442C102.973 198.668 95.7875 202.424 88.3736 205.682C79.1123 209.152 69.4799 211.537 59.6694 212.788C62.6818 216.357 66.3823 219.282 70.5501 221.389C74.7178 223.497 79.2674 224.743 83.9273 225.053C94.1418 225.211 104.095 221.825 112.095 215.471C115.802 212.515 119.251 209.25 122.406 205.711L125.376 208.337C121.202 214.849 115.684 220.394 109.191 224.598C95.2346 233.059 88.8096 232.743 88.8096 232.743C88.8096 232.743 102.627 243.576 114.107 241.118C124.887 238.804 133.895 225.729 137.742 219.304C138.82 220.262 139.836 221.187 140.785 222.049C139.817 224.357 138.697 226.598 137.431 228.757C132.932 237.232 126.477 244.511 118.601 249.992C118.601 249.992 122.885 255.396 139.328 262.046C142.69 263.409 146.139 264.544 149.653 265.443V265.534L149.821 265.491L149.989 265.534V265.443C153.503 264.544 156.952 263.409 160.314 262.046C176.757 255.396 181.041 249.992 181.041 249.992C173.165 244.511 166.71 237.232 162.211 228.757C160.945 226.598 159.825 224.357 158.857 222.049C159.815 221.187 160.822 220.267 161.9 219.304C165.733 225.729 174.759 238.809 185.535 241.118C197.034 243.581 210.832 232.743 210.832 232.743C210.832 232.743 204.403 233.059 190.451 224.598C183.958 220.394 178.44 214.849 174.266 208.337L177.236 205.711C180.392 209.25 183.841 212.515 187.547 215.471C195.547 221.824 205.5 225.21 215.715 225.053C220.374 224.743 224.924 223.496 229.092 221.389C233.259 219.282 236.96 216.356 239.973 212.788C230.162 211.536 220.53 209.152 211.268 205.682C203.855 202.423 196.669 198.668 189.761 194.442C190.858 193.431 191.874 192.478 192.779 191.611C200.067 195.031 217.693 204.35 232.264 204.897C244.577 205.376 249.56 203.349 255.889 197.82C260.243 193.632 264.276 189.122 267.953 184.328C256.908 185.83 245.711 185.837 234.664 184.347C224.276 182.977 213.999 180.872 203.909 178.047C204.637 176.949 205.346 175.795 206.06 174.602C213.137 175.694 231.741 178.511 239.546 179.125C249.024 180.518 258.699 179.618 267.757 176.499C274.319 173.502 279.8 168.557 283.453 162.336C287.102 155.067 290.01 147.449 292.135 139.597C284.445 145.597 275.52 149.817 266.003 151.954C253.477 154.173 240.812 155.519 228.1 155.983C223.692 156.06 218.518 155.542 214.205 155.437C214.507 154.325 214.622 153.099 214.876 151.939C215.719 151.982 216.764 152.026 217.708 152.073C230.165 152.759 257.504 150.674 270.79 144.767C282.337 139.635 291.33 132.789 295.814 120.609C298.209 112.907 299.331 104.866 299.135 96.8019C299.135 96.8019 284.282 115.425 245.372 125.688C236.074 128.094 226.597 129.743 217.032 130.618C217.032 129.329 216.98 128.06 216.912 126.824C219.164 126.598 221.914 126.287 225.254 125.832C238.248 124.073 265.155 115.665 277.694 106.935" fill="#364BA8"/>
</svg>
