<svg width="45" height="43" viewBox="0 0 45 43" fill="none" xmlns="http://www.w3.org/2000/svg">
<g filter="url(#filter0_d)">
<path d="M23.7788 1.08381L27.8469 9.32801C27.9875 9.61111 28.195 9.85564 28.4515 10.0404C28.708 10.2251 29.0057 10.3444 29.3188 10.3881L38.4171 11.7098C38.7758 11.7619 39.1128 11.9134 39.3899 12.1471C39.667 12.3807 39.8732 12.6872 39.9853 13.0319C40.0973 13.3766 40.1107 13.7458 40.0239 14.0977C39.9371 14.4496 39.7536 14.7703 39.4941 15.0233L32.9109 21.4377C32.6853 21.6577 32.5165 21.9291 32.4192 22.2288C32.3218 22.5285 32.2988 22.8473 32.3521 23.1578L33.9068 32.219C33.9679 32.5763 33.9279 32.9435 33.7913 33.2792C33.6546 33.6149 33.4268 33.9057 33.1335 34.1187C32.8403 34.3317 32.4933 34.4585 32.1318 34.4846C31.7703 34.5107 31.4087 34.4352 31.0878 34.2666L22.95 29.9892C22.6712 29.8428 22.361 29.7663 22.046 29.7663C21.7311 29.7663 21.4209 29.8428 21.1421 29.9892L12.9958 34.275C12.675 34.4436 12.3134 34.5191 11.9519 34.493C11.5904 34.4669 11.2434 34.3402 10.9501 34.1272C10.6568 33.9142 10.429 33.6234 10.2924 33.2877C10.1557 32.952 10.1157 32.5847 10.1769 32.2275L11.7315 23.1663C11.7851 22.8555 11.7622 22.5363 11.6649 22.2363C11.5676 21.9364 11.3987 21.6646 11.1728 21.4445L4.58957 15.0301C4.32912 14.7772 4.14472 14.4565 4.05725 14.1042C3.96978 13.7519 3.98275 13.3822 4.09469 13.0369C4.20662 12.6916 4.41304 12.3846 4.69056 12.1506C4.96807 11.9167 5.30558 11.7651 5.66482 11.7132L14.7648 10.3881C15.0766 10.343 15.3727 10.2228 15.6276 10.0378C15.8826 9.85285 16.0887 9.60867 16.2283 9.32632L20.2964 1.08212C20.4568 0.757155 20.7049 0.483571 21.0127 0.29233C21.3206 0.101088 21.6758 -0.000175429 22.0381 2.2814e-07C22.4005 0.000175885 22.7556 0.101784 23.0632 0.293324C23.3709 0.484864 23.6187 0.758688 23.7788 1.08381Z" fill="#325ECD"/>
</g>
<defs>
<filter id="filter0_d" x="0" y="0" width="44.0804" height="42.4981" filterUnits="userSpaceOnUse" color-interpolation-filters="sRGB">
<feFlood flood-opacity="0" result="BackgroundImageFix"/>
<feColorMatrix in="SourceAlpha" type="matrix" values="0 0 0 0 0 0 0 0 0 0 0 0 0 0 0 0 0 0 127 0"/>
<feOffset dy="4"/>
<feGaussianBlur stdDeviation="2"/>
<feColorMatrix type="matrix" values="0 0 0 0 0 0 0 0 0 0 0 0 0 0 0 0 0 0 0.25 0"/>
<feBlend mode="normal" in2="BackgroundImageFix" result="effect1_dropShadow"/>
<feBlend mode="normal" in="SourceGraphic" in2="effect1_dropShadow" result="shape"/>
</filter>
</defs>
</svg>
