<svg width="18" height="18" viewBox="0 0 18 18" fill="none" xmlns="http://www.w3.org/2000/svg">
<path d="M2.25 0C1.65326 0 1.08097 0.237053 0.65901 0.65901C0.237053 1.08097 0 1.65326 0 2.25L0 15.75C0 16.3467 0.237053 16.919 0.65901 17.341C1.08097 17.7629 1.65326 18 2.25 18H15.75C16.3467 18 16.919 17.7629 17.341 17.341C17.7629 16.919 18 16.3467 18 15.75V2.25C18 1.65326 17.7629 1.08097 17.341 0.65901C16.919 0.237053 16.3467 0 15.75 0L2.25 0ZM13.5337 5.59125C13.69 5.74735 13.7788 5.95849 13.7811 6.17935C13.7835 6.40021 13.6991 6.61316 13.5461 6.7725L9.05512 12.3863C8.97794 12.4694 8.88478 12.5361 8.78122 12.5824C8.67766 12.6287 8.56583 12.6537 8.45241 12.6558C8.33899 12.6579 8.2263 12.6371 8.1211 12.5946C8.0159 12.5522 7.92034 12.489 7.84013 12.4087L4.8645 9.432C4.7816 9.35476 4.71511 9.2616 4.669 9.15811C4.62288 9.05461 4.59808 8.94288 4.59608 8.82959C4.59409 8.7163 4.61493 8.60376 4.65736 8.4987C4.6998 8.39364 4.76296 8.2982 4.84308 8.21808C4.9232 8.13796 5.01864 8.0748 5.1237 8.03236C5.22876 7.98993 5.3413 7.96909 5.45459 7.97108C5.56788 7.97308 5.67961 7.99788 5.78311 8.044C5.8866 8.09011 5.97975 8.1566 6.057 8.2395L8.41275 10.5941L12.3199 5.616C12.3969 5.53271 12.4899 5.46582 12.5934 5.41931C12.6969 5.37281 12.8087 5.34765 12.9221 5.34534C13.0355 5.34303 13.1483 5.36361 13.2535 5.40587C13.3588 5.44812 13.4545 5.51117 13.5349 5.59125H13.5337Z" fill="#00966D"/>
</svg>
