<svg width="48" height="48" viewBox="0 0 48 48" fill="none" xmlns="http://www.w3.org/2000/svg">
<path d="M31.2993 4C32.1484 3.99801 32.8198 4.65768 32.8218 5.53724L32.8238 7.03649C38.333 7.46827 41.9723 11.2224 41.9783 16.9795L42 33.8311C42.0079 40.1079 38.0645 43.97 31.7436 43.98L16.3038 44C10.0224 44.008 6.02965 40.054 6.02175 33.7591L6.00001 17.1054C5.99213 11.3103 9.50307 7.56622 15.0124 7.06048L15.0104 5.56123C15.0084 4.68167 15.66 4.02 16.5289 4.02C17.3977 4.018 18.0494 4.67767 18.0514 5.55723L18.0533 6.95653L29.7828 6.94054L29.7808 5.54124C29.7788 4.66168 30.4305 4.00201 31.2993 4ZM32.105 32.3838H32.0852C31.1769 32.4058 30.4482 33.1674 30.468 34.0869C30.47 35.0065 31.2026 35.7641 32.1109 35.7841C33.037 35.7821 33.7874 35.0205 33.7854 34.0809C33.7854 33.1414 33.0331 32.3838 32.105 32.3838ZM15.8338 32.3858C14.9255 32.4258 14.2146 33.1874 14.2166 34.1069C14.258 35.0265 15.0084 35.7461 15.9167 35.7041C16.8073 35.6642 17.5162 34.9025 17.4748 33.983C17.455 33.0834 16.7224 32.3838 15.8338 32.3858ZM23.9694 32.3758C23.0611 32.4178 22.3522 33.1774 22.3522 34.0969C22.3936 35.0165 23.144 35.7341 24.0523 35.6941C24.9409 35.6522 25.6518 34.8925 25.6103 33.971C25.5906 33.0734 24.858 32.3738 23.9694 32.3758ZM15.8239 25.1894C14.9156 25.2294 14.2067 25.991 14.2087 26.9105C14.2482 27.8301 15.0005 28.5497 15.9088 28.5077C16.7974 28.4678 17.5063 27.7061 17.4649 26.7866C17.4451 25.887 16.7145 25.1874 15.8239 25.1894ZM23.9615 25.1194C23.0532 25.1594 22.3423 25.921 22.3442 26.8406C22.3837 27.7601 23.1361 28.4777 24.0444 28.4378C24.933 28.3958 25.6419 27.6362 25.6024 26.7166C25.5807 25.8171 24.8501 25.1174 23.9615 25.1194ZM32.0971 25.1294C31.1887 25.1494 30.4779 25.889 30.4798 26.8086V26.8306C30.4996 27.7501 31.25 28.4478 32.1603 28.4278C33.0489 28.4058 33.7578 27.6442 33.738 26.7246C33.6965 25.8451 32.9837 25.1274 32.0971 25.1294ZM29.7867 10.019L18.0573 10.035L18.0592 11.6522C18.0592 12.5137 17.4096 13.1934 16.5407 13.1934C15.6719 13.1954 15.0183 12.5177 15.0183 11.6562L15.0163 10.1169C11.1657 10.5028 9.03507 12.7656 9.04098 17.1014L9.04297 17.7231L38.9393 17.6832V16.9835C38.8543 12.6857 36.698 10.4308 32.8277 10.095L32.8297 11.6342C32.8297 12.4938 32.1603 13.1754 31.3112 13.1754C30.4423 13.1774 29.7887 12.4978 29.7887 11.6382L29.7867 10.019Z" fill="#200E32"/>
</svg>
