<svg width="48" height="48" viewBox="0 0 48 48" fill="none" xmlns="http://www.w3.org/2000/svg">
<path d="M31.4652 4C32.1662 4 32.7455 4.52494 32.8372 5.20601L32.8498 5.39535L32.85 6.97253C38.5361 7.36242 42.0179 11.0378 41.9999 16.9716V33.9489C41.9999 40.2385 38.0906 44 31.8073 44H16.1925C9.91668 44 6 40.1745 6 33.8081V16.9716C6 11.0399 9.49303 7.36354 15.1669 6.9727L15.1671 5.39535C15.1671 4.62472 15.787 4 16.5517 4C17.2526 4 17.832 4.52494 17.9236 5.20601L17.9363 5.39535L17.936 6.938H30.08L30.0806 5.39535C30.0806 4.62472 30.7005 4 31.4652 4ZM39.23 20.566H8.768L8.76922 33.8081C8.76922 38.4583 11.2583 41.0395 15.7379 41.2012L16.1925 41.2093H31.8073C36.5891 41.2093 39.2307 38.6676 39.2307 33.9489L39.23 20.566ZM32.2178 32.272C32.9825 32.272 33.6024 32.8968 33.6024 33.6674C33.6024 34.3738 33.0815 34.9576 32.4056 35.05L32.2178 35.0627C31.436 35.0627 30.816 34.438 30.816 33.6674C30.816 32.961 31.3369 32.3772 32.0128 32.2848L32.2178 32.272ZM24.0256 32.272C24.7903 32.272 25.4102 32.8968 25.4102 33.6674C25.4102 34.3738 24.8893 34.9576 24.2134 35.05L24.0256 35.0627C23.2438 35.0627 22.6238 34.438 22.6238 33.6674C22.6238 32.961 23.1447 32.3772 23.8206 32.2848L24.0256 32.272ZM15.8162 32.272C16.5809 32.272 17.2009 32.8968 17.2009 33.6674C17.2009 34.3738 16.68 34.9576 16.0041 35.05L15.7991 35.0627C15.0344 35.0627 14.4145 34.438 14.4145 33.6674C14.4145 32.961 14.9354 32.3772 15.6113 32.2848L15.8162 32.272ZM32.2178 25.0413C32.9825 25.0413 33.6024 25.666 33.6024 26.4366C33.6024 27.143 33.0815 27.7269 32.4056 27.8192L32.2178 27.832C31.436 27.832 30.816 27.2073 30.816 26.4366C30.816 25.7302 31.3369 25.1464 32.0128 25.054L32.2178 25.0413ZM24.0256 25.0413C24.7903 25.0413 25.4102 25.666 25.4102 26.4366C25.4102 27.143 24.8893 27.7269 24.2134 27.8192L24.0256 27.832C23.2438 27.832 22.6238 27.2073 22.6238 26.4366C22.6238 25.7302 23.1447 25.1464 23.8206 25.054L24.0256 25.0413ZM15.8162 25.0413C16.5809 25.0413 17.2009 25.666 17.2009 26.4366C17.2009 27.143 16.68 27.7269 16.0041 27.8192L15.7991 27.832C15.0344 27.832 14.4145 27.2073 14.4145 26.4366C14.4145 25.7302 14.9354 25.1464 15.6113 25.054L15.8162 25.0413ZM30.08 9.728H17.936L17.9363 11.5177C17.9363 12.2884 17.3164 12.9131 16.5517 12.9131C15.8507 12.9131 15.2714 12.3881 15.1797 11.7071L15.1671 11.5177L15.1651 9.77042C11.0378 10.1167 8.76922 12.6132 8.76922 16.9716L8.768 17.774H39.23L39.2307 16.9673C39.2439 12.6055 36.987 10.1142 32.8499 9.76999L32.8498 11.5177C32.8498 12.2884 32.2299 12.9131 31.4652 12.9131C30.7643 12.9131 30.1849 12.3881 30.0933 11.7071L30.0806 11.5177L30.08 9.728Z" fill="#200E32"/>
</svg>
