<svg width="48" height="48" viewBox="0 0 48 48" fill="none" xmlns="http://www.w3.org/2000/svg">
<path d="M31.7254 4C38.1174 4 41.9394 7.84 41.9994 14.264V33.582C41.9994 40.096 38.1674 44 31.7254 44H16.2754C15.4514 44 14.6694 43.936 13.9334 43.81L13.4974 43.728C8.75539 42.742 5.99939 39.11 5.99939 33.582V14.418C5.99939 13.75 6.03939 13.11 6.11939 12.498C6.81739 7.128 10.5074 4 16.2754 4H31.7254ZM31.7074 6.914H16.2754C11.3634 6.914 8.87339 9.44 8.87339 14.418V33.582C8.87339 38.56 11.3634 41.086 16.2754 41.086H31.7074C36.6174 41.086 39.0914 38.56 39.0914 33.582V14.418C39.0914 9.44 36.6174 6.914 31.7074 6.914ZM31.1854 31.02C31.9734 31.02 32.6114 31.668 32.6114 32.468C32.6114 33.268 31.9734 33.916 31.1854 33.916H16.7634C15.9754 33.916 15.3354 33.268 15.3354 32.468C15.3354 31.668 15.9754 31.02 16.7634 31.02H31.1854ZM31.1854 22.542C31.7354 22.482 32.2734 22.746 32.5674 23.22C32.8614 23.698 32.8614 24.302 32.5674 24.78C32.2734 25.254 31.7354 25.518 31.1854 25.458H16.7634C16.0314 25.374 15.4774 24.748 15.4774 24C15.4774 23.252 16.0314 22.624 16.7634 22.542H31.1854ZM22.2674 14.084C22.9994 14.166 23.5534 14.794 23.5534 15.542C23.5534 16.288 22.9994 16.916 22.2674 16.998H16.7814C16.0474 16.916 15.4934 16.288 15.4934 15.542C15.4934 14.794 16.0474 14.166 16.7814 14.084H22.2674Z" fill="#200E32"/>
</svg>
