
<svg width="48" height="48" viewBox="0 0 48 48" fill="none" xmlns="http://www.w3.org/2000/svg">
<path d="M19.4609 5.57659C22.0009 3.55859 25.5609 3.47859 28.1789 5.33659L28.5009 5.57659L40.6789 15.3186C42.0189 16.3566 42.8409 17.8986 42.9809 19.5766L43.0009 19.9786V36.1966C43.0009 40.3766 39.6989 43.7766 35.5609 43.9966H31.5809C29.6789 43.9586 28.1409 42.4786 28.0009 40.6186L27.9809 40.3366V34.6186C27.9809 33.9966 27.5189 33.4786 26.9009 33.3766L26.7209 33.3566H21.3789C20.7409 33.3766 20.2209 33.8366 20.1409 34.4366L20.1209 34.6186V40.3186C20.1209 40.4366 20.0989 40.5766 20.0809 40.6766L20.0609 40.7186L20.0389 40.8566C19.8009 42.5586 18.4009 43.8566 16.6609 43.9786L16.4009 43.9966H12.8209C8.64085 43.9966 5.22085 40.7186 5.00085 36.5966V19.9786C5.01885 18.2766 5.76085 16.6966 7.00085 15.5966L19.4609 5.57659ZM26.7609 7.75659C25.2409 6.53659 23.0809 6.47859 21.4809 7.53659L21.1789 7.75659L9.01885 17.5586C8.32085 18.0766 7.90085 18.8566 7.80085 19.6766L7.77885 19.9966V36.1966C7.77885 38.8566 9.85885 41.0366 12.5009 41.1966H16.4009C16.8409 41.1966 17.2209 40.8986 17.2789 40.4786L17.3209 40.1186L17.3409 40.0166V34.6186C17.3409 32.4786 18.9809 30.7386 21.0809 30.5766H26.7209C28.8589 30.5766 30.5989 32.2186 30.7609 34.3186V40.3366C30.7609 40.7566 31.0609 41.1186 31.4609 41.1966H35.1789C37.8589 41.1966 40.0389 39.1386 40.1989 36.5166L40.2209 36.1966V19.9966C40.1989 19.1386 39.8409 18.3366 39.2209 17.7386L38.9609 17.5166L26.7609 7.75659Z" fill="#200E32"/>
</svg>
