<svg width="48" height="48" viewBox="0 0 48 48" fill="none" xmlns="http://www.w3.org/2000/svg">
<path d="M19.6601 29.6418C22.5477 29.387 25.4519 29.387 28.3394 29.6418L29.2614 29.7198C30.5224 29.8441 31.7746 30.0387 33.0068 30.3018C36.1474 30.9488 38.4281 32.0965 39.4376 34.2255C40.1875 35.8094 40.1875 37.6482 39.4372 39.2328C38.4252 41.3672 36.1152 42.5245 33.0302 43.1331L32.0955 43.3272C30.8462 43.5669 29.5864 43.7306 28.3351 43.8162C25.9869 44.0161 23.6277 44.0526 21.3521 43.9274C21.1012 43.9274 20.9328 43.9265 20.7845 43.9231L20.496 43.9123C20.1452 43.8944 19.8238 43.8576 19.689 43.8181C18.1057 43.7105 16.533 43.4813 15.0243 43.1409L14.5125 43.0341C11.6556 42.3993 9.53993 41.2541 8.56128 39.2305C8.19064 38.4453 7.99893 37.587 8.00004 36.7254C7.99682 35.8576 8.19009 35.0004 8.57452 34.1997C9.59374 32.1526 11.9884 30.9207 14.9816 30.3041C16.5325 29.9718 18.1047 29.7497 19.6601 29.6418ZM28.0872 32.526C25.3675 32.2861 22.6321 32.2861 19.8859 32.5281C18.4393 32.6287 17.0015 32.8318 15.5721 33.1381C13.3584 33.5941 11.6659 34.4648 11.1624 35.4757C10.977 35.862 10.8815 36.2856 10.8831 36.7219C10.8825 37.1606 10.9793 37.5939 11.1605 37.9779C11.6783 39.0486 13.2755 39.8488 15.6155 40.3074L16.3206 40.4567C17.5014 40.6908 18.7175 40.8521 20.069 40.9542C20.2397 40.9884 20.4238 41.0095 20.6424 41.0207L21.4296 41.0341C23.6499 41.1542 25.8759 41.1199 28.1152 40.9294C29.5583 40.8305 30.992 40.6224 32.439 40.2995L32.889 40.2042C34.944 39.7383 36.3659 38.9757 36.8339 37.9888C37.2114 37.1916 37.2114 36.266 36.8342 35.4696C36.3334 34.4133 34.7502 33.6166 32.4174 33.136C30.9983 32.833 29.5598 32.6299 28.1125 32.528L28.0872 32.526ZM24.0086 4C29.8766 4 34.6336 8.77728 34.6336 14.6703C34.6336 20.5634 29.8766 25.3407 24.0086 25.3407C18.1405 25.3407 13.3835 20.5634 13.3835 14.6703C13.3835 8.77728 18.1405 4 24.0086 4ZM24.0086 6.89534C19.7328 6.89534 16.2666 10.3763 16.2666 14.6703C16.2666 18.9644 19.7328 22.4454 24.0086 22.4454C28.2844 22.4454 31.7506 18.9644 31.7506 14.6703C31.7506 10.3763 28.2844 6.89534 24.0086 6.89534Z" fill="#200E32"/>
</svg>
