<svg width="15" height="14" viewBox="0 0 15 14" fill="none" xmlns="http://www.w3.org/2000/svg">
<path d="M13.6038 6.26539C13.831 6.26539 14.0144 6.08208 14.0144 5.85499V0.410397C14.0144 0.183311 13.831 0 13.6038 0H8.20335C7.97616 0 7.79277 0.183311 7.79277 0.410397V2.7223H6.22984V0.410397C6.22984 0.183311 6.04645 0 5.81926 0H0.41879C0.191603 0 0.00821156 0.183311 0.00821156 0.410397V5.85499C0.00821156 6.08208 0.191603 6.26539 0.41879 6.26539H2.70982V7.73461H0.410578C0.183392 7.73461 0 7.91792 0 8.14501V13.5896C0 13.8167 0.183392 14 0.410578 14H5.81105C6.03823 14 6.22163 13.8167 6.22163 13.5896V11.2777H7.79003V13.5896C7.79003 13.8167 7.97343 14 8.20061 14H13.6038C13.831 14 14.0144 13.8167 14.0144 13.5896V8.14501C14.0144 7.91792 13.831 7.73461 13.6038 7.73461H11.3128V6.26539H13.6038ZM8.61393 0.820793H13.1932V5.4446H8.61393V0.820793ZM0.829368 0.820793H5.40868V5.4446H0.829368V0.820793ZM5.40047 13.1765H0.821156V8.55267H5.40047V13.1765ZM13.1932 13.1765H8.61393V8.55267H13.1932V13.1765ZM10.4916 7.73187H8.20061C7.97343 7.73187 7.79003 7.91518 7.79003 8.14227V10.4542H6.22163V8.14227C6.22163 7.91518 6.03823 7.73187 5.81105 7.73187H3.52823V6.26539H5.81926C6.04645 6.26539 6.22984 6.08208 6.22984 5.85499V3.54309H7.79277V5.85499C7.79277 6.08208 7.97616 6.26539 8.20335 6.26539H10.4944V7.73187H10.4916Z" fill="#8D959E"/>
<path d="M3.52818 4.15868V3.53761H4.15499C4.38218 3.53761 4.56557 3.3543 4.56557 3.12721C4.56557 2.90013 4.38218 2.71682 4.15499 2.71682H3.52818V2.09301C3.52818 1.86593 3.34479 1.68262 3.1176 1.68262C2.89041 1.68262 2.70702 1.86593 2.70702 2.09301V2.71408H2.08294C1.85575 2.71408 1.67236 2.89739 1.67236 3.12448C1.67236 3.35156 1.85575 3.53487 2.08294 3.53487H2.70976V4.15868C2.70976 4.38576 2.89315 4.56907 3.12034 4.56907C3.34752 4.56907 3.52818 4.38576 3.52818 4.15868Z" fill="#8D959E"/>
<path d="M10.4586 9.84409C10.2971 9.6854 10.0371 9.6854 9.87835 9.84409C9.71959 10.0055 9.71959 10.2654 9.87835 10.4241L10.319 10.8646L9.88108 11.3051C9.71959 11.4638 9.71959 11.7237 9.88108 11.8851C9.96046 11.9645 10.0672 12.0055 10.1712 12.0055C10.2752 12.0055 10.382 11.9645 10.4614 11.8851L10.9048 11.4446L11.3482 11.8851C11.4276 11.9645 11.5343 12.0055 11.6384 12.0055C11.7424 12.0055 11.8491 11.9645 11.9285 11.8851C12.0873 11.7237 12.0873 11.4638 11.9285 11.3051L11.4878 10.8646L11.9285 10.4241C12.09 10.2654 12.09 10.0055 11.9285 9.84409C11.7697 9.68267 11.5097 9.68267 11.3482 9.84409L10.9048 10.2846L10.4586 9.84409Z" fill="#8D959E"/>
<path d="M4.14669 10.4541H2.07464C1.84745 10.4541 1.66406 10.6374 1.66406 10.8645C1.66406 11.0916 1.84745 11.2749 2.07464 11.2749H4.14669C4.37388 11.2749 4.55727 11.0916 4.55727 10.8645C4.55727 10.6374 4.37388 10.4541 4.14669 10.4541Z" fill="#8D959E"/>
<path d="M9.87849 4.1532C9.95787 4.23254 10.0646 4.27358 10.1686 4.27358C10.2726 4.27358 10.3794 4.23254 10.4588 4.1532L11.9232 2.69218C12.0847 2.5335 12.0847 2.27358 11.9232 2.11216C11.7644 1.95073 11.5044 1.95073 11.3429 2.11216L9.88123 3.57043C9.71974 3.73186 9.71974 3.99177 9.87849 4.1532Z" fill="#8D959E"/>
<path d="M10.1715 2.82352C10.4042 2.82352 10.5931 2.63473 10.5931 2.40218C10.5931 2.16962 10.4042 1.98083 10.1715 1.98083C9.93887 1.98083 9.75 2.16962 9.75 2.40218C9.75 2.63473 9.93887 2.82352 10.1715 2.82352Z" fill="#8D959E"/>
<path d="M11.6359 4.28458C11.8687 4.28458 12.0574 4.09594 12.0574 3.86324C12.0574 3.63054 11.8687 3.44189 11.6359 3.44189C11.4031 3.44189 11.2144 3.63054 11.2144 3.86324C11.2144 4.09594 11.4031 4.28458 11.6359 4.28458Z" fill="#8D959E"/>
</svg>
