<svg width="16" height="16" viewBox="0 0 16 16" fill="none" xmlns="http://www.w3.org/2000/svg">
<path fill-rule="evenodd" clip-rule="evenodd" d="M13.3332 2H2.6665C1.53317 2 0.666504 2.86667 0.666504 4V12C0.666504 13.1333 1.53317 14 2.6665 14H13.3332C14.4665 14 15.3332 13.1333 15.3332 12V4C15.3332 2.86667 14.4665 2 13.3332 2ZM2.66649 3.33333H13.3332C13.5998 3.33333 13.7998 3.46667 13.9332 3.73333L7.99982 7.86667L2.06649 3.73333C2.19982 3.46667 2.39982 3.33333 2.66649 3.33333ZM2.66651 12.6667H13.3332C13.7332 12.6667 13.9998 12.4001 13.9998 12.0001V5.26671L8.39984 9.20005C8.26651 9.26672 8.13318 9.33338 7.99984 9.33338C7.86651 9.33338 7.73318 9.26672 7.59984 9.20005L1.99984 5.26671V12.0001C1.99984 12.4001 2.26651 12.6667 2.66651 12.6667Z" fill="#8D959E"/>
<mask id="mask0" mask-type="alpha" maskUnits="userSpaceOnUse" x="0" y="2" width="16" height="12">
<path fill-rule="evenodd" clip-rule="evenodd" d="M13.3332 2H2.6665C1.53317 2 0.666504 2.86667 0.666504 4V12C0.666504 13.1333 1.53317 14 2.6665 14H13.3332C14.4665 14 15.3332 13.1333 15.3332 12V4C15.3332 2.86667 14.4665 2 13.3332 2ZM2.66649 3.33333H13.3332C13.5998 3.33333 13.7998 3.46667 13.9332 3.73333L7.99982 7.86667L2.06649 3.73333C2.19982 3.46667 2.39982 3.33333 2.66649 3.33333ZM2.66651 12.6667H13.3332C13.7332 12.6667 13.9998 12.4001 13.9998 12.0001V5.26671L8.39984 9.20005C8.26651 9.26672 8.13318 9.33338 7.99984 9.33338C7.86651 9.33338 7.73318 9.26672 7.59984 9.20005L1.99984 5.26671V12.0001C1.99984 12.4001 2.26651 12.6667 2.66651 12.6667Z" fill="white"/>
</mask>
<g mask="url(#mask0)">
<rect width="16" height="16" fill="#8D959E"/>
</g>
</svg>
