<svg width="16" height="16" viewBox="0 0 16 16" fill="none" xmlns="http://www.w3.org/2000/svg">
<path d="M10.8508 0H2V16L3.40062 15.6469L4.33228 15.8813L5.26394 15.6469L6.19561 15.8813L7.12726 15.6469L8.05893 15.8813L8.99059 15.6469L9.92225 15.8813L10.8539 15.6469L11.7856 15.8813L12.7172 15.6469L14.1179 16V3.25625L10.8508 0ZM11.1259 1.60312L12.5046 2.98125H11.1259V1.60312ZM12.711 14.6781L11.7793 14.9125L10.8477 14.6781L9.916 14.9125L8.98434 14.6781L8.05267 14.9125L7.12101 14.6781L6.18935 14.9125L5.25769 14.6781L4.32603 14.9125L3.39437 14.6781L2.93479 14.7938V0.940625H10.188V3.92188H13.1706V14.7938L12.711 14.6781Z" fill="#8D959E"/>
<path d="M3.88184 8.75928H9.65627V9.6999H3.88184V8.75928Z" fill="#8D959E"/>
<path d="M3.88184 10.6376H9.65627V11.5782H3.88184V10.6376Z" fill="#8D959E"/>
<path d="M3.88184 12.5156H9.65627V13.4563H3.88184V12.5156Z" fill="#8D959E"/>
<path d="M8.05601 3.21875C6.89925 3.21875 5.95508 4.15938 5.95508 5.31875C5.95508 6.47813 6.89612 7.41875 8.05601 7.41875C9.21277 7.41875 10.1569 6.47813 10.1569 5.31875C10.1569 4.15938 9.21277 3.21875 8.05601 3.21875ZM8.05601 6.475C7.4151 6.475 6.89612 5.95625 6.89612 5.31562C6.89612 4.675 7.4151 4.15625 8.05601 4.15625C8.69692 4.15625 9.2159 4.675 9.2159 5.31562C9.2159 5.95625 8.69692 6.475 8.05601 6.475Z" fill="#8D959E"/>
<path d="M10.5942 8.75928H11.5353V9.6999H10.5942V8.75928Z" fill="#8D959E"/>
<path d="M10.5942 10.6376H11.5353V11.5782H10.5942V10.6376Z" fill="#8D959E"/>
<path d="M10.5942 12.5156H11.5353V13.4563H10.5942V12.5156Z" fill="#8D959E"/>
</svg>
