<svg width="16" height="16" viewBox="0 0 16 16" fill="none" xmlns="http://www.w3.org/2000/svg">
<path d="M14.1877 8.42754V8.00004V7.56692L15.2677 6.62192C15.4668 6.44645 15.5974 6.20625 15.6365 5.94377C15.6757 5.68129 15.6207 5.41344 15.4815 5.18754L14.154 2.93755C14.0553 2.76669 13.9135 2.62478 13.7427 2.52606C13.5719 2.42733 13.3781 2.37525 13.1808 2.37505C13.0586 2.37411 12.937 2.39311 12.8208 2.4313L11.454 2.89255C11.218 2.73572 10.9718 2.59479 10.7171 2.47067L10.4302 1.05317C10.3788 0.794198 10.2379 0.561568 10.0322 0.396003C9.82654 0.230438 9.56919 0.142487 9.3052 0.147546H6.6727C6.40872 0.142487 6.15137 0.230438 5.9457 0.396003C5.74003 0.561568 5.59914 0.794198 5.5477 1.05317L5.26083 2.47067C5.00429 2.59476 4.75625 2.73569 4.51833 2.89255L3.17958 2.4088C3.06218 2.37821 2.94061 2.36681 2.81958 2.37505C2.6223 2.37525 2.42853 2.42733 2.25773 2.52606C2.08693 2.62478 1.94509 2.76669 1.84645 2.93755L0.518953 5.18754C0.387658 5.4131 0.33887 5.67729 0.380943 5.93486C0.423017 6.19243 0.553335 6.42737 0.749578 6.59942L1.8127 7.57254V8.43317L0.749578 9.37817C0.547792 9.55142 0.413909 9.79056 0.37169 10.0531C0.32947 10.3157 0.381645 10.5848 0.518953 10.8125L1.84645 13.0625C1.94509 13.2334 2.08693 13.3753 2.25773 13.474C2.42853 13.5728 2.6223 13.6248 2.81958 13.625C2.94184 13.626 3.06343 13.607 3.17958 13.5688L4.54645 13.1075C4.78244 13.2644 5.02861 13.4053 5.28333 13.5294L5.5702 14.9469C5.62164 15.2059 5.76253 15.4385 5.9682 15.6041C6.17387 15.7697 6.43122 15.8576 6.6952 15.8525H9.3502C9.61419 15.8576 9.87154 15.7697 10.0772 15.6041C10.2829 15.4385 10.4238 15.2059 10.4752 14.9469L10.7621 13.5294C11.0186 13.4053 11.2667 13.2644 11.5046 13.1075L12.8658 13.5688C12.982 13.607 13.1036 13.626 13.2258 13.625C13.4231 13.6248 13.6169 13.5728 13.7877 13.474C13.9585 13.3753 14.1003 13.2334 14.199 13.0625L15.4815 10.8125C15.6127 10.587 15.6615 10.3228 15.6195 10.0652C15.5774 9.80765 15.4471 9.57272 15.2508 9.40067L14.1877 8.42754ZM13.1808 12.5L11.2515 11.8475C10.7998 12.2301 10.2836 12.5292 9.72708 12.7307L9.3277 14.75H6.6727L6.27333 12.7532C5.72119 12.5459 5.20779 12.2474 4.75458 11.87L2.81958 12.5L1.49208 10.25L3.02208 8.90004C2.91807 8.31778 2.91807 7.72169 3.02208 7.13942L1.49208 5.75004L2.81958 3.50005L4.74895 4.15254C5.2006 3.76998 5.71679 3.47094 6.27333 3.26942L6.6727 1.25005H9.3277L9.72708 3.24692C10.2792 3.45416 10.7926 3.75269 11.2458 4.13005L13.1808 3.50005L14.5083 5.75004L12.9783 7.10004C13.0823 7.68231 13.0823 8.2784 12.9783 8.86067L14.5083 10.25L13.1808 12.5Z" fill="#8D959E"/>
<path d="M8 11.375C7.33249 11.375 6.67997 11.1771 6.12495 10.8062C5.56994 10.4354 5.13735 9.90826 4.88191 9.29156C4.62646 8.67486 4.55963 7.99626 4.68985 7.34157C4.82008 6.68689 5.14151 6.08552 5.61352 5.61352C6.08552 5.14151 6.68689 4.82008 7.34157 4.68985C7.99626 4.55963 8.67486 4.62646 9.29156 4.88191C9.90826 5.13735 10.4354 5.56994 10.8062 6.12495C11.1771 6.67997 11.375 7.33249 11.375 8C11.3795 8.44447 11.2953 8.88537 11.1273 9.29688C10.9593 9.70839 10.7108 10.0822 10.3965 10.3965C10.0822 10.7108 9.70839 10.9593 9.29688 11.1273C8.88537 11.2953 8.44447 11.3795 8 11.375ZM8 5.75C7.70263 5.74307 7.40695 5.79654 7.13083 5.90716C6.85472 6.01778 6.60391 6.18326 6.39359 6.39359C6.18326 6.60391 6.01778 6.85472 5.90716 7.13083C5.79654 7.40695 5.74307 7.70263 5.75 8C5.74307 8.29737 5.79654 8.59305 5.90716 8.86917C6.01778 9.14528 6.18326 9.39609 6.39359 9.60641C6.60391 9.81674 6.85472 9.98222 7.13083 10.0928C7.40695 10.2035 7.70263 10.2569 8 10.25C8.29737 10.2569 8.59305 10.2035 8.86917 10.0928C9.14528 9.98222 9.39609 9.81674 9.60641 9.60641C9.81674 9.39609 9.98222 9.14528 10.0928 8.86917C10.2035 8.59305 10.2569 8.29737 10.25 8C10.2569 7.70263 10.2035 7.40695 10.0928 7.13083C9.98222 6.85472 9.81674 6.60391 9.60641 6.39359C9.39609 6.18326 9.14528 6.01778 8.86917 5.90716C8.59305 5.79654 8.29737 5.74307 8 5.75Z" fill="#8D959E"/>
</svg>
