<svg width="24" height="24" viewBox="0 0 24 24" fill="none" xmlns="http://www.w3.org/2000/svg">
<path d="M8.63743 24C8.4406 24 8.24845 23.925 8.10785 23.7797C7.92507 23.5969 7.85009 23.3297 7.90633 23.0766L8.9983 18.45C9.03111 18.3141 9.10141 18.1922 9.19983 18.0938L18.7417 8.55003C19.59 7.70159 21.0757 7.69691 21.924 8.55003L23.3393 9.96566C23.7658 10.3875 24.0001 10.9547 24.0001 11.5547C24.0001 12.1547 23.7658 12.7219 23.3393 13.1438L13.7974 22.6875C13.699 22.786 13.5724 22.8563 13.4412 22.8891L8.81553 23.9813C8.7546 23.9954 8.69367 24 8.63743 24ZM10.409 19.0032L9.64505 22.2422L12.8835 21.4782L22.2754 12.0844C22.416 11.9438 22.4957 11.7563 22.4957 11.5547C22.4957 11.3532 22.416 11.1657 22.2754 11.025L20.8601 9.60941C20.5648 9.31878 20.0915 9.31409 19.8009 9.60941L10.409 19.0032Z" fill="#325ECD"/>
<path d="M20.3306 15.8391C20.1385 15.8391 19.9463 15.7641 19.801 15.6188L16.2673 12.0844C15.9721 11.7891 15.9721 11.3157 16.2673 11.0251C16.5626 10.7344 17.0359 10.7298 17.3265 11.0251L20.8602 14.5594C21.1555 14.8548 21.1555 15.3282 20.8602 15.6188C20.7149 15.7641 20.5228 15.8391 20.3306 15.8391Z" fill="#325ECD"/>
<path d="M6.83775 21H2.24957C1.00762 21 0 19.9922 0 18.75V2.25C0 1.00781 1.00762 0 2.24957 0H16.7452C17.9872 0 18.9948 1.00781 18.9948 2.25V6.88125C18.9948 7.29375 18.6573 7.63125 18.2449 7.63125C17.8325 7.63125 17.4951 7.29375 17.4951 6.88125V2.25C17.4951 1.8375 17.1576 1.5 16.7452 1.5H2.24957C1.83715 1.5 1.49971 1.8375 1.49971 2.25V18.75C1.49971 19.1625 1.83715 19.5 2.24957 19.5H6.83775C7.25017 19.5 7.5876 19.8375 7.5876 20.25C7.5876 20.6625 7.25485 21 6.83775 21Z" fill="#325ECD"/>
<path d="M18.2449 6.50163H0.749856C0.337435 6.50163 0 6.16413 0 5.75163C0 5.33912 0.337435 5.00162 0.749856 5.00162H18.2449C18.6573 5.00162 18.9948 5.33912 18.9948 5.75163C18.9948 6.16413 18.662 6.50163 18.2449 6.50163Z" fill="#325ECD"/>
<path d="M14.5659 11.4984H0.749856C0.337435 11.4984 0 11.1609 0 10.7484C0 10.3359 0.337435 9.99838 0.749856 9.99838H14.5659C14.9784 9.99838 15.3158 10.3359 15.3158 10.7484C15.3158 11.1609 14.9831 11.4984 14.5659 11.4984Z" fill="#325ECD"/>
<path d="M9.49973 16.5H0.749856C0.337435 16.5 0 16.1625 0 15.75C0 15.3375 0.337435 15 0.749856 15H9.49973C9.91215 15 10.2496 15.3375 10.2496 15.75C10.2496 16.1625 9.91215 16.5 9.49973 16.5Z" fill="#325ECD"/>
<path d="M9.49973 16.5C9.08731 16.5 8.75002 16.1626 8.75002 15.7501V5.75162C8.75002 5.33912 9.08746 5.00162 9.49988 5.00162C9.9123 5.00162 10.2497 5.33912 10.2497 5.75162L10.2496 15.75C10.2496 16.1625 9.91215 16.5 9.49973 16.5Z" fill="#325ECD"/>
</svg>
