<svg width="24" height="24" viewBox="0 0 24 24" fill="none" xmlns="http://www.w3.org/2000/svg">
<path d="M8.63736 24.0001C8.44053 24.0001 8.24838 23.9251 8.10778 23.7798C7.925 23.597 7.85001 23.3298 7.90625 23.0766L8.99823 18.4501C9.03104 18.3141 9.10134 18.1923 9.19975 18.0938L18.7417 8.55007C19.59 7.70164 21.0756 7.69695 21.9239 8.55007L23.3392 9.9657C23.7657 10.3876 24 10.9548 24 11.5548C24 12.1548 23.7657 12.722 23.3392 13.1438L13.7973 22.6876C13.6989 22.786 13.5724 22.8563 13.4411 22.8891L8.81545 23.9813C8.75453 23.9954 8.6936 24.0001 8.63736 24.0001ZM10.4089 19.0032L9.64498 22.2423L12.8834 21.4782L22.2754 12.0845C22.416 11.9438 22.4956 11.7563 22.4956 11.5548C22.4956 11.3532 22.416 11.1657 22.2754 11.0251L20.86 9.60945C20.5648 9.31882 20.0914 9.31414 19.8008 9.60945L10.4089 19.0032ZM13.263 22.1579H13.2724H13.263Z" fill="#325ECD"/>
<path d="M20.3306 15.8391C20.1385 15.8391 19.9463 15.7641 19.801 15.6188L16.2673 12.0844C15.9721 11.7891 15.9721 11.3157 16.2673 11.025C16.5626 10.7344 17.0359 10.7297 17.3265 11.025L20.8602 14.5594C21.1555 14.8547 21.1555 15.3282 20.8602 15.6188C20.7149 15.7641 20.5228 15.8391 20.3306 15.8391Z" fill="#325ECD"/>
<path d="M6.83775 21H2.24957C1.00762 21 0 19.9922 0 18.75V2.25C0 1.00781 1.00762 0 2.24957 0H16.7452C17.9872 0 18.9948 1.00781 18.9948 2.25V6.88125C18.9948 7.29375 18.6573 7.63125 18.2449 7.63125C17.8325 7.63125 17.4951 7.29375 17.4951 6.88125V2.25C17.4951 1.8375 17.1576 1.5 16.7452 1.5H2.24957C1.83715 1.5 1.49971 1.8375 1.49971 2.25V18.75C1.49971 19.1625 1.83715 19.5 2.24957 19.5H6.83775C7.25017 19.5 7.5876 19.8375 7.5876 20.25C7.5876 20.6625 7.25485 21 6.83775 21Z" fill="#325ECD"/>
<path d="M18.2449 6.50159H0.749856C0.337435 6.50159 0 6.16409 0 5.75159C0 5.33909 0.337435 5.00159 0.749856 5.00159H18.2449C18.6573 5.00159 18.9948 5.33909 18.9948 5.75159C18.9948 6.16409 18.662 6.50159 18.2449 6.50159Z" fill="#325ECD"/>
<path d="M14.5659 11.4984H0.749856C0.337435 11.4984 0 11.1609 0 10.7484C0 10.3359 0.337435 9.99841 0.749856 9.99841H14.5659C14.9784 9.99841 15.3158 10.3359 15.3158 10.7484C15.3158 11.1609 14.9831 11.4984 14.5659 11.4984Z" fill="#325ECD"/>
<path d="M9.49973 16.5H0.749856C0.337435 16.5 0 16.1625 0 15.75C0 15.3375 0.337435 15 0.749856 15H9.49973C9.91215 15 10.2496 15.3375 10.2496 15.75C10.2496 16.1625 9.91215 16.5 9.49973 16.5Z" fill="#325ECD"/>
<path d="M9.49986 16.5C9.08744 16.5 8.75 16.1625 8.75 15.75V5.75159C8.75 5.33909 9.08744 5.00159 9.49986 5.00159C9.91228 5.00159 10.2497 5.33909 10.2497 5.75159V15.75C10.2497 16.1625 9.91228 16.5 9.49986 16.5Z" fill="#325ECD"/>
</svg>
