<svg width="24" height="24" viewBox="0 0 24 24" fill="none" xmlns="http://www.w3.org/2000/svg">
<path d="M8.67188 0C7.01502 0 5.67188 1.34315 5.67188 3V3.99585C5.67188 5.19035 4.85132 6.21511 4.17433 7.19924C3.64237 7.97255 3.41622 8.95797 3.63877 9.95939L4.62363 14.3912C4.75186 14.9682 4.31277 15.5156 3.72165 15.5156C3.32394 15.5156 2.97086 15.7701 2.84509 16.1474L1.86791 19.0789C1.73744 19.4704 1.37114 19.7344 0.958552 19.7344C0.429159 19.7344 0 20.1635 0 20.6929V21.8672C0 23.0451 0.944832 24 2.12275 24C6.41558 24 16.0643 24 21.0089 24C22.6657 24 24 22.6569 24 21V3C24 1.34315 22.6569 0 21 0H8.67188ZM7.07812 7.07812C8.43375 7.07812 9.43828 8.33344 9.14475 9.65438L8.00799 14.7697C7.91114 15.2055 7.52458 15.5156 7.07812 15.5156C6.63167 15.5156 6.24511 15.2055 6.14826 14.7697L5.0115 9.65438C4.71741 8.33086 5.72512 7.07812 7.07812 7.07812ZM3.74879 17.8834C3.9402 17.3092 4.47759 16.9219 5.08288 16.9219H9.07342C9.67871 16.9219 10.2161 17.3092 10.4075 17.8834C10.711 18.794 10.0333 19.7344 9.07342 19.7344H5.08288C4.12303 19.7344 3.44526 18.794 3.74879 17.8834ZM12.7031 21.8672C12.7031 22.2685 12.3778 22.5938 11.9766 22.5938H2.13281C1.73154 22.5938 1.40625 22.2685 1.40625 21.8672C1.40625 21.4659 1.73154 21.1406 2.13281 21.1406H11.9766C12.3778 21.1406 12.7031 21.4659 12.7031 21.8672ZM22.5938 19.5938C22.5938 21.2506 21.2506 22.5938 19.5938 22.5938H15.5391C14.7495 22.5938 14.1094 21.9537 14.1094 21.1641V20.6657C14.1094 20.1513 13.6924 19.7344 13.1781 19.7344C12.7772 19.7344 12.4213 19.4779 12.2945 19.0976L11.3112 16.1474C11.1854 15.7701 10.8323 15.5156 10.4346 15.5156C9.84352 15.5156 9.40444 14.9683 9.53267 14.3912L10.5175 9.95944C10.8434 8.49271 10.2087 7.07823 9.08332 6.29676C8.11581 5.62488 7.07812 4.71698 7.07812 3.53906C7.07812 2.36114 8.03302 1.40625 9.21094 1.40625H19.5938C21.2506 1.40625 22.5938 2.7494 22.5938 4.40625V19.5938Z" fill="#325ECD"/>
</svg>
