<svg width="26" height="26" viewBox="0 0 26 26" fill="none" xmlns="http://www.w3.org/2000/svg">
<path d="M13 23.8333L9.75 20.5833H5.41667C4.22005 20.5833 3.25 19.6133 3.25 18.4167V4.33333C3.25 3.13672 4.22005 2.16667 5.41667 2.16667H20.5833C21.78 2.16667 22.75 3.13672 22.75 4.33333V18.4167C22.75 19.6133 21.78 20.5833 20.5833 20.5833H16.25L13 23.8333ZM5.41667 4.33333V18.4167H10.8333L13 20.5833L15.1667 18.4167H20.5833V4.33333H5.41667ZM17.3333 16.2348H8.66667V15.8167C8.79488 13.5472 10.7296 11.8059 13 11.9167C15.2704 11.8059 17.2051 13.5472 17.3333 15.8167V16.2337V16.2348ZM13 10.8333C12.4194 10.8535 11.8565 10.6317 11.4457 10.2209C11.0349 9.81015 10.8132 9.24725 10.8333 8.66667C10.8135 8.08617 11.0354 7.52346 11.4461 7.11275C11.8568 6.70204 12.4195 6.48015 13 6.5C13.5805 6.48015 14.1432 6.70204 14.5539 7.11275C14.9646 7.52346 15.1865 8.08617 15.1667 8.66667C15.1868 9.24725 14.9651 9.81015 14.5543 10.2209C14.1435 10.6317 13.5806 10.8535 13 10.8333Z" fill="#325ECD"/>
</svg>
