<svg width="28" height="28" viewBox="0 0 28 28" fill="none" xmlns="http://www.w3.org/2000/svg">
<path d="M4.66665 22.1667H2.33331C2.33331 18.3007 5.46732 15.1667 9.33331 15.1667C13.1993 15.1667 16.3333 18.3007 16.3333 22.1667H14C14 19.5893 11.9106 17.5 9.33331 17.5C6.75598 17.5 4.66665 19.5893 4.66665 22.1667ZM22.1666 18.6667H19.8333V15.1667H16.3333V12.8333H19.8333V9.33333H22.1666V12.8333H25.6666V15.1667H22.1666V18.6667ZM9.33331 14C6.75598 14 4.66665 11.9107 4.66665 9.33333C4.66665 6.756 6.75598 4.66666 9.33331 4.66666C11.9106 4.66666 14 6.756 14 9.33333C13.9968 11.9093 11.9093 13.9968 9.33331 14ZM9.33331 7C8.05861 7.00129 7.02085 8.02532 7.00258 9.29989C6.98432 10.5745 7.99231 11.6278 9.26645 11.6656C10.5406 11.7035 11.6093 10.7117 11.6666 9.43833V9.905V9.33333C11.6666 8.04467 10.622 7 9.33331 7Z" fill="#325ECD"/>
</svg>
