<svg width="30" height="30" viewBox="0 0 30 30" fill="none" xmlns="http://www.w3.org/2000/svg">
<path d="M27.3951 12.2126L22.774 4.33832C22.5621 3.97731 22.0987 3.85488 21.7363 4.0642L18.9667 5.66315L16.4721 4.74558C15.6919 4.45862 14.8315 4.5324 14.1116 4.9481L10.3234 7.13519L6.96511 5.19621C6.78657 5.09313 6.57395 5.06687 6.37559 5.12329C6.17734 5.17976 6.01043 5.31413 5.91298 5.49587L1.59043 13.5549C1.39604 13.9174 1.52456 14.3689 1.88085 14.5746L3.59608 15.5649L2.7359 17.0548C2.10586 18.146 2.48108 19.5463 3.57232 20.1764C4.07881 20.4688 4.65177 20.5443 5.1835 20.4326C5.35256 20.9489 5.70447 21.4074 6.21096 21.6998C6.71745 21.9922 7.29042 22.0678 7.82215 21.956C7.9912 22.4723 8.34311 22.9308 8.8496 23.2232C9.3561 23.5156 9.92906 23.5912 10.4608 23.4794C10.6299 23.9958 10.9818 24.4543 11.4883 24.7467C12.5795 25.3767 13.9798 25.0015 14.6099 23.9103L14.7083 23.7398L17.5668 25.3902C18.658 26.0202 20.0583 25.645 20.6884 24.5538C20.8371 24.2962 20.9291 24.0214 20.9696 23.7436C21.9416 23.9996 23.005 23.5882 23.5311 22.6768C23.7123 22.363 23.8099 22.0236 23.8317 21.6843C24.6632 21.7279 25.49 21.3151 25.9341 20.546C26.3782 19.7768 26.3223 18.8543 25.8687 18.156C26.1517 17.9675 26.3968 17.7133 26.578 17.3995C27.1906 16.3384 26.8526 14.9853 25.8302 14.3321L27.2221 13.1862C27.5113 12.9482 27.5846 12.5355 27.3951 12.2126V12.2126ZM14.8733 6.26744C15.2005 6.07844 15.5915 6.04497 15.9463 6.17543L18.7757 7.21614C18.988 7.29419 19.2237 7.27393 19.4195 7.16089L21.8429 5.76171L25.7522 12.4231L24.4236 13.5169L15.2745 8.23466C15.0389 8.09856 14.7485 8.09856 14.5128 8.23466L10.302 10.6658C9.95156 10.8778 9.45888 10.7458 9.26149 10.387C9.04948 10.0366 9.18151 9.5438 9.54028 9.34646L14.8733 6.26744ZM4.33409 18.857C3.97034 18.647 3.84527 18.1803 4.0553 17.8165L5.32483 15.6176C5.53486 15.2539 6.00159 15.1288 6.36534 15.3388C6.72908 15.5489 6.85416 16.0156 6.64412 16.3794L5.37459 18.5782C5.16461 18.942 4.69783 19.0671 4.33409 18.857V18.857ZM6.97273 20.3805C6.60898 20.1704 6.48391 19.7037 6.69394 19.34L8.47128 16.2615C8.68132 15.8977 9.14805 15.7727 9.51179 15.9827C9.87554 16.1927 10.0006 16.6595 9.79058 17.0232L8.01324 20.1017C7.80326 20.4654 7.33648 20.5905 6.97273 20.3805V20.3805ZM9.61137 21.9039C9.24763 21.6939 9.12255 21.2271 9.33258 20.8634L10.6021 18.6645C10.8121 18.3008 11.2789 18.1757 11.6426 18.3857C12.0064 18.5958 12.1314 19.0625 11.9214 19.4262L10.6519 21.6251C10.4419 21.9889 9.97517 22.1139 9.61137 21.9039ZM12.2501 23.4274C11.8863 23.2174 11.7612 22.7506 11.9712 22.3868L12.7329 21.0675C12.943 20.7037 13.4098 20.5787 13.7735 20.7887C14.1373 20.9987 14.2623 21.4655 14.0523 21.8292L13.2906 23.1485C13.0806 23.5123 12.6139 23.6374 12.2501 23.4274ZM24.6149 19.7842C24.4049 20.148 23.9381 20.2731 23.5744 20.063L19.6164 17.7779C19.2521 17.5675 18.7862 17.6924 18.5759 18.0567C18.3655 18.421 18.4904 18.8868 18.8547 19.0972L21.9331 20.8745C22.2968 21.0845 22.4219 21.5513 22.2119 21.915C22.0018 22.2788 21.5351 22.4038 21.1714 22.1938L18.093 20.4165C17.7287 20.2061 17.2628 20.331 17.0524 20.6953C16.8421 21.0596 16.9669 21.5254 17.3312 21.7358L19.0904 22.7514C19.4541 22.9614 19.5792 23.4281 19.3691 23.7919C19.1591 24.1556 18.6924 24.2807 18.3286 24.0707L15.4623 22.4158C15.9595 21.354 15.569 20.0661 14.5353 19.4692C14.2214 19.2881 13.882 19.1904 13.5427 19.1686C13.5863 18.3371 13.1736 17.5103 12.4044 17.0662C12.0906 16.885 11.7511 16.7874 11.4119 16.7656C11.4555 15.9341 11.0427 15.1073 10.2735 14.6632C9.50433 14.2191 8.58194 14.275 7.88364 14.7286C7.69514 14.4456 7.44088 14.2005 7.12705 14.0193C6.24874 13.5122 5.17055 13.6568 4.45459 14.3013L3.28195 13.6244L6.88402 6.90856L8.79999 8.01477L8.77856 8.02717C8.24998 8.33236 7.87186 8.82514 7.71383 9.41471C7.5559 10.0043 7.63695 10.6201 7.94214 11.1487C8.24734 11.6773 8.74012 12.0554 9.32969 12.2134C9.91926 12.3713 10.5351 12.2903 11.0637 11.9851L14.8936 9.77389L24.9799 15.5973C25.3437 15.8073 25.4687 16.274 25.2587 16.6378C25.0487 17.0015 24.5819 17.1266 24.2182 16.9166L21.1398 15.1392C20.7755 14.9289 20.3096 15.0537 20.0993 15.418C19.8889 15.7823 20.0138 16.2482 20.3781 16.4585L24.3361 18.7437C24.6998 18.9537 24.8249 19.4205 24.6149 19.7842V19.7842Z" fill="#325ECD"/>
</svg>
