<svg width="24" height="24" viewBox="0 0 24 24" fill="none" xmlns="http://www.w3.org/2000/svg">
<path d="M19.3711 9.04687C20.2227 8.64844 20.8125 7.78906 20.8125 6.78906C20.8125 5.41406 19.6953 4.29687 18.3203 4.29687C16.9453 4.29687 15.8281 5.41406 15.8281 6.78906C15.8281 7.78906 16.4219 8.65234 17.2734 9.05078C16.6875 9.22656 16.1523 9.54688 15.7188 9.99219C15.1758 8.96484 14.2344 8.21875 13.1406 7.91016C14.2656 7.45703 15.0586 6.35156 15.0586 5.07031C15.0664 3.375 13.6914 2 12 2C10.3086 2 8.93359 3.375 8.93359 5.06641C8.93359 6.35156 9.72656 7.45312 10.8516 7.90625C9.75781 8.21875 8.82031 8.96094 8.27344 9.98828C7.83984 9.54297 7.30469 9.22266 6.71875 9.04687C7.57031 8.65234 8.16406 7.78906 8.16406 6.78516C8.16406 5.41016 7.04688 4.29297 5.67188 4.29297C4.29687 4.29297 3.17969 5.41016 3.17969 6.78516C3.17969 7.78516 3.76953 8.64844 4.62109 9.04297C3.10937 9.49609 2 10.8906 2 12.5352V15.4102C2 15.832 2.34375 16.1758 2.76563 16.1758H3.21875L3.72656 21.3086C3.76563 21.7031 4.09375 22 4.48828 22H6.82422C7.21875 22 7.54688 21.7031 7.58594 21.3086L8.09375 16.1758H9.66406L10.0859 21.2969C10.1172 21.6914 10.4531 22 10.8516 22H13.1523C13.5469 22 13.8828 21.6914 13.918 21.2969L14.3398 16.1758H15.9102L16.418 21.3086C16.457 21.7031 16.7852 22 17.1797 22H19.5156C19.9102 22 20.2383 21.7031 20.2773 21.3086L20.7852 16.1758H21.2383C21.6602 16.1758 22.0039 15.832 22.0039 15.4102V12.5352C22 10.8906 20.8906 9.49609 19.3711 9.04687ZM5.67969 5.83203C6.20703 5.83203 6.63672 6.26172 6.63672 6.78906C6.63672 7.31641 6.20703 7.74609 5.67969 7.74609C5.15234 7.74609 4.72266 7.31641 4.72266 6.78906C4.72266 6.26172 5.14844 5.83203 5.67969 5.83203ZM12 3.53125C12.8438 3.53125 13.5313 4.21875 13.5313 5.0625C13.5313 5.90625 12.8438 6.59375 12 6.59375C11.1562 6.59375 10.4688 5.90625 10.4688 5.0625C10.4688 4.21875 11.1562 3.53125 12 3.53125ZM18.3203 5.83203C18.8477 5.83203 19.2773 6.26172 19.2773 6.78906C19.2773 7.31641 18.8477 7.74609 18.3203 7.74609C17.793 7.74609 17.3633 7.31641 17.3633 6.78906C17.3633 6.26172 17.793 5.83203 18.3203 5.83203ZM20.4687 12.5352V14.6406H20.0859C19.6914 14.6406 19.3633 14.9375 19.3242 15.332L18.8164 20.4648H17.8672L17.3594 15.332C17.3203 14.9375 16.9922 14.6406 16.5977 14.6406H16.2148V12.5352C16.2148 11.375 17.1602 10.4297 18.3203 10.4297C19.5039 10.4297 20.4687 11.375 20.4687 12.5352ZM12 12.7266C12.4219 12.7266 12.7656 12.3828 12.7656 11.9609V9.39062C13.8906 9.72656 14.6797 10.7695 14.6797 11.9609V14.6445H13.625C13.2305 14.6445 12.8945 14.9531 12.8594 15.3477L12.4375 20.4687H11.5508L11.1289 15.3477C11.0977 14.9531 10.7617 14.6445 10.3633 14.6445H9.30859V11.9609C9.30859 10.7695 10.1016 9.72656 11.2227 9.39062V11.9609C11.2344 12.3828 11.5781 12.7266 12 12.7266ZM7.78516 12.5352V14.6406H7.40234C7.00781 14.6406 6.67969 14.9375 6.64063 15.332L6.13281 20.4648H5.18359L4.67578 15.332C4.63672 14.9375 4.30859 14.6406 3.91406 14.6406H3.53125V12.5352C3.53125 11.375 4.49219 10.4297 5.67578 10.4297C6.83984 10.4297 7.78516 11.375 7.78516 12.5352Z" fill="#325ECD"/>
</svg>
