<svg width="24" height="24" viewBox="0 0 24 24" fill="none" xmlns="http://www.w3.org/2000/svg">
<circle cx="6.5" cy="17.5" r="3.5" fill="white"/>
<path d="M5.99998 6L11.5 2.5H13C13 2.5 16.5428 7.22374 18.0399 8.28853C18.0399 8.28853 18.3993 8.16952 18.5 8C18.663 8.10896 18.3995 8.5 18.5 8.5C18.5986 8.5 18.6827 8.5146 18.754 8.54091C19.4062 8.78134 19 10 19 10L18 21L17.5 15L13 11.5C13 11.5 4.99998 10 5.49998 8.25C5.99998 6.5 5.99998 6 5.99998 6Z" fill="white"/>
<path d="M12 2.39999V7.79999C12 8.27738 12.1896 8.73522 12.5272 9.07279C12.8648 9.41035 13.3226 9.59999 13.8 9.59999H19.2V19.8C19.2 20.2774 19.0103 20.7352 18.6728 21.0728C18.3352 21.4104 17.8774 21.6 17.4 21.6H11.6916C12.5878 20.5147 13.1136 19.1712 13.1922 17.7659C13.2708 16.3605 12.898 14.9669 12.1283 13.7884C11.3586 12.6099 10.2323 11.7084 8.91391 11.2155C7.5955 10.7225 6.15403 10.664 4.79999 11.0484V4.19999C4.79999 3.7226 4.98963 3.26477 5.3272 2.9272C5.66476 2.58964 6.1226 2.39999 6.59999 2.39999H12Z" fill="#B69580"/>
<path d="M13.2 2.7V7.8C13.2 7.95913 13.2632 8.11174 13.3757 8.22426C13.4883 8.33678 13.6409 8.4 13.8 8.4H18.9L13.2 2.7Z" fill="#CBAB97"/>
<path d="M12 17.4C12 18.8322 11.4311 20.2057 10.4184 21.2184C9.40569 22.2311 8.03218 22.8 6.60001 22.8C5.16784 22.8 3.79433 22.2311 2.78164 21.2184C1.76894 20.2057 1.20001 18.8322 1.20001 17.4C1.20001 15.9678 1.76894 14.5943 2.78164 13.5816C3.79433 12.5689 5.16784 12 6.60001 12C8.03218 12 9.40569 12.5689 10.4184 13.5816C11.4311 14.5943 12 15.9678 12 17.4V17.4ZM7.20001 15C7.20001 14.8409 7.1368 14.6883 7.02428 14.5757C6.91175 14.4632 6.75914 14.4 6.60001 14.4C6.44088 14.4 6.28827 14.4632 6.17575 14.5757C6.06323 14.6883 6.00001 14.8409 6.00001 15V16.8H4.20001C4.04088 16.8 3.88827 16.8632 3.77575 16.9757C3.66323 17.0883 3.60001 17.2409 3.60001 17.4C3.60001 17.5591 3.66323 17.7117 3.77575 17.8243C3.88827 17.9368 4.04088 18 4.20001 18H6.00001V19.8C6.00001 19.9591 6.06323 20.1117 6.17575 20.2243C6.28827 20.3368 6.44088 20.4 6.60001 20.4C6.75914 20.4 6.91175 20.3368 7.02428 20.2243C7.1368 20.1117 7.20001 19.9591 7.20001 19.8V18H9.00001C9.15914 18 9.31175 17.9368 9.42428 17.8243C9.5368 17.7117 9.60001 17.5591 9.60001 17.4C9.60001 17.2409 9.5368 17.0883 9.42428 16.9757C9.31175 16.8632 9.15914 16.8 9.00001 16.8H7.20001V15Z" fill="#CBAB97"/>
</svg>
