<svg width="11" height="6" viewBox="0 0 11 6" fill="none" xmlns="http://www.w3.org/2000/svg">
<path d="M7.71785 0.238085C7.29705 -0.119617 6.66596 -0.0684708 6.30825 0.352323C5.95055 0.773117 6.0017 1.40421 6.42249 1.76192L7.71785 0.238085ZM8.77524 3.7619C9.19604 4.11961 9.82713 4.06846 10.1848 3.64767C10.5425 3.22687 10.4914 2.59577 10.0706 2.23807L8.77524 3.7619ZM10.0706 3.76192C10.4914 3.40421 10.5425 2.77312 10.1848 2.35232C9.82713 1.93153 9.19604 1.88038 8.77524 2.23808L10.0706 3.76192ZM6.42249 4.23807C6.0017 4.59577 5.95055 5.22687 6.30825 5.64767C6.66596 6.06846 7.29705 6.11961 7.71785 5.7619L6.42249 4.23807ZM9.42293 3.99997C9.97522 3.99997 10.4229 3.55226 10.4229 2.99997C10.4229 2.44769 9.97522 1.99997 9.42293 1.99997V3.99997ZM1.0576 1.99997C0.505312 1.99997 0.0575968 2.44769 0.0575968 2.99997C0.0575968 3.55226 0.505312 3.99997 1.0576 3.99997V1.99997ZM6.42249 1.76192L8.77524 3.7619L10.0706 2.23807L7.71785 0.238085L6.42249 1.76192ZM8.77524 2.23808L6.42249 4.23807L7.71785 5.7619L10.0706 3.76192L8.77524 2.23808ZM9.42293 1.99997H1.0576V3.99997H9.42293V1.99997Z" fill="white"/>
</svg>
