<svg width="26" height="26" viewBox="0 0 26 26" fill="none" xmlns="http://www.w3.org/2000/svg">
<path d="M18.0637 9.87585C18.1758 9.77136 18.2662 9.64582 18.3297 9.5064C18.3933 9.36697 18.4288 9.2164 18.4341 9.06326C18.4395 8.91013 18.4146 8.75744 18.361 8.61392C18.3073 8.47039 18.2259 8.33884 18.1215 8.22676C18.017 8.11469 17.8914 8.0243 17.752 7.96074C17.6126 7.89719 17.462 7.86171 17.3089 7.85635C17.1557 7.85099 17.0031 7.87584 16.8595 7.92949C16.716 7.98313 16.5844 8.06452 16.4724 8.16901L13.0587 11.3517L9.87604 7.93685C9.66309 7.71873 9.37322 7.59263 9.06847 7.58552C8.76372 7.57842 8.46829 7.69087 8.2454 7.89882C8.02251 8.10677 7.88986 8.3937 7.87584 8.69821C7.86182 9.00272 7.96754 9.30063 8.17038 9.52818L11.353 12.9418L7.93821 16.1245C7.82218 16.2279 7.72799 16.3535 7.66116 16.4939C7.59434 16.6342 7.55624 16.7865 7.54909 16.9417C7.54194 17.097 7.56589 17.2522 7.61953 17.398C7.67317 17.5439 7.75543 17.6776 7.86146 17.7913C7.9675 17.9049 8.09518 17.9962 8.237 18.0599C8.37882 18.1235 8.53192 18.1581 8.68732 18.1618C8.84271 18.1654 8.99727 18.1379 9.1419 18.081C9.28653 18.024 9.41832 17.9388 9.52954 17.8302L12.9432 14.6487L16.1259 18.0623C16.2286 18.1805 16.3541 18.2768 16.4949 18.3454C16.6357 18.4141 16.7888 18.4537 16.9452 18.4619C17.1016 18.47 17.258 18.4467 17.4052 18.3931C17.5524 18.3396 17.6872 18.2569 17.8018 18.1501C17.9163 18.0433 18.0082 17.9146 18.0719 17.7715C18.1357 17.6285 18.1699 17.474 18.1727 17.3175C18.1755 17.1609 18.1467 17.0053 18.0881 16.8601C18.0295 16.7149 17.9422 16.583 17.8315 16.4722L14.65 13.0585L18.0637 9.87585V9.87585Z" fill="#B5BAC9"/>
<path fill-rule="evenodd" clip-rule="evenodd" d="M0.166992 13.0001C0.166992 5.91258 5.91282 0.166748 13.0003 0.166748C20.0878 0.166748 25.8337 5.91258 25.8337 13.0001C25.8337 20.0876 20.0878 25.8334 13.0003 25.8334C5.91282 25.8334 0.166992 20.0876 0.166992 13.0001ZM13.0003 23.5001C11.6214 23.5001 10.2561 23.2285 8.98215 22.7008C7.70823 22.1731 6.55072 21.3997 5.5757 20.4247C4.60069 19.4497 3.82726 18.2922 3.29959 17.0183C2.77192 15.7443 2.50032 14.379 2.50032 13.0001C2.50032 11.6212 2.77192 10.2558 3.29959 8.9819C3.82726 7.70799 4.60069 6.55047 5.5757 5.57546C6.55072 4.60044 7.70823 3.82702 8.98215 3.29935C10.2561 2.77167 11.6214 2.50008 13.0003 2.50008C15.7851 2.50008 18.4558 3.60633 20.4249 5.57546C22.3941 7.54459 23.5003 10.2153 23.5003 13.0001C23.5003 15.7849 22.3941 18.4556 20.4249 20.4247C18.4558 22.3938 15.7851 23.5001 13.0003 23.5001Z" fill="#B5BAC9"/>
</svg>
