<svg width="24" height="24" viewBox="0 0 24 24" fill="none" xmlns="http://www.w3.org/2000/svg">
<path d="M7 4C7 4 10 2 11.5 2C13 2 14.5 4 18 7.5C21.5 11 6.5 9.5 6.5 9.5L5.5 19.5L7 4Z" fill="white"/>
<path d="M18.0984 11.1024C17.7692 11.199 17.4591 11.3785 17.198 11.6383L11.3686 17.4677C10.8847 17.9518 10.5416 18.5583 10.3757 19.2223L9.96356 20.8694C9.9289 21.0081 9.93072 21.1535 9.96883 21.2914C10.0069 21.4293 10.08 21.5549 10.1811 21.6562C10.2821 21.7575 10.4075 21.8309 10.5453 21.8694C10.6831 21.9079 10.8284 21.9101 10.9673 21.8758L12.6144 21.4637C13.2784 21.2979 13.8849 20.9547 14.369 20.4708L20.2011 14.6387C20.5352 14.3053 20.7486 13.8699 20.8075 13.4016C20.8665 12.9333 20.7675 12.4587 20.5264 12.0529C20.2853 11.6471 19.9157 11.3333 19.4762 11.1612C19.0367 10.989 18.5523 10.9683 18.0997 11.1024H18.0984Z" fill="#CBAB97"/>
<path d="M11.8006 2V6.76039C11.8006 7.301 12.0151 7.81952 12.3971 8.20204C12.7792 8.58457 13.2974 8.79984 13.838 8.80056H18.5984V10.2083C17.8921 10.3306 17.2411 10.6689 16.735 11.1767L10.9042 17.0075C10.2456 17.6659 9.77824 18.491 9.55229 19.3945L9.14154 21.0388H7.04017C6.49908 21.0388 5.98016 20.8239 5.59755 20.4413C5.21495 20.0587 5 19.5398 5 18.9987V4.04017C5 3.49908 5.21495 2.98016 5.59755 2.59755C5.98016 2.21495 6.49908 2 7.04017 2H11.8006Z" fill="#B69580"/>
<path d="M13.158 2.34003V6.76039C13.158 6.94075 13.2296 7.11373 13.3571 7.24126C13.4847 7.3688 13.6577 7.44044 13.838 7.44044H18.2584L13.158 2.34003Z" fill="#CBAB97"/>
</svg>
