<svg width="24" height="24" viewBox="0 0 24 24" fill="none" xmlns="http://www.w3.org/2000/svg">
<path d="M6 6L11.5 2.5H13C13 2.5 16.5428 7.22374 18.04 8.28853C18.04 8.28853 18.3993 8.16952 18.5 8C18.663 8.10896 18.3995 8.5 18.5 8.5C18.5986 8.5 18.6827 8.5146 18.7541 8.54091C19.4062 8.78134 19 10 19 10L18 21L15 17.5L10.0001 9C10.0001 9 6.99994 9.75 7.49994 8C7.99994 6.25 6 6 6 6Z" fill="white"/>
<path d="M12 2.39999V7.79999C12 8.27738 12.1897 8.73522 12.5273 9.07279C12.8648 9.41035 13.3227 9.59999 13.8 9.59999H19.2V19.8C19.2 20.2774 19.0104 20.7352 18.6728 21.0728C18.3353 21.4104 17.8774 21.6 17.4 21.6H9.69165C11 20.5 11.5 20.5 13.1923 17.7659C13.8 15.5 12.6618 14.1618 12 13.5C11 12.5 10.2324 11.7084 8.91397 11.2155C7.59556 10.7225 6.15409 10.664 4.80005 11.0484V4.19999C4.80005 3.7226 4.98969 3.26477 5.32726 2.9272C5.66482 2.58964 6.12266 2.39999 6.60005 2.39999H12Z" fill="#B69580"/>
<path d="M13.2001 2.7V7.8C13.2001 7.95913 13.2633 8.11174 13.3758 8.22426C13.4883 8.33678 13.6409 8.4 13.8001 8.4H18.9001L13.2001 2.7Z" fill="#CBAB97"/>
<circle cx="6.62704" cy="16.7117" r="2.94479" fill="white"/>
<path d="M5.15438 16.5C5.15438 16.91 5.31726 17.3033 5.60719 17.5932C5.89713 17.8831 6.29036 18.046 6.70039 18.046C7.11042 18.046 7.50365 17.8831 7.79358 17.5932C8.08352 17.3033 8.2464 16.91 8.2464 16.5C8.2464 16.09 8.08352 15.6967 7.79358 15.4068C7.50365 15.1169 7.11042 14.954 6.70039 14.954C6.29036 14.954 5.89713 15.1169 5.60719 15.4068C5.31726 15.6967 5.15438 16.09 5.15438 16.5ZM12.6939 16.1439C11.3854 13.3873 9.40729 12 6.7556 12C4.10253 12 2.12585 13.3873 0.817259 16.1452C0.764771 16.2564 0.737549 16.3778 0.737549 16.5007C0.737549 16.6236 0.764771 16.745 0.817259 16.8561C2.12585 19.6127 4.10391 21 6.7556 21C9.40867 21 11.3854 19.6127 12.6939 16.8548C12.8002 16.6311 12.8002 16.3716 12.6939 16.1439ZM6.70039 18.9294C5.35867 18.9294 4.27094 17.8417 4.27094 16.5C4.27094 15.1583 5.35867 14.0706 6.70039 14.0706C8.04211 14.0706 9.12984 15.1583 9.12984 16.5C9.12984 17.8417 8.04211 18.9294 6.70039 18.9294Z" fill="#CBAB97"/>
</svg>
