<svg width="14" height="18" viewBox="0 0 14 18" fill="none" xmlns="http://www.w3.org/2000/svg">
<path d="M6.92725 4.48566C6.48224 4.48566 6.04722 4.61762 5.67721 4.86485C5.3072 5.11208 5.01882 5.46349 4.84852 5.87462C4.67822 6.28575 4.63366 6.73815 4.72048 7.17461C4.8073 7.61107 5.02159 8.01198 5.33626 8.32665C5.65092 8.64131 6.05184 8.85561 6.48829 8.94242C6.92475 9.02924 7.37715 8.98468 7.78828 8.81439C8.19942 8.64409 8.55082 8.3557 8.79805 7.98569C9.04529 7.61568 9.17725 7.18066 9.17725 6.73566C9.17657 6.13913 8.9393 5.56723 8.51749 5.14542C8.09568 4.72361 7.52378 4.48634 6.92725 4.48566ZM6.92725 7.86066C6.70474 7.86066 6.48724 7.79468 6.30223 7.67106C6.11723 7.54744 5.97303 7.37174 5.88788 7.16618C5.80273 6.96061 5.78045 6.73441 5.82386 6.51618C5.86727 6.29795 5.97442 6.0975 6.13175 5.94016C6.28909 5.78283 6.48954 5.67568 6.70777 5.63227C6.926 5.58886 7.1522 5.61114 7.35777 5.69629C7.56333 5.78144 7.73903 5.92563 7.86265 6.11064C7.98627 6.29565 8.05225 6.51315 8.05225 6.73566C8.0519 7.03392 7.93327 7.31987 7.72236 7.53077C7.51146 7.74168 7.22551 7.86031 6.92725 7.86066Z" fill="#325ECD"/>
<path d="M11.2505 2.40875C10.1815 1.34001 8.75447 0.705138 7.24489 0.62666C5.73532 0.548182 4.25019 1.03166 3.07612 1.98379C1.90206 2.93591 1.12229 4.28918 0.887326 5.78242C0.652359 7.27566 0.978845 8.803 1.80377 10.0697L6.05441 16.5951C6.149 16.7403 6.27834 16.8596 6.43069 16.9422C6.58305 17.0248 6.7536 17.0681 6.9269 17.0681C7.1002 17.0681 7.27075 17.0248 7.42311 16.9422C7.57546 16.8596 7.7048 16.7403 7.79939 16.5951L12.0502 10.0697C12.8156 8.89465 13.1539 7.49223 13.0083 6.09746C12.8627 4.70269 12.2421 3.40036 11.2505 2.40875ZM11.1076 9.45561L6.92692 15.8734L2.74624 9.45561C1.46655 7.49111 1.74102 4.86212 3.39885 3.20423C3.86215 2.7409 4.41219 2.37338 5.01753 2.12263C5.62288 1.87188 6.27169 1.74282 6.92692 1.74282C7.58214 1.74282 8.23095 1.87188 8.8363 2.12263C9.44165 2.37338 9.99168 2.7409 10.455 3.20423C12.1128 4.86212 12.3872 7.49111 11.1076 9.45561Z" fill="#325ECD"/>
</svg>
