<svg width="18" height="18" viewBox="0 0 18 18" fill="none" xmlns="http://www.w3.org/2000/svg">
<path d="M12.2553 6.99148C12.3274 6.9243 12.3855 6.8436 12.4263 6.75397C12.4672 6.66434 12.49 6.56754 12.4934 6.4691C12.4969 6.37066 12.4809 6.2725 12.4464 6.18024C12.4119 6.08797 12.3596 6.0034 12.2924 5.93135C12.2253 5.8593 12.1446 5.80119 12.0549 5.76034C11.9653 5.71948 11.8685 5.69668 11.7701 5.69323C11.6716 5.68978 11.5735 5.70576 11.4812 5.74025C11.3889 5.77473 11.3044 5.82705 11.2323 5.89423L9.03781 7.94023L6.99181 5.74498C6.85491 5.60476 6.66857 5.52369 6.47266 5.51912C6.27675 5.51456 6.08683 5.58685 5.94354 5.72053C5.80025 5.85421 5.71498 6.03867 5.70597 6.23442C5.69695 6.43018 5.76492 6.62169 5.89531 6.76798L7.94131 8.96248L5.74606 11.0085C5.67147 11.075 5.61092 11.1557 5.56796 11.2459C5.525 11.3361 5.50051 11.434 5.49591 11.5338C5.49131 11.6337 5.50671 11.7334 5.5412 11.8272C5.57568 11.921 5.62856 12.0069 5.69673 12.08C5.76489 12.153 5.84697 12.2117 5.93814 12.2526C6.02931 12.2935 6.12774 12.3158 6.22763 12.3181C6.32753 12.3205 6.42688 12.3028 6.51986 12.2662C6.61284 12.2296 6.69756 12.1748 6.76906 12.105L8.96356 10.0597L11.0096 12.2542C11.0756 12.3302 11.1563 12.3921 11.2468 12.4362C11.3373 12.4803 11.4357 12.5058 11.5363 12.5111C11.6368 12.5163 11.7374 12.5013 11.832 12.4669C11.9266 12.4324 12.0133 12.3793 12.0869 12.3107C12.1606 12.242 12.2196 12.1592 12.2606 12.0673C12.3016 11.9753 12.3236 11.876 12.3254 11.7754C12.3272 11.6747 12.3087 11.5747 12.271 11.4814C12.2333 11.388 12.1772 11.3032 12.1061 11.232L10.0608 9.03748L12.2553 6.99148Z" fill="#CB6464"/>
<path fill-rule="evenodd" clip-rule="evenodd" d="M0.75 9C0.75 4.44375 4.44375 0.75 9 0.75C13.5562 0.75 17.25 4.44375 17.25 9C17.25 13.5562 13.5562 17.25 9 17.25C4.44375 17.25 0.75 13.5562 0.75 9ZM9 15.75C8.11358 15.75 7.23583 15.5754 6.41689 15.2362C5.59794 14.897 4.85382 14.3998 4.22703 13.773C3.60023 13.1462 3.10303 12.4021 2.76381 11.5831C2.42459 10.7642 2.25 9.88642 2.25 9C2.25 8.11358 2.42459 7.23583 2.76381 6.41689C3.10303 5.59794 3.60023 4.85382 4.22703 4.22703C4.85382 3.60023 5.59794 3.10303 6.41689 2.76381C7.23583 2.42459 8.11358 2.25 9 2.25C10.7902 2.25 12.5071 2.96116 13.773 4.22703C15.0388 5.4929 15.75 7.20979 15.75 9C15.75 10.7902 15.0388 12.5071 13.773 13.773C12.5071 15.0388 10.7902 15.75 9 15.75Z" fill="#CB6464"/>
</svg>
