<svg width="12" height="12" viewBox="0 0 12 12" fill="none" xmlns="http://www.w3.org/2000/svg">
<path d="M0.666666 -2.91409e-08L5.33333 -2.33127e-07C7.2 -3.14722e-07 8.66667 1.46871 8.66667 3.33797L8.66667 9.74687L10.8667 7.54381C11.1333 7.27677 11.5333 7.27677 11.8 7.54381C11.9333 7.67733 12 7.81085 12 8.01113C12 8.2114 11.9333 8.34492 11.8 8.47844L8.46667 11.8164C8.4 11.8832 8.33333 11.9499 8.26667 11.9499C8.13333 12.0167 7.93333 12.0167 7.73333 11.9499C7.66667 11.8832 7.6 11.8832 7.53333 11.8164L4.2 8.47844C3.93333 8.2114 3.93333 7.81085 4.2 7.54381C4.46667 7.27677 4.86667 7.27677 5.13333 7.54381L7.33333 9.74687L7.33333 3.33797C7.33333 2.20306 6.46667 1.33519 5.33333 1.33519L0.666666 1.33519C0.266666 1.33519 -4.77846e-07 1.06815 -4.95355e-07 0.667593C-5.12864e-07 0.267037 0.266666 -1.16564e-08 0.666666 -2.91409e-08Z" fill="#2962FF"/>
</svg>
