<svg width="82" height="82" viewBox="0 0 82 82" fill="none" xmlns="http://www.w3.org/2000/svg">
<path d="M39.9385 56.3242C40.823 56.3242 41.54 55.6072 41.54 54.7227C41.54 53.8381 40.823 53.1211 39.9385 53.1211H36.7354C35.8508 53.1211 35.1338 53.8381 35.1338 54.7227C35.1338 55.6072 35.8508 56.3242 36.7354 56.3242H39.9385Z" fill="#5B7ED7"/>
<path d="M39.9385 32.9414C40.823 32.9414 41.54 32.2244 41.54 31.3398C41.54 30.4553 40.823 29.7383 39.9385 29.7383C39.054 29.7383 38.3369 30.4553 38.3369 31.3398C38.3369 32.2244 39.054 32.9414 39.9385 32.9414Z" fill="#5B7ED7"/>
<path d="M50.9092 46.3945C50.0246 46.3945 49.3076 47.1116 49.3076 47.9961V55.5938C49.3076 57.36 47.8707 58.7969 46.1045 58.7969H30.5693C28.8031 58.7969 27.3662 57.36 27.3662 55.5938V27.4062C27.3662 25.64 28.8031 24.2031 30.5693 24.2031H31.6104C32.4949 24.2031 33.2119 23.4861 33.2119 22.6016C33.2119 21.717 32.4949 21 31.6104 21H30.5693C27.0369 21 24.1631 23.8738 24.1631 27.4062V55.5938C24.1631 59.1262 27.0369 62 30.5693 62H46.1045C49.6369 62 52.5107 59.1262 52.5107 55.5938V47.9961C52.5107 47.1116 51.7937 46.3945 50.9092 46.3945Z" fill="#5B7ED7"/>
<path d="M47.5457 21.0098H44.3426C38.1167 21.0098 33.0516 25.7065 33.0516 31.4796C33.0516 33.5347 33.677 35.4876 34.8694 37.1819L33.1683 41.39C32.924 41.9942 33.0703 42.6864 33.5384 43.1401C33.8435 43.4359 34.2453 43.5919 34.6535 43.5919C34.8716 43.5918 35.0915 43.5474 35.2992 43.4557L40.2897 41.2558C41.5157 41.6983 42.7823 41.9368 44.0671 41.9666C44.1566 41.9821 44.2486 41.9902 44.3426 41.9902H47.5457C53.7716 41.9902 58.8367 37.2843 58.8367 31.5V31.4796C58.8367 25.7065 53.7716 21.0098 47.5457 21.0098ZM55.6336 31.5C55.6336 35.5182 52.0053 38.7871 47.5457 38.7871H44.599C44.5155 38.7737 44.4299 38.7667 44.3426 38.7667C43.1639 38.7667 41.9997 38.5249 40.8824 38.0482C40.4747 37.8743 40.0135 37.8771 39.6079 38.0558L37.6162 38.9338L38.1836 37.5301C38.4073 36.9769 38.3049 36.3451 37.9177 35.8909C36.8297 34.6145 36.2547 33.0892 36.2547 31.4796C36.2547 27.4727 39.883 24.2129 44.3426 24.2129H47.5457C52.0053 24.2129 55.6336 27.4727 55.6336 31.4796V31.5Z" fill="#5B7ED7"/>
<path d="M52.0303 32.9414C52.9148 32.9414 53.6318 32.2244 53.6318 31.3398C53.6318 30.4553 52.9148 29.7383 52.0303 29.7383C51.1458 29.7383 50.4287 30.4553 50.4287 31.3398C50.4287 32.2244 51.1458 32.9414 52.0303 32.9414Z" fill="#5B7ED7"/>
<path d="M45.9443 32.9414C46.8289 32.9414 47.5459 32.2244 47.5459 31.3398C47.5459 30.4553 46.8289 29.7383 45.9443 29.7383C45.0598 29.7383 44.3428 30.4553 44.3428 31.3398C44.3428 32.2244 45.0598 32.9414 45.9443 32.9414Z" fill="#5B7ED7"/>
<circle opacity="0.1" cx="41" cy="41" r="41" fill="#2962FF"/>
</svg>
