<svg width="21" height="21" viewBox="0 0 21 21" fill="none" xmlns="http://www.w3.org/2000/svg">
<rect width="21" height="21" rx="4" fill="#CBAB97"/>
<path fill-rule="evenodd" clip-rule="evenodd" d="M7.72784 14.0826C7.72784 13.9596 7.77669 13.8417 7.86363 13.7548C7.95057 13.6678 8.06849 13.619 8.19145 13.619H16.5364C16.6593 13.619 16.7772 13.6678 16.8642 13.7548C16.9511 13.8417 17 13.9596 17 14.0826C17 14.2055 16.9511 14.3235 16.8642 14.4104C16.7772 14.4973 16.6593 14.5462 16.5364 14.5462H8.19145C8.06849 14.5462 7.95057 14.4973 7.86363 14.4104C7.77669 14.3235 7.72784 14.2055 7.72784 14.0826ZM7.72784 10.3737C7.72784 10.2508 7.77669 10.1329 7.86363 10.0459C7.95057 9.95897 8.06849 9.91013 8.19145 9.91013H16.5364C16.6593 9.91013 16.7772 9.95897 16.8642 10.0459C16.9511 10.1329 17 10.2508 17 10.3737C17 10.4967 16.9511 10.6146 16.8642 10.7016C16.7772 10.7885 16.6593 10.8373 16.5364 10.8373H8.19145C8.06849 10.8373 7.95057 10.7885 7.86363 10.7016C7.77669 10.6146 7.72784 10.4967 7.72784 10.3737ZM7.72784 6.66488C7.72784 6.54193 7.77669 6.42401 7.86363 6.33707C7.95057 6.25012 8.06849 6.20128 8.19145 6.20128H16.5364C16.6593 6.20128 16.7772 6.25012 16.8642 6.33707C16.9511 6.42401 17 6.54193 17 6.66488C17 6.78784 16.9511 6.90576 16.8642 6.9927C16.7772 7.07965 16.6593 7.12849 16.5364 7.12849H8.19145C8.06849 7.12849 7.95057 7.07965 7.86363 6.9927C7.77669 6.90576 7.72784 6.78784 7.72784 6.66488Z" fill="white"/>
<path d="M6.76608 5.55999C6.74271 5.50367 6.70845 5.45251 6.66528 5.40944C6.62222 5.36627 6.57106 5.33201 6.51473 5.30864C6.45841 5.28527 6.39803 5.27324 6.33705 5.27324C6.27607 5.27324 6.21569 5.28527 6.15936 5.30864C6.10304 5.33201 6.05188 5.36627 6.00881 5.40944L4.94623 6.47295L4.81086 6.33665C4.76775 6.29355 4.71658 6.25936 4.66026 6.23603C4.60394 6.2127 4.54358 6.20069 4.48262 6.20069C4.42167 6.20069 4.3613 6.2127 4.30499 6.23603C4.24867 6.25936 4.1975 6.29355 4.15439 6.33665C4.11129 6.37976 4.07709 6.43093 4.05377 6.48725C4.03044 6.54357 4.01843 6.60393 4.01843 6.66489C4.01843 6.72584 4.03044 6.78621 4.05377 6.84252C4.07709 6.89884 4.11129 6.95001 4.15439 6.99312L4.618 7.45672C4.66106 7.4999 4.71222 7.53415 4.76855 7.55752C4.82487 7.5809 4.88525 7.59293 4.94623 7.59293C5.00721 7.59293 5.06759 7.5809 5.12392 7.55752C5.18024 7.53415 5.2314 7.4999 5.27446 7.45672L6.66528 6.06591C6.70845 6.02284 6.74271 5.97168 6.76608 5.91536C6.78945 5.85904 6.80148 5.79865 6.80148 5.73767C6.80148 5.67669 6.78945 5.61631 6.76608 5.55999Z" fill="white"/>
<path d="M6.76608 9.26884C6.74271 9.21251 6.70845 9.16135 6.66528 9.11829C6.62222 9.07511 6.57106 9.04086 6.51473 9.01749C6.45841 8.99412 6.39803 8.98209 6.33705 8.98209C6.27607 8.98209 6.21569 8.99412 6.15936 9.01749C6.10304 9.04086 6.05188 9.07511 6.00881 9.11829L4.94623 10.1818L4.81086 10.0455C4.7238 9.95845 4.60574 9.90954 4.48262 9.90954C4.35951 9.90954 4.24144 9.95845 4.15439 10.0455C4.06734 10.1326 4.01843 10.2506 4.01843 10.3737C4.01843 10.4968 4.06734 10.6149 4.15439 10.702L4.618 11.1656C4.66106 11.2087 4.71222 11.243 4.76855 11.2664C4.82487 11.2897 4.88525 11.3018 4.94623 11.3018C5.00721 11.3018 5.06759 11.2897 5.12392 11.2664C5.18024 11.243 5.2314 11.2087 5.27446 11.1656L6.66528 9.77475C6.70845 9.73169 6.74271 9.68053 6.76608 9.62421C6.78945 9.56788 6.80148 9.5075 6.80148 9.44652C6.80148 9.38554 6.78945 9.32516 6.76608 9.26884Z" fill="white"/>
<path d="M6.76608 12.9777C6.74271 12.9214 6.70845 12.8702 6.66528 12.8271C6.62222 12.784 6.57106 12.7497 6.51473 12.7263C6.45841 12.703 6.39803 12.6909 6.33705 12.6909C6.27607 12.6909 6.21569 12.703 6.15936 12.7263C6.10304 12.7497 6.05188 12.784 6.00881 12.8271L4.94623 13.8906L4.81086 13.7543C4.7238 13.6673 4.60574 13.6184 4.48262 13.6184C4.35951 13.6184 4.24144 13.6673 4.15439 13.7543C4.06734 13.8414 4.01843 13.9595 4.01843 14.0826C4.01843 14.2057 4.06734 14.3238 4.15439 14.4108L4.618 14.8744C4.66106 14.9176 4.71222 14.9518 4.76855 14.9752C4.82487 14.9986 4.88525 15.0106 4.94623 15.0106C5.00721 15.0106 5.06759 14.9986 5.12392 14.9752C5.18024 14.9518 5.2314 14.9176 5.27446 14.8744L6.66528 13.4836C6.70845 13.4405 6.74271 13.3894 6.76608 13.3331C6.78945 13.2767 6.80148 13.2163 6.80148 13.1554C6.80148 13.0944 6.78945 13.034 6.76608 12.9777Z" fill="white"/>
</svg>
