<svg width="12" height="12" viewBox="0 0 12 12" fill="none" xmlns="http://www.w3.org/2000/svg">
<path d="M-1.86278e-06 11.3333L-1.5508e-06 6.66667C-1.42601e-06 4.8 1.46871 3.33333 3.33797 3.33333L9.74687 3.33334L7.54381 1.13334C7.27677 0.866669 7.27677 0.466669 7.54381 0.200002C7.67733 0.066669 7.81085 2.38211e-06 8.01113 2.40501e-06C8.21141 2.4279e-06 8.34492 0.066669 8.47844 0.200002L11.8164 3.53334C11.8832 3.6 11.9499 3.66667 11.9499 3.73334C12.0167 3.86667 12.0167 4.06667 11.9499 4.26667C11.8832 4.33333 11.8832 4.4 11.8164 4.46667L8.47844 7.8C8.2114 8.06667 7.81085 8.06667 7.54381 7.8C7.27677 7.53333 7.27677 7.13333 7.54381 6.86667L9.74687 4.66667L3.33797 4.66667C2.20306 4.66667 1.33519 5.53333 1.33519 6.66667L1.33519 11.3333C1.33519 11.7333 1.06815 12 0.667592 12C0.267035 12 -1.88952e-06 11.7333 -1.86278e-06 11.3333Z" fill="#F6F6FA"/>
</svg>
