<svg width="22" height="22" viewBox="0 0 22 22" fill="none" xmlns="http://www.w3.org/2000/svg">
    <path
        d="M18.938 6.99892H20C20.5304 6.99892 21.0391 7.20964 21.4142 7.58471C21.7893 7.95978 22 8.46849 22 8.99892V12.9989C22 13.5294 21.7893 14.0381 21.4142 14.4131C21.0391 14.7882 20.5304 14.9989 20 14.9989H18.938C18.6942 16.9322 17.7533 18.7101 16.2917 19.9989C14.8302 21.2877 12.9486 21.9989 11 21.9989V19.9989C12.5913 19.9989 14.1174 19.3668 15.2426 18.2416C16.3679 17.1163 17 15.5902 17 13.9989V7.99892C17 6.40762 16.3679 4.8815 15.2426 3.75628C14.1174 2.63106 12.5913 1.99892 11 1.99892C9.4087 1.99892 7.88258 2.63106 6.75736 3.75628C5.63214 4.8815 5 6.40762 5 7.99892V14.9989H2C1.46957 14.9989 0.960859 14.7882 0.585786 14.4131C0.210714 14.0381 0 13.5294 0 12.9989V8.99892C0 8.46849 0.210714 7.95978 0.585786 7.58471C0.960859 7.20964 1.46957 6.99892 2 6.99892H3.062C3.30603 5.06582 4.24708 3.2882 5.70857 1.9996C7.17007 0.711003 9.05155 0 11 0C12.9484 0 14.8299 0.711003 16.2914 1.9996C17.7529 3.2882 18.694 5.06582 18.938 6.99892ZM2 8.99892V12.9989H3V8.99892H2ZM19 8.99892V12.9989H20V8.99892H19ZM6.76 14.7839L7.82 13.0879C8.77308 13.685 9.87537 14.0007 11 13.9989C12.1246 14.0007 13.2269 13.685 14.18 13.0879L15.24 14.7839C13.9693 15.5801 12.4995 16.0012 11 15.9989C9.50046 16.0012 8.03074 15.5801 6.76 14.7839Z"
        fill="black" />
</svg>
