<svg width="22" height="22" viewBox="0 0 22 22" fill="none" xmlns="http://www.w3.org/2000/svg">
<path fill-rule="evenodd" clip-rule="evenodd" d="M2.4605 5.80042C0.635434 8.79373 0.512919 12.5224 2.13757 15.6287L2.33789 16.0192C2.50209 16.3264 2.53644 16.6865 2.43329 17.0192C2.14742 17.7784 1.90849 18.5545 1.71784 19.343C1.71784 19.743 1.83231 19.9716 2.26158 19.962C3.0219 19.7941 3.77068 19.5778 4.50332 19.3144C4.81886 19.2275 5.15437 19.2476 5.45725 19.3716C5.73389 19.5049 6.2967 19.8477 6.31578 19.8477C9.99154 21.7805 14.4808 21.2473 17.5998 18.5075C20.7187 15.7677 21.8199 11.39 20.3676 7.5041C18.9153 3.61816 15.2111 1.0306 11.0568 1.00007C7.54687 0.985969 4.28557 2.80711 2.4605 5.80042Z" stroke="#ADAFBB" stroke-width="1.5" stroke-linecap="round" stroke-linejoin="round"/>
</svg>
