<svg width="49" height="49" viewBox="0 0 49 49" fill="none" xmlns="http://www.w3.org/2000/svg">
<path d="M24.5 0.75C11.39 0.75 0.75 11.39 0.75 24.5C0.75 37.61 11.39 48.25 24.5 48.25C37.61 48.25 48.25 37.61 48.25 24.5C48.25 11.39 37.61 0.75 24.5 0.75ZM24.5 43.5C14.0263 43.5 5.5 34.9738 5.5 24.5C5.5 14.0263 14.0263 5.5 24.5 5.5C34.9738 5.5 43.5 14.0263 43.5 24.5C43.5 34.9738 34.9738 43.5 24.5 43.5ZM35.4013 14.0025L19.75 29.6538L13.5988 23.5263L10.25 26.875L19.75 36.375L38.75 17.375L35.4013 14.0025Z" fill="#00FF00"/>
</svg>
