<svg width="18" height="19" viewBox="0 0 18 19" fill="none" xmlns="http://www.w3.org/2000/svg">
<path d="M15.7495 18.015H7.87559C7.25458 18.015 6.72438 17.7953 6.28499 17.3559C5.8456 16.9165 5.62591 16.3863 5.62591 15.7653V14.6405C5.62591 14.3241 5.73429 14.0576 5.95106 13.8408C6.16782 13.624 6.43146 13.5157 6.74196 13.5157C7.05246 13.5157 7.31903 13.624 7.54165 13.8408C7.76428 14.0576 7.87559 14.3212 7.87559 14.6317C7.87559 14.9422 7.98397 15.2088 8.20074 15.4314C8.4175 15.654 8.68407 15.7653 9.00043 15.7653H13.4998C13.8044 15.7653 14.0681 15.654 14.2907 15.4314C14.5133 15.2088 14.6246 14.9451 14.6246 14.6405V3.37452C14.6246 3.06988 14.5133 2.80624 14.2907 2.58362C14.0681 2.36099 13.8044 2.24968 13.4998 2.24968H9.00043C8.68407 2.24968 8.4175 2.36099 8.20074 2.58362C7.98397 2.80624 7.87559 3.0728 7.87559 3.38331C7.87559 3.69381 7.76428 3.96037 7.54165 4.183C7.31903 4.40562 7.05246 4.51693 6.74196 4.51693C6.43146 4.51693 6.16782 4.40562 5.95106 4.183C5.73429 3.96037 5.62591 3.69088 5.62591 3.37452V2.24968C5.62591 1.62867 5.8456 1.09848 6.28499 0.659086C6.72438 0.219695 7.25458 0 7.87559 0H15.7495C16.3705 0 16.9007 0.219695 17.3401 0.659086C17.7794 1.09848 17.9991 1.62867 17.9991 2.24968V15.7653C17.9991 16.3863 17.7794 16.9165 17.3401 17.3559C16.9007 17.7953 16.3705 18.015 15.7495 18.015ZM12.3749 6.74904C12.6796 6.74904 12.9432 6.86035 13.1658 7.08298C13.3885 7.3056 13.4998 7.56923 13.4998 7.87388V10.1411C13.4998 10.4458 13.3885 10.7094 13.1658 10.932C12.9432 11.1547 12.6796 11.266 12.3749 11.266H4.50107V13.0411C4.50107 13.17 4.42198 13.2813 4.2638 13.375C4.10562 13.4688 3.91814 13.5098 3.70138 13.4981C3.48461 13.4864 3.31178 13.4161 3.1829 13.2872L0.31807 9.77205C0.107163 9.56114 0.00170898 9.30629 0.00170898 9.00751C0.00170898 8.70872 0.107163 8.45387 0.31807 8.24297L3.1829 4.72784C3.31178 4.59895 3.48461 4.53158 3.70138 4.52572C3.91814 4.51986 4.10562 4.5638 4.2638 4.65754C4.42198 4.75128 4.50107 4.86845 4.50107 5.00905V6.74904H12.3749Z" fill="#C5C9D3"/>
</svg>
