<svg width="20" height="16" viewBox="0 0 20 16" fill="none" xmlns="http://www.w3.org/2000/svg">
<path d="M18 0H2C0.9 0 0 0.9 0 2V14C0 15.1 0.9 16 2 16H18C19.1 16 20 15.1 20 14V2C20 0.9 19.1 0 18 0ZM18 14H2V2H18V14Z" fill="#325ECD"/>
<path d="M4.49001 6.5V11H5.64001V5H4.77001L3.01001 6.27L3.59001 7.16L4.49001 6.5Z" fill="#325ECD"/>
<path d="M9.47006 6.0499C9.97006 6.0499 10.2801 6.3699 10.2801 6.7699C10.2801 7.1399 10.1401 7.4099 9.74006 7.8299C9.38006 8.2099 8.68006 8.90989 7.61006 9.9799V10.9999H11.5001V10.0099H9.13006L9.10006 9.9599C9.78006 9.2799 10.2501 8.8199 10.5001 8.5699C11.1101 7.9699 11.4201 7.3499 11.4201 6.7099C11.4201 6.4699 11.3701 5.6699 10.5101 5.2299C10.0401 4.9999 9.25006 4.8699 8.56006 5.1999C7.74006 5.5899 7.57006 6.3299 7.56006 6.3499L8.57006 6.7699C8.67006 6.4399 8.95006 6.0499 9.47006 6.0499Z" fill="#325ECD"/>
<path d="M14.9899 9.94C14.1599 9.94 13.9999 9.18 13.9699 9.08L12.9399 9.49C13.3899 11.08 14.9499 11 14.9899 11C16.1899 11 16.6699 10.28 16.7499 10.15C17.0699 9.66 17.1099 8.91 16.7399 8.39C16.5699 8.15 16.3399 7.98 16.0599 7.87V7.8C16.2599 7.7 16.4299 7.54 16.5799 7.32C16.8399 6.91 16.8899 6.25 16.5599 5.75C16.4799 5.64 16.0299 5 14.9399 5C13.6799 5 13.1999 5.9 13.0899 6.24L14.0799 6.65C14.1899 6.33 14.4299 6.01 14.9299 6.01C15.3699 6.01 15.6799 6.27 15.6799 6.66C15.6799 7.24 15.1299 7.38 14.7999 7.38H14.3399V8.38H14.8399C15.3999 8.38 15.8799 8.62 15.8799 9.17C15.8799 9.66 15.3999 9.94 14.9899 9.94Z" fill="#325ECD"/>
</svg>
