<svg width="20" height="20" viewBox="0 0 20 20" fill="none" xmlns="http://www.w3.org/2000/svg">
<path fill-rule="evenodd" clip-rule="evenodd" d="M8.42174 18.2609H4.42174C3.12562 18.2561 2.07474 17.2091 2.06522 15.913V7.95652C2.06776 7.52264 2.26191 7.11205 2.59565 6.83478L3.3 6.31304C3.55714 6.03907 3.58329 5.62102 3.36229 5.31715C3.14129 5.01328 2.73552 4.90935 2.39565 5.06957L1.67391 5.6087C0.945876 6.17202 0.513835 7.0361 0.5 7.95652V15.9217C0.504782 18.0857 2.25781 19.8387 4.42174 19.8435H8.42174C8.85396 19.8435 9.20435 19.4931 9.20435 19.0609C9.20435 18.6286 8.85396 18.2783 8.42174 18.2783V18.2609Z" fill="#ADAFBB"/>
<path fill-rule="evenodd" clip-rule="evenodd" d="M19.2913 7.93912C19.2822 7.02545 18.8642 6.16394 18.1522 5.59129L12.1435 0.799986C10.8231 -0.261372 8.94214 -0.261372 7.62174 0.799986L5.71739 2.18259C5.35961 2.43953 5.27785 2.93785 5.53478 3.29564C5.79172 3.65342 6.29004 3.73518 6.64783 3.47825L8.57826 2.03477C9.33596 1.41097 10.4293 1.41097 11.187 2.03477L17.1957 6.82607C17.5415 7.10021 17.7458 7.51525 17.7522 7.95651V15.9217C17.7522 17.2184 16.701 18.2696 15.4043 18.2696H13.6217C13.4392 18.2696 13.2913 18.1216 13.2913 17.9391V14.3478C13.2913 13.2034 12.3661 12.2743 11.2217 12.2696H8.61304C8.06186 12.2696 7.53324 12.4885 7.14349 12.8783C6.75374 13.268 6.53478 13.7966 6.53478 14.3478V15.7217C6.53478 16.1539 6.88517 16.5043 7.31739 16.5043C7.74962 16.5043 8.1 16.1539 8.1 15.7217V14.3478C8.09767 14.2126 8.14977 14.082 8.24461 13.9855C8.33945 13.8891 8.46907 13.8347 8.60435 13.8348H11.213C11.4916 13.8348 11.7174 14.0606 11.7174 14.3391V17.9391C11.7222 18.9875 12.5734 19.8348 13.6217 19.8348H15.3609C17.5268 19.8348 19.2826 18.0789 19.2826 15.913L19.2913 7.93912Z" fill="#ADAFBB"/>
</svg>
