<svg width="22" height="22" viewBox="0 0 22 22" fill="none" xmlns="http://www.w3.org/2000/svg">
<path d="M11 1.8324C16.0637 1.8324 20.1685 5.93723 20.1685 11.0009C20.1685 16.0636 16.0637 20.1685 11 20.1685C5.93632 20.1685 1.83148 16.0636 1.83148 11.0009C1.83148 5.93723 5.93632 1.8324 11 1.8324ZM11 3.2074C9.96947 3.19622 8.94698 3.38954 7.99168 3.77616C7.03639 4.16279 6.16725 4.73504 5.43459 5.4598C4.70193 6.18456 4.12028 7.04744 3.72332 7.99848C3.32636 8.94953 3.12196 9.96987 3.12196 11.0004C3.12196 12.031 3.32636 13.0513 3.72332 14.0024C4.12028 14.9534 4.70193 15.8163 5.43459 16.5411C6.16725 17.2658 7.03639 17.8381 7.99168 18.2247C8.94698 18.6113 9.96947 18.8047 11 18.7935C13.046 18.7621 14.9976 17.9273 16.4334 16.4693C17.8692 15.0113 18.674 13.0472 18.674 11.0009C18.674 8.95464 17.8692 6.99046 16.4334 5.53248C14.9976 4.0745 13.046 3.2397 11 3.20831V3.2074ZM10.9963 9.62406C11.1626 9.62385 11.3233 9.68392 11.4487 9.79313C11.5741 9.90235 11.6557 10.0533 11.6783 10.2181L11.6847 10.3116L11.6875 15.3551C11.6874 15.5293 11.6213 15.6969 11.5023 15.8242C11.3834 15.9515 11.2206 16.0289 11.0468 16.0408C10.8731 16.0526 10.7012 15.9981 10.5661 15.8882C10.431 15.7782 10.3426 15.6211 10.3189 15.4486L10.3125 15.356L10.3097 10.3125C10.3097 10.1301 10.3822 9.95528 10.5111 9.82635C10.64 9.69741 10.8149 9.62498 10.9972 9.62498L10.9963 9.62406ZM11 6.4194C11.1226 6.41552 11.2448 6.43632 11.3592 6.48057C11.4737 6.52482 11.578 6.59162 11.6662 6.67699C11.7543 6.76237 11.8243 6.86458 11.8722 6.97757C11.92 7.09055 11.9447 7.21199 11.9447 7.33469C11.9447 7.45739 11.92 7.57883 11.8722 7.69181C11.8243 7.80479 11.7543 7.90701 11.6662 7.99238C11.578 8.07776 11.4737 8.14456 11.3592 8.18881C11.2448 8.23306 11.1226 8.25386 11 8.24998C10.7622 8.24246 10.5368 8.14273 10.3713 7.9719C10.2057 7.80107 10.1132 7.57255 10.1132 7.33469C10.1132 7.09683 10.2057 6.86831 10.3713 6.69748C10.5368 6.52665 10.7622 6.42692 11 6.4194Z" fill="#282F38"/>
</svg>
