<svg width="18" height="18" viewBox="0 0 18 18" fill="none" xmlns="http://www.w3.org/2000/svg">
<path d="M8.2575 2.28751C4.8825 2.65501 2.25 5.52001 2.25 9.00001C2.25 10.7902 2.96116 12.5071 4.22703 13.773C5.4929 15.0388 7.20979 15.75 9 15.75C12.4725 15.75 15.3375 13.125 15.7125 9.75001C15.78 9.15751 15.1275 8.68501 14.5575 9.03751C13.9453 9.4283 13.2392 9.64735 12.5133 9.67174C11.7874 9.69612 11.0682 9.52494 10.4311 9.17612C9.79404 8.82729 9.26241 8.31363 8.89189 7.6889C8.52137 7.06418 8.32558 6.35135 8.325 5.62501C8.325 4.83001 8.5575 4.08001 8.955 3.45751C9.2925 2.95501 8.925 2.23501 8.2575 2.28751Z" fill="#325ECD"/>
</svg>
