<svg width="26" height="26" viewBox="0 0 26 26" fill="none" xmlns="http://www.w3.org/2000/svg">
<path d="M21.6667 19.8576C21.6667 23.4206 16.7207 23.8333 13 23.8333C12.625 23.8333 12.2554 23.8279 11.8924 23.8171C11.4607 23.8062 11.1206 23.4477 11.1337 23.0176C11.1457 22.5886 11.5185 22.2658 11.9371 22.2625C12.286 22.2723 12.6403 22.2766 13 22.2766C17.7116 22.2766 20.1012 21.463 20.1012 19.8576C20.1012 18.237 17.7116 17.4147 13 17.4147C8.2884 17.4147 5.89879 18.2294 5.89879 19.8359C5.89879 20.3613 6.0863 21.1229 7.71389 21.671C8.12378 21.8086 8.3429 22.2495 8.20445 22.6558C8.06492 23.062 7.62232 23.2841 7.21133 23.1433C4.83263 22.3427 4.33334 20.903 4.33334 19.8359C4.33334 16.3446 9.07952 15.8773 12.7707 15.8596L13.4126 15.8599C15.8742 15.8724 21.6667 16.0898 21.6667 19.8576ZM13 2.16666C16.2181 2.16666 18.8356 4.76876 18.8356 7.96668C18.8356 11.1635 16.2181 13.7656 13 13.7656C9.7819 13.7656 7.16336 11.1635 7.16336 7.96668C7.16336 4.76876 9.7819 2.16666 13 2.16666ZM13 3.72337C10.6453 3.72337 8.72991 5.62674 8.72991 7.96668C8.72991 10.3055 10.6453 12.2089 13 12.2089C15.3547 12.2089 17.2701 10.3055 17.2701 7.96668C17.2701 5.62674 15.3547 3.72337 13 3.72337Z" fill="#ADAFBB"/>
</svg>
