<svg width="24" height="24" viewBox="0 0 24 24" fill="none" xmlns="http://www.w3.org/2000/svg">
<path d="M23.2 11V5.1116L17.6 3.2448V11H16.8V2.2H7.2V11H6.4V6.2H5.6V3.4H4V1H3.2V3.4H1.6V6.2H0.8V11H0V22.2H7.2V23H16.8V22.2H24V11H23.2ZM2.4 4.2H4.8V6.2H2.4V4.2ZM1.6 7H5.6V11H1.6V7ZM7.2 21.4H0.8V11.8H7.2V21.4ZM12.8 22.2H11.2V18.2H12.8V22.2ZM16 22.2H13.6V17.4H10.4V22.2H8V3H16V22.2ZM18.4 4.3552L22.4 5.6884V11H21.6V6.2H20.8V11H20V6.2H19.2V11H18.4V4.3552ZM20.8 21.4H19.2V19.8H20.8V21.4ZM23.2 21.4H21.6V19H18.4V21.4H16.8V11.8H23.2V21.4Z" fill="#B3C3EE"/>
<path d="M6.4001 12.6001H1.6001V13.4001H6.4001V12.6001Z" fill="#B3C3EE"/>
<path d="M6.4001 14.2H1.6001V15H6.4001V14.2Z" fill="#B3C3EE"/>
<path d="M6.4001 15.8H1.6001V16.6H6.4001V15.8Z" fill="#B3C3EE"/>
<path d="M6.4001 17.3999H1.6001V18.1999H6.4001V17.3999Z" fill="#B3C3EE"/>
<path d="M9.19995 4.59985V6.99985H11.6V4.59985H9.19995ZM10.8 6.19985H9.99995V5.39985H10.8V6.19985Z" fill="#B3C3EE"/>
<path d="M12.3999 4.59985V6.99985H14.7999V4.59985H12.3999ZM13.9999 6.19985H13.1999V5.39985H13.9999V6.19985Z" fill="#B3C3EE"/>
<path d="M9.19995 7.80005V10.2H11.6V7.80005H9.19995ZM10.8 9.40005H9.99995V8.60005H10.8V9.40005Z" fill="#B3C3EE"/>
<path d="M12.3999 7.80005V10.2H14.7999V7.80005H12.3999ZM13.9999 9.40005H13.1999V8.60005H13.9999V9.40005Z" fill="#B3C3EE"/>
<path d="M9.19995 11V13.4H11.6V11H9.19995ZM10.8 12.6H9.99995V11.8H10.8V12.6Z" fill="#B3C3EE"/>
<path d="M12.3999 11V13.4H14.7999V11H12.3999ZM13.9999 12.6H13.1999V11.8H13.9999V12.6Z" fill="#B3C3EE"/>
<path d="M9.19995 14.2V16.5999H11.6V14.2H9.19995ZM10.8 15.7999H9.99995V15H10.8V15.7999Z" fill="#B3C3EE"/>
<path d="M12.3999 14.2V16.5999H14.7999V14.2H12.3999ZM13.9999 15.7999H13.1999V15H13.9999V15.7999Z" fill="#B3C3EE"/>
<path d="M18.4001 12.6001H17.6001V13.4001H18.4001V12.6001Z" fill="#B3C3EE"/>
<path d="M20.8 12.6001H19.2V13.4001H20.8V12.6001Z" fill="#B3C3EE"/>
<path d="M22.3999 12.6001H21.5999V13.4001H22.3999V12.6001Z" fill="#B3C3EE"/>
<path d="M18.4001 14.2H17.6001V15H18.4001V14.2Z" fill="#B3C3EE"/>
<path d="M20.8 14.2H19.2V15H20.8V14.2Z" fill="#B3C3EE"/>
<path d="M22.3999 14.2H21.5999V15H22.3999V14.2Z" fill="#B3C3EE"/>
<path d="M18.4001 15.8H17.6001V16.6H18.4001V15.8Z" fill="#B3C3EE"/>
<path d="M20.8 15.8H19.2V16.6H20.8V15.8Z" fill="#B3C3EE"/>
<path d="M22.3999 15.8H21.5999V16.6H22.3999V15.8Z" fill="#B3C3EE"/>
<path d="M18.4001 17.3999H17.6001V18.1999H18.4001V17.3999Z" fill="#B3C3EE"/>
<path d="M20.8 17.3999H19.2V18.1999H20.8V17.3999Z" fill="#B3C3EE"/>
<path d="M22.3999 17.3999H21.5999V18.1999H22.3999V17.3999Z" fill="#B3C3EE"/>
</svg>
