<svg width="30" height="30" viewBox="0 0 30 30" fill="none" xmlns="http://www.w3.org/2000/svg">
<path d="M12.2093 4H6.62791C6.19631 4.00049 5.78253 4.17216 5.47735 4.47735C5.17216 4.78253 5.00049 5.19631 5 5.62791V11.2093C5.00049 11.6409 5.17216 12.0547 5.47735 12.3599C5.78253 12.665 6.19631 12.8367 6.62791 12.8372H12.2093C12.6409 12.8367 13.0547 12.665 13.3599 12.3599C13.665 12.0547 13.8367 11.6409 13.8372 11.2093V5.62791C13.8367 5.19631 13.665 4.78253 13.3599 4.47735C13.0547 4.17216 12.6409 4.00049 12.2093 4V4ZM12.4419 11.2093C12.4418 11.271 12.4172 11.3301 12.3736 11.3736C12.3301 11.4172 12.271 11.4418 12.2093 11.4419H6.62791C6.56626 11.4418 6.50716 11.4172 6.46357 11.3736C6.41997 11.3301 6.39544 11.271 6.39535 11.2093V5.62791C6.39544 5.56626 6.41997 5.50716 6.46357 5.46357C6.50716 5.41997 6.56626 5.39544 6.62791 5.39535H12.2093C12.271 5.39544 12.3301 5.41997 12.3736 5.46357C12.4172 5.50716 12.4418 5.56626 12.4419 5.62791V11.2093ZM12.2093 15.1628H6.62791C6.19631 15.1633 5.78253 15.335 5.47735 15.6401C5.17216 15.9453 5.00049 16.3591 5 16.7907V22.3721C5.00049 22.8037 5.17216 23.2175 5.47735 23.5227C5.78253 23.8278 6.19631 23.9995 6.62791 24H12.2093C12.6409 23.9995 13.0547 23.8278 13.3599 23.5227C13.665 23.2175 13.8367 22.8037 13.8372 22.3721V16.7907C13.8367 16.3591 13.665 15.9453 13.3599 15.6401C13.0547 15.335 12.6409 15.1633 12.2093 15.1628V15.1628ZM12.4419 22.3721C12.4418 22.4337 12.4172 22.4928 12.3736 22.5364C12.3301 22.58 12.271 22.6046 12.2093 22.6047H6.62791C6.56626 22.6046 6.50716 22.58 6.46357 22.5364C6.41997 22.4928 6.39544 22.4337 6.39535 22.3721V16.7907C6.39544 16.729 6.41997 16.67 6.46357 16.6264C6.50716 16.5828 6.56626 16.5582 6.62791 16.5581H12.2093C12.271 16.5582 12.3301 16.5828 12.3736 16.6264C12.4172 16.67 12.4418 16.729 12.4419 16.7907V22.3721ZM23.3721 4H17.7907C17.3591 4.00049 16.9453 4.17216 16.6401 4.47735C16.335 4.78253 16.1633 5.19631 16.1628 5.62791V11.2093C16.1633 11.6409 16.335 12.0547 16.6401 12.3599C16.9453 12.665 17.3591 12.8367 17.7907 12.8372H23.3721C23.8037 12.8367 24.2175 12.665 24.5227 12.3599C24.8278 12.0547 24.9995 11.6409 25 11.2093V5.62791C24.9995 5.19631 24.8278 4.78253 24.5227 4.47735C24.2175 4.17216 23.8037 4.00049 23.3721 4V4ZM23.6047 11.2093C23.6046 11.271 23.58 11.3301 23.5364 11.3736C23.4928 11.4172 23.4337 11.4418 23.3721 11.4419H17.7907C17.729 11.4418 17.67 11.4172 17.6264 11.3736C17.5828 11.3301 17.5582 11.271 17.5581 11.2093V5.62791C17.5582 5.56626 17.5828 5.50716 17.6264 5.46357C17.67 5.41997 17.729 5.39544 17.7907 5.39535H23.3721C23.4337 5.39544 23.4928 5.41997 23.5364 5.46357C23.58 5.50716 23.6046 5.56626 23.6047 5.62791V11.2093ZM16.1628 19.5814V15.8605C16.1628 15.6754 16.2363 15.498 16.3671 15.3671C16.498 15.2363 16.6754 15.1628 16.8605 15.1628C17.0455 15.1628 17.223 15.2363 17.3538 15.3671C17.4846 15.498 17.5581 15.6754 17.5581 15.8605V19.5814C17.5581 19.7664 17.4846 19.9439 17.3538 20.0747C17.223 20.2056 17.0455 20.2791 16.8605 20.2791C16.6754 20.2791 16.498 20.2056 16.3671 20.0747C16.2363 19.9439 16.1628 19.7664 16.1628 19.5814ZM25 17.7209C25 17.906 24.9265 18.0834 24.7957 18.2143C24.6648 18.3451 24.4874 18.4186 24.3023 18.4186H21.2791V23.3023C21.2791 23.4874 21.2056 23.6648 21.0747 23.7957C20.9439 23.9265 20.7664 24 20.5814 24H16.8605C16.6754 24 16.498 23.9265 16.3671 23.7957C16.2363 23.6648 16.1628 23.4874 16.1628 23.3023C16.1628 23.1173 16.2363 22.9398 16.3671 22.809C16.498 22.6782 16.6754 22.6047 16.8605 22.6047H19.8837V15.8605C19.8837 15.6754 19.9572 15.498 20.0881 15.3671C20.2189 15.2363 20.3964 15.1628 20.5814 15.1628C20.7664 15.1628 20.9439 15.2363 21.0747 15.3671C21.2056 15.498 21.2791 15.6754 21.2791 15.8605V17.0233H24.3023C24.4874 17.0233 24.6648 17.0968 24.7957 17.2276C24.9265 17.3584 25 17.5359 25 17.7209ZM25 21.4419V23.3023C25 23.4874 24.9265 23.6648 24.7957 23.7957C24.6648 23.9265 24.4874 24 24.3023 24C24.1173 24 23.9398 23.9265 23.809 23.7957C23.6782 23.6648 23.6047 23.4874 23.6047 23.3023V21.4419C23.6047 21.2568 23.6782 21.0794 23.809 20.9485C23.9398 20.8177 24.1173 20.7442 24.3023 20.7442C24.4874 20.7442 24.6648 20.8177 24.7957 20.9485C24.9265 21.0794 25 21.2568 25 21.4419V21.4419Z" fill="#325ECD"/>
</svg>
