<svg width="64" height="64" viewBox="0 0 64 64" fill="none" xmlns="http://www.w3.org/2000/svg">
<path d="M29.5625 55.1404C30.9432 55.1404 32.0625 54.0211 32.0625 52.6404C32.0625 51.2596 30.9432 50.1404 29.5625 50.1404H24.5625C23.1818 50.1404 22.0625 51.2596 22.0625 52.6404C22.0625 54.0211 23.1818 55.1404 24.5625 55.1404H29.5625Z" fill="#5B7ED7"/>
<path d="M29.5625 18.6404C30.9432 18.6404 32.0625 17.5211 32.0625 16.1404C32.0625 14.7597 30.9432 13.6404 29.5625 13.6404C28.1818 13.6404 27.0625 14.7597 27.0625 16.1404C27.0625 17.5211 28.1818 18.6404 29.5625 18.6404Z" fill="#5B7ED7"/>
<path d="M46.6875 39.6403C45.3068 39.6403 44.1875 40.7595 44.1875 42.1403V54C44.1875 56.757 41.9445 59 39.1875 59H14.9375C12.1805 59 9.9375 56.757 9.9375 54V10C9.9375 7.243 12.1805 5 14.9375 5H16.5625C17.9432 5 19.0625 3.88075 19.0625 2.5C19.0625 1.11925 17.9432 0 16.5625 0H14.9375C9.4235 0 4.9375 4.486 4.9375 10V54C4.9375 59.514 9.4235 64 14.9375 64H39.1875C44.7015 64 49.1875 59.514 49.1875 54V42.1403C49.1875 40.7595 48.0682 39.6403 46.6875 39.6403Z" fill="#5B7ED7"/>
<path d="M41.4373 0.0153809H36.4373C26.7188 0.0153809 18.8123 7.34688 18.8123 16.3585C18.8123 19.5665 19.7886 22.6149 21.65 25.2598L18.9946 31.8284C18.6132 32.7716 18.8416 33.852 19.5722 34.5603C20.0485 35.022 20.6757 35.2655 21.313 35.2655C21.6533 35.2654 21.9966 35.196 22.3208 35.053L30.1108 31.619C32.0246 32.3096 34.0018 32.682 36.0073 32.7285C36.147 32.7528 36.2907 32.7654 36.4373 32.7654H41.4373C51.1558 32.7654 59.0623 25.4195 59.0623 16.3904V16.3585C59.0623 7.34688 51.1558 0.0153809 41.4373 0.0153809ZM54.0623 16.3904C54.0623 22.6626 48.3987 27.7654 41.4373 27.7654H36.8376C36.7072 27.7444 36.5736 27.7335 36.4373 27.7335C34.5975 27.7335 32.7802 27.3561 31.0361 26.612C30.3997 26.3405 29.6797 26.3449 29.0466 26.6239L25.9376 27.9944L26.8233 25.8033C27.1725 24.9396 27.0126 23.9535 26.4082 23.2445C24.71 21.252 23.8123 18.871 23.8123 16.3585C23.8123 10.1039 29.476 5.01538 36.4373 5.01538H41.4373C48.3987 5.01538 54.0623 10.1039 54.0623 16.3585V16.3904Z" fill="#5B7ED7"/>
<path d="M48.4375 18.6404C49.8182 18.6404 50.9375 17.5211 50.9375 16.1404C50.9375 14.7597 49.8182 13.6404 48.4375 13.6404C47.0568 13.6404 45.9375 14.7597 45.9375 16.1404C45.9375 17.5211 47.0568 18.6404 48.4375 18.6404Z" fill="#5B7ED7"/>
<path d="M38.9375 18.6404C40.3182 18.6404 41.4375 17.5211 41.4375 16.1404C41.4375 14.7597 40.3182 13.6404 38.9375 13.6404C37.5568 13.6404 36.4375 14.7597 36.4375 16.1404C36.4375 17.5211 37.5568 18.6404 38.9375 18.6404Z" fill="#5B7ED7"/>
</svg>
